<!-- icon666.com - MILLIONS vector ICONS FREE --><svg enable-background="new 0 0 512 512" viewBox="0 0 512 512" xmlns="http://www.w3.org/2000/svg"><g id="_x39_3_Books"><g><path d="m403.878 321.165h-225.901c-35.938 0-65.175 29.239-65.175 65.177 0 35.937 29.237 65.174 65.175 65.174h225.901z" fill="#d3ad0d"></path><path d="m403.9 321.176v130.329h-225.913c-30.29 0-55.81-20.752-63.095-48.788 7.599 1.153 15.355 1.729 23.267 1.729 59.95 0 111.987-33.748 138.137-83.27z" opacity=".12"></path><path d="m394.207 60.483h-225.901c-35.938 0-65.175 29.239-65.175 65.177 0 35.937 29.237 65.174 65.175 65.174h225.901z" fill="#1c40a5"></path><path d="m394.23 60.494v130.329h-225.914c-30.29 0-55.81-20.752-63.095-48.788 7.599 1.153 15.355 1.729 23.267 1.729 59.95 0 111.987-33.748 138.137-83.27h127.605z" opacity=".12"></path><path d="m302.483 190.824h-225.9c-35.938 0-65.175 29.239-65.175 65.177 0 35.937 29.237 65.174 65.175 65.174h225.901v-130.351z" fill="#e22929"></path><path d="m302.506 190.835v130.329h-225.914c-30.29 0-55.81-20.752-63.095-48.788 7.599 1.153 15.355 1.729 23.267 1.729 59.95 0 111.987-33.748 138.137-83.27z" opacity=".12"></path><path d="m467.694 72.084c-16.432 35.717-16.432 71.434 0 107.151h-145.191c-29.614 0-53.576-24-53.576-53.575 0-14.787 6-28.181 15.678-37.859 9.678-9.716 23.072-15.716 37.898-15.716h145.191z" fill="#e8f1f8"></path><path d="m467.7 179.241h-145.211c-29.608 0-53.557-24-53.557-53.557 0-8.07 1.782-15.774 4.978-22.586 17.346 25.678 46.745 42.552 80.126 42.552 45.434 0 83.584-31.337 93.96-73.575h19.704c-16.455 35.74-16.455 71.426 0 107.166z" opacity=".12"></path><path d="m479.308 190.835h-156.819c-35.938 0-65.175-29.237-65.175-65.175s29.237-65.177 65.175-65.177h163.232c6.413 0 5.2 5.2 5.2 11.613s-5.2 11.613-11.613 11.613h-156.819c-23.13 0-41.948 18.818-41.948 41.95 0 23.13 18.818 41.948 41.948 41.948h156.819c6.413 0 11.613 5.2 11.613 11.613s-5.2 11.615-11.613 11.615z" fill="#475da9"></path><path d="m375.971 202.425c-16.432 35.717-16.432 71.434 0 107.151h-145.192c-29.614 0-53.576-24-53.576-53.575 0-14.787 6-28.181 15.678-37.859 9.678-9.716 23.072-15.716 37.898-15.716h145.192z" fill="#e8f1f8"></path><path d="m375.976 309.582h-145.211c-29.608 0-53.557-24-53.557-53.557 0-8.07 1.782-15.774 4.978-22.586 17.346 25.678 46.745 42.552 80.126 42.552 45.434 0 83.584-31.337 93.96-73.575h19.704c-16.455 35.74-16.455 71.426 0 107.166z" opacity=".12"></path><path d="m387.584 321.176h-156.819c-35.938 0-65.175-29.237-65.175-65.175s29.237-65.177 65.175-65.177h156.819c6.413 0 11.613 5.2 11.613 11.613s-5.2 11.613-11.613 11.613h-156.819c-23.13 0-41.948 18.818-41.948 41.95 0 23.13 18.818 41.948 41.948 41.948h156.819c6.413 0 11.613 5.2 11.613 11.613s-5.2 11.615-11.613 11.615z" fill="#f14f4a"></path><path d="m477.365 332.766c-16.432 35.717-16.432 71.434 0 107.151h-145.191c-29.614 0-53.576-24-53.576-53.575 0-14.787 6-28.181 15.678-37.859 9.678-9.716 23.072-15.716 37.898-15.716h145.191z" fill="#e8f1f8"></path><path d="m477.371 439.923h-145.212c-29.608 0-53.557-24-53.557-53.557 0-8.07 1.782-15.774 4.978-22.586 17.346 25.678 46.745 42.552 80.126 42.552 45.434 0 83.584-31.337 93.96-73.575h19.704c-16.454 35.74-16.454 71.426.001 107.166z" opacity=".12"></path><path d="m488.978 451.517h-156.818c-35.938 0-65.175-29.237-65.175-65.175s29.237-65.177 65.175-65.177h156.819c6.413 0 11.613 5.2 11.613 11.613s-5.2 11.613-11.613 11.613h-156.819c-23.13 0-41.948 18.818-41.948 41.95 0 23.13 18.818 41.948 41.948 41.948h156.819c6.413 0 11.613 5.2 11.613 11.613 0 6.415-5.2 11.615-11.614 11.615z" fill="#fdcf17"></path><path d="m488.979 423.087h-12.507c-8.001-24.44-8.012-49.051-.009-73.492h12.516c9.275 0 16.817-7.542 16.817-16.817s-7.542-16.817-16.817-16.817h-85.856c.817-1.974 1.279-4.132 1.279-6.398 0-9.275-7.542-16.817-16.817-16.817h-12.534c-7.998-24.441-7.928-49.051.078-73.492h12.456c9.275 0 16.817-7.542 16.817-16.817 0-2.267-.462-4.424-1.279-6.398h76.185c9.275 0 16.817-7.542 16.817-16.817s-7.542-16.817-16.817-16.817h-12.499c-7.997-24.441-7.993-49.051.011-73.492h12.488c9.275 0 16.817-7.542 16.817-16.817 0-5.033.857-10.267-2.744-13.971-1.84-1.885-4.416-2.846-7.659-2.846-56.31 0-104.484 0-163.232 0h-154.182c-38.807 0-70.382 31.575-70.382 70.382 0 25.366 13.536 47.572 33.719 59.959h-55.064c-38.807 0-70.377 31.575-70.377 70.382s31.57 70.377 70.377 70.377h64.736c-20.184 12.388-33.72 34.596-33.72 59.964 0 38.807 31.575 70.377 70.382 70.377h154.181 156.819c9.275 0 16.817-7.542 16.817-16.817s-7.542-16.816-16.817-16.816zm-23.337 0h-133.481c-20.262 0-36.744-16.481-36.744-36.744 0-20.262 16.481-36.749 36.744-36.749h133.376c-7.366 24.451-7.279 49.043.105 73.493zm-101.504-130.341h-133.371c-20.262 0-36.749-16.481-36.749-36.744s16.486-36.749 36.749-36.749h133.47c-7.384 24.451-7.463 49.043-.099 73.493zm29.857-90.309c0 3.532-2.876 6.409-6.409 6.409h-156.819c-26 0-47.157 21.157-47.157 47.157s21.157 47.152 47.157 47.152h156.819c3.532 0 6.409 2.876 6.409 6.409 0 3.514-2.851 6.369-6.358 6.398-61.188 0-114.86 0-157.07 0-32.975-.109-59.773-26.957-59.773-59.959s26.798-59.855 59.773-59.964h157.07c3.506.029 6.358 2.884 6.358 6.398zm61.98-40.032h-133.486c-20.262 0-36.744-16.481-36.744-36.744s16.481-36.749 36.744-36.749h133.376c-7.367 24.45-7.28 49.043.11 73.493zm29.747-96.717h.036c.121 1.31-.041 4.312-.041 6.409 0 3.532-2.876 6.409-6.409 6.409h-156.819c-26 0-47.152 21.157-47.152 47.157s21.152 47.152 47.152 47.152h156.819c3.532 0 6.409 2.876 6.409 6.409 0 3.532-2.876 6.409-6.409 6.409-16.125-.001 58.161.004-157.019-.01-32.975-.109-59.768-26.957-59.768-59.959 0-33.069 26.9-59.974 59.969-59.974 56.664-.002 106.732-.002 163.232-.002zm-377.388 59.974c0-33.069 26.905-59.974 59.974-59.974h117.538c-20.191 12.385-33.734 34.6-33.734 59.974 0 25.366 13.534 47.572 33.715 59.959-12.015 0-102.552 0-117.719 0-32.976-.11-59.774-26.957-59.774-59.959zm-31.753 190.309c-33.069 0-59.969-26.9-59.969-59.969s26.9-59.974 59.969-59.974c12.963.001-32.24-.003 117.524.01-20.184 12.388-33.72 34.596-33.72 59.964 0 25.366 13.536 47.572 33.719 59.959h-16.124c-.067 0-.133.01-.201.01zm101.398 130.341c-33.069 0-59.974-26.9-59.974-59.969 0-33.002 26.798-59.855 59.773-59.964h52.989 64.733c-20.182 12.388-33.717 34.596-33.717 59.964 0 25.372 13.541 47.584 33.731 59.969zm311 0c-54.427 0-102.796 0-156.819 0-33.069 0-59.969-26.9-59.969-59.969 0-33.002 26.793-59.855 59.768-59.964 16.096-.001-58.23.004 157.019-.01 3.532 0 6.409 2.876 6.409 6.409s-2.876 6.409-6.409 6.409h-156.817c-26 0-47.152 21.157-47.152 47.157s21.152 47.152 47.152 47.152h156.819c3.532 0 6.409 2.876 6.409 6.409s-2.878 6.407-6.41 6.407z"></path></g></g></svg>