<svg xmlns="http://www.w3.org/2000/svg" viewBox="0 0 88.18 28.35"><defs><style>.cls-1{fill:#fff;}.cls-2{fill:#0095da;}.cls-3{fill:#5ba3d9;}.cls-4{fill:#007dc5;}.cls-5{fill:#ed1651;}.cls-6{fill:#f6958d;}.cls-7{fill:#a62518;}.cls-8{fill:#bcbec0;}.cls-9{fill:#231f20;}</style></defs><title>Asset 1</title><g id="Layer_2" data-name="Layer 2"><g id="Lager_1" data-name="Lager 1"><path class="cls-1" d="M16.08,27.3A2.92,2.92,0,0,0,19,24.39V7.13H1.07V24.39A2.91,2.91,0,0,0,4,27.3H8.37a1.87,1.87,0,0,1,1.66.93,1.87,1.87,0,0,1,1.67-.93Z"/><path class="cls-2" d="M1.07,22.39c1.35,0,1.64.78,3,.78s1.63-.78,3-.78,1.64.78,3,.78,1.64-.78,3-.78,1.64.78,3,.78,1.64-.78,3-.78v2a2.92,2.92,0,0,1-2.91,2.92H11.7a1.87,1.87,0,0,0-1.67.93,1.87,1.87,0,0,0-1.66-.93H4a2.91,2.91,0,0,1-2.91-2.92v-2Z"/><path class="cls-3" d="M10,23.26a2.84,2.84,0,0,1-.87-.13,2.83,2.83,0,0,0,1.09.21c1.35,0,1.63-.78,3-.78a2.77,2.77,0,0,1,.87.13A2.82,2.82,0,0,0,13,22.49c-1.35,0-1.64.78-3,.78Zm-9-.7h.22a2.83,2.83,0,0,1,.87.13,2.86,2.86,0,0,0-1.09-.21v.08Zm3,.7a2.85,2.85,0,0,1-.87-.13,2.84,2.84,0,0,0,1.09.21c1.35,0,1.64-.78,3-.78a2.83,2.83,0,0,1,.87.13A2.86,2.86,0,0,0,7,22.49c-1.35,0-1.63.78-3,.78Zm11.95,0a2.83,2.83,0,0,1-.87-.13,2.83,2.83,0,0,0,1.09.21c1.27,0,1.6-.69,2.77-.77v-.09c-1.35,0-1.64.78-3,.78Z"/><path class="cls-3" d="M17.51,23.2a3.17,3.17,0,0,1-1.5.39,3,3,0,0,1-.52,0,2.85,2.85,0,0,0,.74.09,3.14,3.14,0,0,0,1.49-.39A3.28,3.28,0,0,1,19,22.87v-.06a3.16,3.16,0,0,0-1.47.38ZM1.09,22.86h.21a3.13,3.13,0,0,1,.52,0,2.73,2.73,0,0,0-.72-.09v0Zm4.47.34a3.15,3.15,0,0,1-1.5.39,2.74,2.74,0,0,1-.52,0,2.81,2.81,0,0,0,.74.09,3.13,3.13,0,0,0,1.49-.39,3.06,3.06,0,0,1,2-.35A2.83,2.83,0,0,0,7,22.82a3.14,3.14,0,0,0-1.49.39Zm6,0a3.16,3.16,0,0,1-1.5.39,2.93,2.93,0,0,1-.52,0,2.82,2.82,0,0,0,.74.09,3.13,3.13,0,0,0,1.49-.39,3.06,3.06,0,0,1,2-.35,2.83,2.83,0,0,0-.74-.09,3.13,3.13,0,0,0-1.49.39Z"/><path class="cls-3" d="M17.51,23.53a3.18,3.18,0,0,1-1.51.39h-.14l.36,0a3.12,3.12,0,0,0,1.48-.38A3.32,3.32,0,0,1,19,23.18v0a3.14,3.14,0,0,0-1.45.38ZM1.1,23.17h.33l-.33,0v0Zm4.46.37a3.18,3.18,0,0,1-1.51.39H3.92l.36,0a3.12,3.12,0,0,0,1.48-.38,3.15,3.15,0,0,1,1.51-.39H7.4l-.36,0a3.1,3.1,0,0,0-1.48.39Zm6,0a3.18,3.18,0,0,1-1.51.39H9.89l.36,0a3.11,3.11,0,0,0,1.48-.38,3.17,3.17,0,0,1,1.51-.39h.14l-.36,0a3.09,3.09,0,0,0-1.48.39Z"/><path class="cls-3" d="M17.52,23.86a3.44,3.44,0,0,1-1.17.37,3.13,3.13,0,0,0,1.35-.38,3.38,3.38,0,0,1,1.17-.37,3.13,3.13,0,0,0-1.35.38Zm-6,0a3.44,3.44,0,0,1-1.17.37,3.14,3.14,0,0,0,1.35-.38,3.49,3.49,0,0,1,1.17-.37,3.16,3.16,0,0,0-1.35.38Zm-6,0a3.46,3.46,0,0,1-1.17.37,3.14,3.14,0,0,0,1.35-.38,3.46,3.46,0,0,1,1.17-.37,3.15,3.15,0,0,0-1.35.38Z"/><path class="cls-3" d="M17.53,24.19a4.16,4.16,0,0,1-.76.3,3.69,3.69,0,0,0,.93-.33,4.2,4.2,0,0,1,.74-.3,3.6,3.6,0,0,0-.91.33Zm-6,0a4.14,4.14,0,0,1-.76.3,3.68,3.68,0,0,0,.92-.33,4.17,4.17,0,0,1,.76-.3,3.53,3.53,0,0,0-.92.33Zm-6,0a4.11,4.11,0,0,1-.76.3,3.65,3.65,0,0,0,.92-.33,4.22,4.22,0,0,1,.76-.3,3.53,3.53,0,0,0-.93.33Z"/><path class="cls-4" d="M14.6,23a3,3,0,0,0-1.43-.37,2.68,2.68,0,0,0-.64.07l.39,0c1.35,0,1.64.78,3,.78a2.9,2.9,0,0,0,.67-.07l-.41,0A3.29,3.29,0,0,1,14.6,23Z"/><path class="cls-4" d="M8.63,23a3,3,0,0,0-1.43-.37,2.69,2.69,0,0,0-.64.07l.39,0c1.35,0,1.64.78,3,.78a2.92,2.92,0,0,0,.67-.07l-.41,0A3.29,3.29,0,0,1,8.63,23Z"/><path class="cls-4" d="M1.07,22.69c1.27,0,1.57.78,2.89.78a2.91,2.91,0,0,0,.67-.07l-.41,0A3.28,3.28,0,0,1,2.66,23a3,3,0,0,0-1.43-.37H1.07v0Z"/><path class="cls-4" d="M14.43,23.68a3.17,3.17,0,0,0,1.38.38,3.53,3.53,0,0,1-1.22-.39,3,3,0,0,0-1.33-.37,3.38,3.38,0,0,1,1.18.37Z"/><path class="cls-4" d="M8.46,23.68a3.16,3.16,0,0,0,1.38.38,3.55,3.55,0,0,1-1.23-.39,3,3,0,0,0-1.33-.37,3.36,3.36,0,0,1,1.17.37Z"/><path class="cls-4" d="M12.84,23h.08a3.13,3.13,0,0,1,1.5.39,3.14,3.14,0,0,0,1.49.39l.34,0h-.09a3.26,3.26,0,0,1-1.57-.41A3,3,0,0,0,13.18,23l-.33,0Z"/><path class="cls-4" d="M6.87,23H7a3.14,3.14,0,0,1,1.5.39,3.14,3.14,0,0,0,1.49.39l.35,0h-.09a3.26,3.26,0,0,1-1.57-.41A3,3,0,0,0,7.2,23l-.33,0Z"/><path class="cls-4" d="M14.44,24a3.64,3.64,0,0,0,1,.34,4.28,4.28,0,0,1-.83-.32,3.38,3.38,0,0,0-.94-.33,4.1,4.1,0,0,1,.8.31Z"/><path class="cls-4" d="M8.46,24a3.61,3.61,0,0,0,1,.34A4.19,4.19,0,0,1,8.61,24a3.4,3.4,0,0,0-.94-.33,3.93,3.93,0,0,1,.79.31Z"/><path class="cls-4" d="M1.2,24.24a2.87,2.87,0,0,0,2.87,2.87H8.39a1.76,1.76,0,0,1,1.64.78,1.76,1.76,0,0,1,1.64-.78H16a2.87,2.87,0,0,0,2.87-2.87v-.31A2.87,2.87,0,0,1,16,26.8H11.67c-.75,0-1.24,0-1.64.53a1.85,1.85,0,0,0-1.64-.53H4.07A2.87,2.87,0,0,1,1.2,23.93v.31Z"/><path class="cls-5" d="M9.06,19.59h0a.82.82,0,0,1,.15.53.9.9,0,0,1-.13.53h0l0-1.06Zm0-1.2h0a.82.82,0,0,1,.15.53.88.88,0,0,1-.14.53h0V18.39Zm0-1.2h0a.83.83,0,0,1,.15.53.89.89,0,0,1-.14.53H9l0-1.06ZM9,16H9a.83.83,0,0,1,.15.53.9.9,0,0,1-.13.53H9V16Zm0-.88.18,0a1.11,1.11,0,0,1,0,.16.93.93,0,0,1-.13.54H9v-.74Zm0-.33H9a.69.69,0,0,1,.12.26L9,15v-.21ZM5.84,20.38a.16.16,0,0,0-.13,0l-.18-.1a.22.22,0,0,1,.28,0,.22.22,0,0,1,.09.17l-.06,0Zm-1.29-.71a.06.06,0,0,1,0-.08.06.06,0,0,1,.08,0,.06.06,0,0,1-.06.1ZM9,10.62H9a.07.07,0,0,1,0,.14H9a.07.07,0,0,0,0-.11Zm2.13,1.44a.07.07,0,1,1,0-.14.07.07,0,1,1,0,.14Zm2.43-1.84a.07.07,0,0,1-.07-.07.07.07,0,0,1,.07-.07.07.07,0,0,1,.07.07.07.07,0,0,1-.07.07Zm4.16,7.95a4,4,0,0,1-2.16,1.59.87.87,0,0,1-.39.56c-.35.09-.7.18-1.07.25V20.3c.07,0,.07-.12,0-.11l-2.94.3a.05.05,0,0,0,0,.11v.31c-.68,0-1.37,0-2.08,0v-.16h0a.07.07,0,0,0,.07-.07h0a5,5,0,0,1,2.69-1.37,11.48,11.48,0,0,1,4.1.29,12.51,12.51,0,0,1-1.79-5.39,8.58,8.58,0,0,1,.61-4.7l1.21-1A0,0,0,1,0,16,8.49l-2.3,1.74a.13.13,0,0,0,0-.09.12.12,0,1,0-.12.12l.06,0-2.4,1.82a.12.12,0,0,0,0-.08A.12.12,0,1,0,11,12a.12.12,0,0,0,.12.12l.06,0-1.06.8L9,12.56l0-1.82h0a.12.12,0,0,0,.1.05.12.12,0,0,0,0-.24.12.12,0,0,0-.1.05h0V9.94H9A.07.07,0,0,0,9,9.8h0V8.85h0a.07.07,0,0,0,0-.14h0l0-1.14a.05.05,0,0,0-.05-.05.06.06,0,0,0-.06.05V8.71h0a.07.07,0,0,0,0,.14h0V9.8h0a.07.07,0,0,0,0,.14h0v.67h0a.07.07,0,0,0-.07.07.07.07,0,0,0,.07.07h0l0,1.75L6.92,12a.05.05,0,0,0-.06,0,0,0,0,0,0,0,.06l.35.1a2.16,2.16,0,0,0-.54.93,2.33,2.33,0,0,0,.08,1.25s.18-.47,1.35-.12a4.28,4.28,0,0,1,.54.21v.16h0a.07.07,0,0,0,0,.14h0v.13l-2.36-.65a.05.05,0,0,0-.06,0,.05.05,0,0,0,0,.07L8.68,15v.83h0a.07.07,0,0,0-.07.07.07.07,0,0,0,.07.07h0v1.06h0a.07.07,0,0,0-.07.07.07.07,0,0,0,.07.07h0l0,1.06h0a.07.07,0,0,0,0,.14h0l0,1.06h0a.07.07,0,0,0-.07.07.07.07,0,0,0,.07.07h0v1.06h0a.07.07,0,0,0,0,.14h0v.14l-1.2-.08s0-.07,0-.07h.15l-.37-.35,0,.4-.84-.09-.05,0,.26-.51-.14-.12L6,20.52l0,0a.33.33,0,0,0-.13-.34.33.33,0,0,0-.44,0l-.8-.45.13-.09s.06-.07,0-.1l-.22-.13c-.05,0-.08,0-.09.05l0,.16L1.84,18.19a.06.06,0,0,0-.07,0,.05.05,0,0,0,0,.07l3.57,2.25a.24.24,0,0,0,0,.08l-.74-.12v-.22L4.06,20a2.84,2.84,0,0,0,.29,1.8,3.36,3.36,0,0,0,1,1.12A3.61,3.61,0,0,1,7,22.39c1.35,0,1.64.78,3,.78s1.64-.78,3-.78,1.64.78,3,.78h.2l.35-.74c-.34-.21,0-.82.35-1.59l.1,0,1-2.66ZM5.21,8.3c.26,0,.64,0,1.14,0H8.77a.22.22,0,0,1-.1-.19.21.21,0,0,1,.11-.18H6.35A4,4,0,0,0,5.13,8c-.61.22-.6.53-.6.53s.08-.18.68-.24Zm-.88,9.19a.07.07,0,0,1,.07.07.07.07,0,0,1-.07.07.07.07,0,0,1-.07-.07.07.07,0,0,1,.07-.07Zm0,.19a.12.12,0,1,0-.12-.12.12.12,0,0,0,.12.12Z"/><path class="cls-6" d="M4.4,21.84a2.6,2.6,0,0,1-.27-1.74l.52.26v-.09L4.06,20a2.84,2.84,0,0,0,.29,1.8,3.1,3.1,0,0,0,.35.52,3.15,3.15,0,0,1-.29-.44Z"/><polygon class="cls-6" points="8.65 17.05 8.66 15.99 8.75 15.99 8.74 17.05 8.65 17.05 8.65 17.05"/><polygon class="cls-6" points="8.68 14.78 8.68 14.91 8.76 14.93 8.76 14.78 8.68 14.78 8.68 14.78"/><polygon class="cls-6" points="8.71 20.93 8.71 20.79 8.6 20.79 8.59 20.93 8.71 20.93 8.71 20.93"/><polygon class="cls-6" points="8.61 19.59 8.6 20.65 8.71 20.65 8.72 19.59 8.61 19.59 8.61 19.59"/><polygon class="cls-6" points="8.63 18.39 8.61 19.45 8.72 19.45 8.73 18.39 8.63 18.39 8.63 18.39"/><polygon class="cls-6" points="8.64 17.19 8.63 18.25 8.73 18.25 8.74 17.19 8.64 17.19 8.64 17.19"/><polygon class="cls-6" points="8.75 15.04 8.75 15.86 8.66 15.86 8.68 15.02 8.75 15.04 8.75 15.04"/><polygon class="cls-6" points="8.76 14.64 8.76 14.51 8.68 14.48 8.68 14.64 8.76 14.64 8.76 14.64"/><polygon class="cls-6" points="8.74 10.74 8.71 12.49 8.77 12.51 8.79 10.74 8.74 10.74 8.74 10.74"/><polygon class="cls-6" points="8.75 9.94 8.74 10.6 8.79 10.6 8.79 9.94 8.75 9.94 8.75 9.94"/><polygon class="cls-6" points="8.76 8.85 8.75 9.8 8.79 9.8 8.8 8.85 8.76 8.85 8.76 8.85"/><path class="cls-6" d="M8.86,7.56s0,0,0,0V8.71h0V7.57c0-.05.06-.07.07,0Z"/><path class="cls-6" d="M9.13,14.7a2.22,2.22,0,0,1,0-.88,2.18,2.18,0,0,1,.6-1l.65.18,0-.05-.75-.21h0l-.8-.22h0l-.79-.22h0l-.77-.21a2,2,0,0,0-.31.34H7l0,.06H7l-.1.16v0l0,.07v0l0,.09v0l0,.08v0l0,.1a2.33,2.33,0,0,0,.08,1.25h0a2.31,2.31,0,0,1,0-1.16,2.13,2.13,0,0,1,.65-1l.66.18a2.1,2.1,0,0,0-.55.94,2.06,2.06,0,0,0,0,.83h0a2.07,2.07,0,0,1,0-.75,2.15,2.15,0,0,1,.61-1l.68.19a2.15,2.15,0,0,0-.53.92,2.06,2.06,0,0,0,0,.81h0A2,2,0,0,1,9,12.63l.69.19a1.94,1.94,0,0,0-.53,1.88Z"/><path class="cls-6" d="M7.43,12.17a1.62,1.62,0,0,0-.55,1.08,1.62,1.62,0,0,1,.66-1l0,0-.13,0Z"/><path class="cls-6" d="M7.57,12.2a1.56,1.56,0,0,0-.48.78,1.6,1.6,0,0,1,.59-.7"/><path class="cls-6" d="M7.7,12.23a1.52,1.52,0,0,0-.41.58,1.63,1.63,0,0,1,.52-.51"/><path class="cls-6" d="M7.84,12.25a1.47,1.47,0,0,0-.36.48,1.6,1.6,0,0,1,.47-.41"/><path class="cls-6" d="M8,12.28a1.48,1.48,0,0,0-.34.43,1.57,1.57,0,0,1,.43-.34"/><path class="cls-6" d="M8.19,12.38a1.82,1.82,0,0,0-.54,1.23,1.8,1.8,0,0,1,.66-1.15l0,0-.14,0Z"/><path class="cls-6" d="M8.32,12.41a1.78,1.78,0,0,0-.48.88,1.79,1.79,0,0,1,.6-.81"/><path class="cls-6" d="M8.46,12.45a1.69,1.69,0,0,0-.41.66,1.79,1.79,0,0,1,.53-.59"/><path class="cls-6" d="M8.59,12.48a1.67,1.67,0,0,0-.37.55,1.79,1.79,0,0,1,.48-.48"/><path class="cls-6" d="M8.72,12.52a1.62,1.62,0,0,0-.34.49,1.84,1.84,0,0,1,.46-.41l0,0-.14-.05Z"/><path class="cls-6" d="M9,12.59a1.8,1.8,0,0,0-.54,1.23,1.78,1.78,0,0,1,.66-1.15l0,0-.14,0Z"/><path class="cls-6" d="M9.12,12.63a1.73,1.73,0,0,0-.48.88,1.79,1.79,0,0,1,.6-.81"/><path class="cls-6" d="M9.25,12.66a1.71,1.71,0,0,0-.41.67,1.82,1.82,0,0,1,.53-.59"/><path class="cls-6" d="M9.39,12.7a1.7,1.7,0,0,0-.37.55,1.8,1.8,0,0,1,.49-.48"/><path class="cls-6" d="M9.52,12.73a1.64,1.64,0,0,0-.34.49,1.79,1.79,0,0,1,.46-.41l0,0-.14-.05Z"/><path class="cls-6" d="M9.79,12.8A1.86,1.86,0,0,0,9.25,14a1.84,1.84,0,0,1,.65-1.15l0,0-.14,0Z"/><path class="cls-6" d="M9.92,12.84a1.78,1.78,0,0,0-.48.88,1.8,1.8,0,0,1,.59-.81"/><path class="cls-6" d="M10,12.87a1.71,1.71,0,0,0-.41.66,1.81,1.81,0,0,1,.53-.59"/><path class="cls-6" d="M10.18,12.91a1.69,1.69,0,0,0-.36.55,1.84,1.84,0,0,1,.48-.48"/><path class="cls-6" d="M10.31,12.94a1.69,1.69,0,0,0-.34.49,1.84,1.84,0,0,1,.44-.42l0,0-.13-.05Z"/><path class="cls-6" d="M10.5,15.47l0,0L6.3,14.31h0s0-.06.07,0l4.15,1.14s0,0,0,.07Z"/><path class="cls-6" d="M10.72,13.11l0,0-3.77-1H6.86s0-.06.06,0l3.77,1a.06.06,0,0,1,0,.07Z"/><path class="cls-6" d="M9.12,15.93s0,0-.07,0H8.62s-.07,0-.07,0a.07.07,0,0,1,.07-.07H9a.07.07,0,0,1,.07.07Z"/><path class="cls-6" d="M9.13,17.12s0,0-.07,0H8.61s-.07,0-.07,0a.07.07,0,0,1,.07-.07h.46a.07.07,0,0,1,.07.07Z"/><path class="cls-6" d="M9.15,18.32s0,0-.07,0H8.59s-.07,0-.07,0a.07.07,0,0,1,.07-.07h.49a.07.07,0,0,1,.07.07Z"/><path class="cls-6" d="M9.17,19.52s0,0-.07,0H8.58s-.07,0-.07,0a.07.07,0,0,1,.07-.07H9.1a.07.07,0,0,1,.07.07Z"/><path class="cls-6" d="M9.18,20.72s0,0-.07,0H8.56s-.07,0-.07,0a.07.07,0,0,1,.07-.07h.55a.07.07,0,0,1,.07.07Z"/><path class="cls-6" d="M9.1,14.71s0,0-.07,0h-.4s-.07,0-.07,0a.07.07,0,0,1,.07-.07H9a.07.07,0,0,1,.07.07Z"/><path class="cls-6" d="M9,10.67s0,0-.07,0H8.7s-.07,0-.07,0a.07.07,0,0,1,.07-.07H9a.07.07,0,0,1,.07.07Z"/><path class="cls-6" d="M9,9.87s0,0-.07,0H8.72s-.07,0-.07,0a.07.07,0,0,1,.07-.07H9A.07.07,0,0,1,9,9.87Z"/><path class="cls-6" d="M9,8.78s0,0-.07,0H8.73s-.07,0-.07,0a.07.07,0,0,1,.07-.07h.21A.07.07,0,0,1,9,8.78Z"/><path class="cls-6" d="M4.53,8.54s.08-.18.68-.24h.16A2.92,2.92,0,0,1,6,8.21a3.07,3.07,0,0,0-1,.06,2.67,2.67,0,0,1,1-.2A2.92,2.92,0,0,0,5,8.16,6.46,6.46,0,0,1,7.53,7.9,12.56,12.56,0,0,0,5.18,8l0,0c-.61.22-.6.53-.6.53Z"/><path class="cls-6" d="M10.15,12.89,16,8.49a0,0,0,0,1,.06,0s0,0,0,0L10.21,13l-.06-.07Z"/><polygon class="cls-6" points="10.51 12.98 11.4 12.27 11.37 12.36 10.57 13.01 10.51 12.98 10.51 12.98"/><path class="cls-6" d="M10.19,13.32A9.57,9.57,0,0,0,10,15.19l0,.1h0v-.15a9.07,9.07,0,0,1,.19-1.94l.15-.12-.09,0-.18.25Z"/><path class="cls-6" d="M13.63,10.47a8.71,8.71,0,0,0-.48,4.18,11,11,0,0,0,1.4,4.7,10.71,10.71,0,0,1-1.31-4.69,8.68,8.68,0,0,1,.55-4.18l.88-.68.12-.28-1.16.93Z"/><path class="cls-6" d="M12.53,11.36a8.55,8.55,0,0,0-.41,3.7,10.14,10.14,0,0,0,1,4.2,10.09,10.09,0,0,1-.94-4.2,8.51,8.51,0,0,1,.47-3.7l.87-.66.09-.23-1.1.88Z"/><path class="cls-6" d="M11.4,12.27a8.42,8.42,0,0,0-.31,3.22,12.07,12.07,0,0,0,.66,3.86,12.28,12.28,0,0,1-.59-3.88,8.41,8.41,0,0,1,.36-3.21l.95-.77,0-.11-1.11.89Z"/><path class="cls-6" d="M10.12,15.42c0,.14,0,.29,0,.45a25.7,25.7,0,0,0,.3,3.94,25.22,25.22,0,0,1-.37-3.9c0-.18,0-.35,0-.51l.07,0Z"/><path class="cls-6" d="M13.71,10.41a12.46,12.46,0,0,0-.36,3.72,12.15,12.15,0,0,1,.51-3.65l0-.13-.16.06Z"/><path class="cls-6" d="M13.9,10.25A12,12,0,0,0,13.54,13a11.63,11.63,0,0,1,.51-2.7"/><path class="cls-6" d="M14.08,10.08a11.64,11.64,0,0,0-.33,2.14,11.11,11.11,0,0,1,.48-2.07"/><path class="cls-6" d="M14.27,9.92a11.59,11.59,0,0,0-.3,1.81A10.63,10.63,0,0,1,14.42,10"/><path class="cls-6" d="M14.46,9.75a10.76,10.76,0,0,0-.29,1.63,6.14,6.14,0,0,1,.48-1.5l0-.13"/><path class="cls-6" d="M12.63,11.29a11.21,11.21,0,0,0-.34,3.47,11,11,0,0,1,.48-3.41l0-.12-.16.05Z"/><path class="cls-6" d="M12.81,11.13a10.94,10.94,0,0,0-.34,2.58A10.55,10.55,0,0,1,13,11.2l0-.08"/><path class="cls-6" d="M13,11a10.52,10.52,0,0,0-.31,2A9.9,9.9,0,0,1,13.13,11l0-.08"/><path class="cls-6" d="M13.17,10.83a10.06,10.06,0,0,0-.29,1.68,9.53,9.53,0,0,1,.43-1.62"/><path class="cls-6" d="M13.35,10.68a9.84,9.84,0,0,0-.27,1.52,6.65,6.65,0,0,1,.44-1.41l.07-.11"/><path class="cls-6" d="M11.52,12.17a9.51,9.51,0,0,0-.22,3.26,9.28,9.28,0,0,1,.37-3.2v-.12l-.16.06Z"/><path class="cls-6" d="M11.7,12a9.16,9.16,0,0,0-.26,2.43,8.89,8.89,0,0,1,.41-2.37l0-.14"/><path class="cls-6" d="M11.88,11.88a9,9,0,0,0-.25,1.88,8.41,8.41,0,0,1,.4-1.82l0-.14"/><path class="cls-6" d="M12.06,11.73a8.49,8.49,0,0,0-.23,1.59,8.18,8.18,0,0,1,.38-1.53l0-.15"/><path class="cls-6" d="M12.24,11.58A8.26,8.26,0,0,0,12,13a5.73,5.73,0,0,1,.4-1.33l.11-.28"/><path class="cls-6" d="M10.26,15.34a10.42,10.42,0,0,1,.23-2.13s0-.07,0-.1l-.09,0s-.08.11-.12.13a10.33,10.33,0,0,0-.09,2.12l.05,0Z"/><path class="cls-6" d="M10.21,15.45c0,.23,0,.45.07.67,0-.22,0-.44,0-.67Z"/><path class="cls-6" d="M10.5,13.1a12.12,12.12,0,0,0-.12,2.13,12.81,12.81,0,0,1,.29-2.08"/><path class="cls-6" d="M10.53,13l.16,0a.06.06,0,0,1,0,.06.06.06,0,0,1-.05,0q-.09.67-.12,1.32a14.65,14.65,0,0,1,.35-1.6l.06-.19"/><path class="cls-6" d="M10.92,12.7c-.07.46-.12.91-.16,1.36.1-.46.22-.91.35-1.36,0,0,0-.14,0-.19"/><path class="cls-6" d="M11.14,12.54c-.07.41-.13.82-.17,1.23a9.6,9.6,0,0,1,.34-1.21c0-.09.1-.17.13-.26"/><path class="cls-6" d="M10,13.7c0,.42,0,.74,0,1.15a9.8,9.8,0,0,1,.21-1.24c0-.09.09-.28.11-.38"/><path class="cls-6" d="M9.11,15.89a.82.82,0,0,0,.18-.64.9.9,0,0,1-.25.6"/><path class="cls-6" d="M9.16,15A.84.84,0,0,0,9,14.78a.76.76,0,0,1,.11.26Z"/><path class="cls-6" d="M9,15.85a.91.91,0,0,0,.13-.53,1.22,1.22,0,0,0,0-.16h0a1.38,1.38,0,0,1,0,.25,1.12,1.12,0,0,1-.07.4l-.1,0Z"/><path class="cls-6" d="M9.13,17.09a.82.82,0,0,0,.18-.64.91.91,0,0,1-.25.6"/><path class="cls-6" d="M9.17,17a1.18,1.18,0,0,0,.07-.41A1,1,0,0,0,9,16a.83.83,0,0,1,.15.53.9.9,0,0,1-.13.53"/><path class="cls-6" d="M9.15,18.29a.82.82,0,0,0,.18-.64.9.9,0,0,1-.25.6"/><path class="cls-6" d="M9.18,18.22a1.11,1.11,0,0,0,.07-.41,1,1,0,0,0-.19-.62.83.83,0,0,1,.15.53.89.89,0,0,1-.14.53"/><path class="cls-6" d="M9.16,19.49a.82.82,0,0,0,.18-.64.89.89,0,0,1-.25.6"/><path class="cls-6" d="M9.2,19.42a1.1,1.1,0,0,0,.07-.4,1,1,0,0,0-.19-.62.82.82,0,0,1,.15.53.88.88,0,0,1-.14.53"/><path class="cls-6" d="M9.18,20.69A.82.82,0,0,0,9.36,20a.9.9,0,0,1-.25.6"/><path class="cls-6" d="M9.22,20.62a1.18,1.18,0,0,0,.07-.41,1,1,0,0,0-.19-.62.82.82,0,0,1,.15.53.9.9,0,0,1-.13.53"/><path class="cls-6" d="M14.17,20.26h-.06l-2.94.29s-.06,0-.06,0a.05.05,0,0,1,.06-.06l2.94-.3a.06.06,0,0,1,.06,0Z"/><path class="cls-6" d="M15.19,20.3a.87.87,0,0,0,.39-.56,4,4,0,0,0,2.16-1.59h0a3.63,3.63,0,0,1-2.1,1.68.78.78,0,0,1-.25.41l-.2.05Z"/><path class="cls-6" d="M4.47,20.53l.92.16h.08l-.06-.06,0,0-.92-.16v.08Z"/><path class="cls-6" d="M6.32,20.74l.84.09v.08l-.7-.08-.13-.09Z"/><polygon class="cls-6" points="7.15 20.91 7.28 20.82 7.29 20.92 7.15 20.91 7.15 20.91"/><path class="cls-6" d="M12,22.6l-1.44-1.33a.22.22,0,0,0-.12,0,.21.21,0,0,0-.22.21.21.21,0,0,0,0,.1v0a.22.22,0,0,1,.22-.21.2.2,0,0,1,.12,0L12,22.6Z"/><path class="cls-6" d="M4.74,21.72a2.62,2.62,0,0,1-.17-1.22l-.09,0a2.72,2.72,0,0,0,.27,1.27"/><path class="cls-6" d="M9.63,21.12c-.77,0-1.54,0-2.24-.1v0c.7,0,1.46.07,2.24.06"/><path class="cls-6" d="M5.78,20.86c-.79-.1-1.31-.19-1.31-.19v.08s.49.08,1.25.16l0-.05Z"/><path class="cls-6" d="M6.07,20.95h.11l-.07,0,0,0Z"/><path class="cls-6" d="M6.61,21l.67.06v0l-.6,0L6.61,21Z"/><path class="cls-6" d="M6.49,21.2l-.61-.08,0,0,.63.05"/><path class="cls-6" d="M5.6,21.09c-.74-.1-1.11-.17-1.11-.17l0,.08s.4.06,1.07.13l0,0Z"/><path class="cls-6" d="M5.61,21.37c-.58,0-1-.11-1-.11v0l1,.16"/><polygon class="cls-6" points="5.42 20.22 4.62 19.77 4.57 19.8 4.59 19.82 5.38 20.27 5.42 20.22 5.42 20.22"/><path class="cls-6" d="M5.7,20.38l-.18-.1,0,.05.16.09,0,0,0,0Z"/><path class="cls-6" d="M4.42,19.72h0L1.84,18.23s-.05,0-.06,0,0-.06.08,0l2.57,1.45v.06Z"/><path class="cls-6" d="M4.47,19.55s0-.08.09-.05l.21.13h0a0,0,0,0,0,0-.07l-.22-.13c-.05,0-.08,0-.09.05l-.06.44h0l.07-.38Z"/><path class="cls-6" d="M5.37,20.46a.32.32,0,0,1,.64,0v0a.33.33,0,0,0-.67,0,.33.33,0,0,0,.15.28.32.32,0,0,1-.12-.24Z"/><polygon class="cls-6" points="6.59 21.68 6.15 21.86 6.15 21.86 6.57 21.76 6.59 21.68 6.59 21.68"/><polygon class="cls-6" points="7.18 20.45 7.16 20.89 7.16 20.9 7.23 20.58 7.53 20.78 7.53 20.78 7.18 20.45 7.18 20.45"/><path class="cls-6" d="M6,20.54l-.19-.14a.14.14,0,0,0-.2,0,.14.14,0,0,0,0,.11.14.14,0,0,1,0-.06.13.13,0,0,1,.19,0l.17.12,0,0Z"/><path class="cls-6" d="M6.24,20.76h0l.5.37c.37.27.46.2.51,0a.59.59,0,0,0,0-.19.54.54,0,0,1,0,.14c-.05.19-.13.25-.5,0l-.5-.37,0,.05Z"/><path class="cls-6" d="M6.81,21.73a.86.86,0,0,1-.28.12v0a.81.81,0,0,0,.3-.12c.08-.05.13-.12.11-.19s-.06.11-.12.15Z"/><polygon class="cls-6" points="5.61 21.08 5.5 21.22 5.53 21.24 5.64 21.11 5.61 21.08 5.61 21.08"/><polygon class="cls-6" points="6.21 20.29 5.67 21 5.7 21.02 6.24 20.32 6.21 20.29 6.21 20.29"/><polygon class="cls-6" points="6.27 20.21 6.38 20.07 6.41 20.1 6.3 20.23 6.27 20.21 6.27 20.21"/><path class="cls-6" d="M6,20.75a.06.06,0,0,1,.11,0h0a.07.07,0,1,0-.13,0,.07.07,0,0,0,0,.05.05.05,0,0,1,0,0Z"/><path class="cls-6" d="M17.38,19.49c-2.46,1.23-6.13,1.7-10,1.37v.08c4.12.33,7.76-.24,10-1.38l0-.06Z"/><path class="cls-6" d="M6.61,21l.67.06V21L6.61,21V21Z"/><path class="cls-6" d="M4.47,20.73l1.3.19v-.05l-1.3-.19v.05Z"/><path class="cls-6" d="M7.37,21.33c.95.08,1.9.11,2.81.09v-.06c-.91,0-1.86,0-2.81-.09v.05Z"/><path class="cls-6" d="M5.85,21.17l.75.09-.07-.06-.64-.08,0,.05Z"/><path class="cls-6" d="M4.49,21l1.11.17v-.05L4.5,20.91V21Z"/><path class="cls-6" d="M7.36,21.61c1,.08,2,.11,2.94.1l0-.06c-1,0-1.94,0-2.92-.09v.06Z"/><path class="cls-6" d="M4.55,21.26c.79.13,1.6.24,2.37.31v-.05c-.77-.07-1.56-.18-2.35-.31v.06Z"/><path class="cls-6" d="M6.79,21.89a33.66,33.66,0,0,0,3.74.15l0-.06a31.36,31.36,0,0,1-3.63-.14l-.08,0Z"/><path class="cls-6" d="M4.69,21.61c.53.09,1,.16,1.56.22,0,0,0,0,.07,0v0c-.55-.06-1.11-.14-1.66-.23v.05Z"/><path class="cls-6" d="M8.59,22.82s0,0,.07,0q1.19.07,2.43,0l0-.06c-.86,0-1.68,0-2.51,0l0,0Z"/><path class="cls-6" d="M5.41,22.4l.1.07.56.09s0,0,.07,0l0,0-.76-.12Z"/><path class="cls-6" d="M10.76,22.38A29.45,29.45,0,0,1,5,22L5,22a29.86,29.86,0,0,0,5.75.4l0-.06Z"/><path class="cls-6" d="M15.19,22.5l-1,.12.08,0,.87-.1.08-.07Z"/><path class="cls-6" d="M16.13,21.41a36.58,36.58,0,0,1-4.85.55l0,.06a36.45,36.45,0,0,0,4.76-.54l0-.06Z"/><path class="cls-6" d="M11,21.69A32.66,32.66,0,0,0,16.35,21l0-.06a32.74,32.74,0,0,1-5.45.69l0,.06Z"/><path class="cls-6" d="M17.23,19.88A20.16,20.16,0,0,1,12.66,21,27,27,0,0,1,7.4,21v.05A26.91,26.91,0,0,0,12.66,21a20.23,20.23,0,0,0,4.54-1.06l0-.07Z"/><path class="cls-6" d="M17,20.36a29.32,29.32,0,0,1-6.42,1v.06a29.63,29.63,0,0,0,6.39-1l0-.06Z"/><path class="cls-6" d="M15.76,21.92c-1.69.23-2.91.35-4.08.42l0,.05c1.15-.07,2.32-.19,4-.41l.05-.06Z"/><polygon class="cls-7" points="9.03 17.05 9.01 15.99 8.93 15.99 8.93 17.05 9.03 17.05 9.03 17.05"/><polygon class="cls-7" points="8.99 14.78 9 14.99 8.92 14.97 8.92 14.78 8.99 14.78 8.99 14.78"/><polygon class="cls-7" points="8.96 20.94 8.96 20.79 9.08 20.79 9.08 20.95 8.96 20.94 8.96 20.94"/><polygon class="cls-7" points="9.06 19.59 9.07 20.65 8.96 20.65 8.95 19.59 9.06 19.59 9.06 19.59"/><polygon class="cls-7" points="9.04 18.39 9.06 19.45 8.95 19.45 8.94 18.39 9.04 18.39 9.04 18.39"/><polygon class="cls-7" points="9.03 17.19 9.04 18.25 8.94 18.25 8.93 17.19 9.03 17.19 9.03 17.19"/><polygon class="cls-7" points="9 15.11 9.01 15.86 8.93 15.86 8.92 15.09 9 15.11 9 15.11"/><polygon class="cls-7" points="8.99 14.63 8.99 14.64 8.92 14.64 8.92 14.59 8.99 14.63 8.99 14.63"/><polygon class="cls-7" points="8.94 10.74 8.96 12.56 8.9 12.54 8.89 10.74 8.94 10.74 8.94 10.74"/><polygon class="cls-7" points="8.93 9.94 8.93 10.6 8.89 10.6 8.88 9.94 8.93 9.94 8.93 9.94"/><polygon class="cls-7" points="8.91 8.85 8.92 9.8 8.88 9.8 8.88 8.85 8.91 8.85 8.91 8.85"/><path class="cls-7" d="M8.84,7.52s0,0,0,.05V8.71h0l0-1.14a.05.05,0,0,0-.05-.05Z"/><path class="cls-7" d="M7.5,14.14A2,2,0,0,1,8,12.47,1.88,1.88,0,0,0,7.39,14s-.49.05-.6.33a.53.53,0,0,1,.36-.21,1.11,1.11,0,0,1,.35,0Z"/><path class="cls-7" d="M8.3,14.32a2,2,0,0,1,.46-1.63,1.8,1.8,0,0,0-.57,1.5,1.77,1.77,0,0,0-.67-.05,2.2,2.2,0,0,1,.39.06,2.92,2.92,0,0,1,.4.12Z"/><path class="cls-7" d="M9.1,14.68a2,2,0,0,1,.46-1.77A1.89,1.89,0,0,0,9,14.52a1.93,1.93,0,0,0-.67-.2,3.34,3.34,0,0,1,.39.16l.4.19Z"/><path class="cls-7" d="M10.08,15.29a2,2,0,0,1,.25-2.18A1.88,1.88,0,0,0,9.86,15a3.55,3.55,0,0,0-.74-.31l.51.29c.24.15.45.3.45.3Z"/><path class="cls-7" d="M8.55,15.93s0,0,.07,0H9s.07,0,.07,0A.07.07,0,0,1,9,16H8.62a.07.07,0,0,1-.07-.07Z"/><path class="cls-7" d="M8.57,14.71s0,0,.07,0H9s.07,0,.07,0a.07.07,0,0,1-.07.07h-.4a.07.07,0,0,1-.07-.07Z"/><path class="cls-7" d="M8.63,10.67s0,0,.07,0H9s.07,0,.07,0a.07.07,0,0,1-.07.07H8.7a.07.07,0,0,1-.07-.07Z"/><path class="cls-7" d="M8.65,9.87s0,0,.07,0H9s.07,0,.07,0A.07.07,0,0,1,9,9.94H8.72a.07.07,0,0,1-.07-.07Z"/><path class="cls-7" d="M8.66,8.78s0,0,.07,0h.21s.07,0,.07,0a.07.07,0,0,1-.07.07H8.73a.07.07,0,0,1-.07-.07Z"/><path class="cls-7" d="M8.54,17.12s0,0,.07,0h.46s.07,0,.07,0a.07.07,0,0,1-.07.07H8.61a.07.07,0,0,1-.07-.07Z"/><path class="cls-7" d="M8.52,18.32s0,0,.07,0h.49s.07,0,.07,0a.07.07,0,0,1-.07.07H8.59a.07.07,0,0,1-.07-.07Z"/><path class="cls-7" d="M8.51,19.52s0,0,.07,0H9.1s.07,0,.07,0a.07.07,0,0,1-.07.07H8.58a.07.07,0,0,1-.07-.07Z"/><path class="cls-7" d="M8.49,20.72s0,0,.07,0h.55s.07,0,.07,0a.07.07,0,0,1-.07.07H8.56a.07.07,0,0,1-.07-.07Z"/><path class="cls-7" d="M8.77,8.27a.22.22,0,0,1-.1-.19.21.21,0,0,1,.11-.18H7.28L8.41,8,7.28,8l1.13.06L7,8.15l1.36.06-2.88.06H8.77Z"/><path class="cls-7" d="M10.5,13,16,8.56a0,0,0,0,0,0-.06s0,0,0,0L10.4,13l.1,0Z"/><path class="cls-7" d="M9.1,16a.92.92,0,0,1,.17.64A1,1,0,0,0,9,16"/><path class="cls-7" d="M9.16,15.94a.88.88,0,0,0,.17-.46.85.85,0,0,1-.1.49.81.81,0,0,1,0,.26.78.78,0,0,0-.11-.28Z"/><path class="cls-7" d="M9.26,15.18a.68.68,0,0,1,0,.2.86.86,0,0,0,0-.21Z"/><path class="cls-7" d="M9.09,14.74a.93.93,0,0,1,.15.32h0A.86.86,0,0,0,9,14.78l.05,0Z"/><path class="cls-7" d="M9.16,14.72h0a.77.77,0,0,1,.11.28.87.87,0,0,0,0-.26l-.06,0Z"/><path class="cls-7" d="M9.12,17.15a.94.94,0,0,1,.17.64,1,1,0,0,0-.22-.6"/><path class="cls-7" d="M9.18,17.14a.87.87,0,0,0,.17-.46.85.85,0,0,1-.1.48.86.86,0,0,1,0,.26.83.83,0,0,0-.11-.28Z"/><path class="cls-7" d="M9.14,18.35A1,1,0,0,1,9.3,19a.94.94,0,0,0-.22-.6"/><path class="cls-7" d="M9.2,18.34a.88.88,0,0,0,.17-.46.86.86,0,0,1-.1.49.85.85,0,0,1,0,.26.81.81,0,0,0-.11-.28Z"/><path class="cls-7" d="M9.15,19.55a.92.92,0,0,1,.17.64,1,1,0,0,0-.22-.6"/><path class="cls-7" d="M9.21,19.54a.89.89,0,0,0,.17-.46.85.85,0,0,1-.1.49.84.84,0,0,1,0,.26.76.76,0,0,0-.11-.28Z"/><path class="cls-7" d="M7.4,14.1a1.56,1.56,0,0,1,0-.87,1.54,1.54,0,0,0-.15.87"/><path class="cls-7" d="M7.28,14.07a1.18,1.18,0,0,1,0-.47.94.94,0,0,0,0,.49"/><path class="cls-7" d="M7.21,14.1a.6.6,0,0,1-.07-.23.61.61,0,0,0,0,.26"/><path class="cls-7" d="M8.19,14.21a1.57,1.57,0,0,1,0-.87,1.54,1.54,0,0,0-.16.87"/><path class="cls-7" d="M8,14.18a.94.94,0,0,1,0-.49,1.2,1.2,0,0,0,0,.47l0,0"/><path class="cls-7" d="M8,14.17a.59.59,0,0,1-.07-.23.61.61,0,0,0,0,.26"/><path class="cls-7" d="M9,14.53a1.55,1.55,0,0,1,0-.87,1.53,1.53,0,0,0-.12.88"/><path class="cls-7" d="M8.8,14.49a.94.94,0,0,1,0-.5,1.18,1.18,0,0,0,.05.47l0,0"/><path class="cls-7" d="M8.81,14.44a.57.57,0,0,1-.08-.23.6.6,0,0,0,0,.26"/><path class="cls-7" d="M9.87,15a2.07,2.07,0,0,1-.08-1.16A2,2,0,0,0,9.72,15"/><path class="cls-7" d="M9.6,14.93a1.14,1.14,0,0,1,0-.66,1.42,1.42,0,0,0,.11.62l0,.06"/><path class="cls-7" d="M9.47,14.9a.63.63,0,0,1,0-.33.65.65,0,0,0,.11.29l0,0"/><path class="cls-7" d="M14.8,9.54a8.62,8.62,0,0,0-.67,4.77,12.11,12.11,0,0,0,1.5,5.06,11.18,11.18,0,0,0-3.75-.13A4.77,4.77,0,0,0,9.18,20.7a5,5,0,0,1,2.69-1.37,11.48,11.48,0,0,1,4.1.29,12.51,12.51,0,0,1-1.79-5.39,8.57,8.57,0,0,1,.61-4.69Z"/><path class="cls-7" d="M14.29,19.26a11.49,11.49,0,0,1-1.23-4.58,8.73,8.73,0,0,1,.57-4.2,8.65,8.65,0,0,0-.47,4.17,11,11,0,0,0,1.4,4.7"/><path class="cls-7" d="M12.94,19.2a10.5,10.5,0,0,1-.9-4.12,8.52,8.52,0,0,1,.48-3.7,8.52,8.52,0,0,0-.4,3.69,10.14,10.14,0,0,0,1,4.2"/><path class="cls-7" d="M11.62,19.35a12.07,12.07,0,0,1-.6-3.87,8.18,8.18,0,0,1,.37-3.21,8.44,8.44,0,0,0-.3,3.21,12.07,12.07,0,0,0,.66,3.86"/><path class="cls-7" d="M10,15.4c0,.16,0,.33,0,.51a25.28,25.28,0,0,0,.37,3.9l-.14,0a25.69,25.69,0,0,1-.3-3.94c0-.18,0-.35,0-.51l.07,0Z"/><path class="cls-7" d="M10,15.19a9.68,9.68,0,0,1,.1-1.69A9.69,9.69,0,0,0,10,15l.06.17Z"/><polygon class="cls-7" points="9.98 15.27 9.98 15.22 10.08 15.29 9.98 15.27 9.98 15.27"/><path class="cls-7" d="M15.42,19.48a8.49,8.49,0,0,1-1-2.68,7.93,7.93,0,0,0,1.14,2.5l.14.14"/><path class="cls-7" d="M15.19,19.38a4.09,4.09,0,0,1-.58-1.44,4.56,4.56,0,0,0,.66,1.27l.1.1"/><path class="cls-7" d="M15,19.43a2.33,2.33,0,0,1-.28-.71,1.78,1.78,0,0,0,.39.54h.06"/><path class="cls-7" d="M14.06,19.28A6.41,6.41,0,0,1,13.31,17a6.15,6.15,0,0,0,.9,2.1l.11.12"/><path class="cls-7" d="M13.85,19.18A3.45,3.45,0,0,1,13.37,18,4,4,0,0,0,13.92,19l.08.09.09.1"/><path class="cls-7" d="M13.69,19.24a2,2,0,0,1-.23-.6,1.71,1.71,0,0,0,.34.46h.05l.11.08"/><path class="cls-7" d="M12.74,19.23a5,5,0,0,1-.53-1.63,4.52,4.52,0,0,0,.7,1.53l.09.09"/><path class="cls-7" d="M12.55,19.16a2.41,2.41,0,0,1-.34-.92,2.69,2.69,0,0,0,.43.81l.07.06.07.08"/><path class="cls-7" d="M12.4,19.21a1.49,1.49,0,0,1-.17-.46,1.18,1.18,0,0,0,.29.35h0l.09.06"/><path class="cls-7" d="M11.45,19.34A5.48,5.48,0,0,1,11.14,18a4.35,4.35,0,0,0,.46,1.28l.06.07"/><path class="cls-7" d="M11.32,19.34a2.41,2.41,0,0,1-.21-.77,2.51,2.51,0,0,0,.29.68l0,.05,0,.06"/><path class="cls-7" d="M11.19,19.41A1.15,1.15,0,0,1,11.1,19a.92.92,0,0,0,.2.29h0l.07,0"/><path class="cls-7" d="M10.17,19.88A9.28,9.28,0,0,1,10,18.7a5.73,5.73,0,0,0,.29,1.07l0,.06"/><path class="cls-7" d="M10.09,19.93a2.91,2.91,0,0,1-.11-.72,2.6,2.6,0,0,0,.17.6l0,0,0,.05"/><path class="cls-7" d="M10,20a2,2,0,0,1-.05-.41,1,1,0,0,0,.14.27h0l0,0"/><polygon class="cls-7" points="14.11 20.3 11.16 20.61 11.16 20.67 13.98 20.38 13.98 20.58 14.11 20.55 14.11 20.3 14.11 20.3"/><path class="cls-7" d="M15.5,20.21A5.36,5.36,0,0,0,18,18.15l-.13.32a4.84,4.84,0,0,1-2.39,1.74"/><polygon class="cls-7" points="17.01 20.81 17.89 18.47 17.74 18.67 16.93 20.83 17.01 20.81 17.01 20.81"/><path class="cls-7" d="M15.62,20.18a9.2,9.2,0,0,0,2-.91l-.05.13a11.37,11.37,0,0,1-1.92.77"/><path class="cls-7" d="M9.7,21.12a21.15,21.15,0,0,0,7.72-1.43l0,.14A21.66,21.66,0,0,1,9.7,21.12"/><path class="cls-7" d="M10.62,21.35a29.47,29.47,0,0,0,6.59-1.17l0,.15a29.37,29.37,0,0,1-6.57,1"/><path class="cls-7" d="M10.93,21.63a32.07,32.07,0,0,0,6.11-1l0,.15a33.66,33.66,0,0,1-6.08.83"/><path class="cls-7" d="M16.2,23.16l.35-.74c-.34-.21,0-.82.35-1.59l-.36.08,0,.09.29-.06c-.39.77-.7,1.38-.36,1.59l-.3.63Z"/><path class="cls-7" d="M14.93,23l.18.07a6.39,6.39,0,0,0,1.44-2.12l-.12,0a4.7,4.7,0,0,1-1.69,2l.18.08Z"/><polyline class="cls-7" points="10.2 21.52 11.19 22.93 11.14 22.95 10.2 21.52"/><polyline class="cls-7" points="11.18 22.93 10.66 22.04 11.35 22.87"/><polyline class="cls-7" points="11.33 22.87 10.92 22.17 11.48 22.8"/><polyline class="cls-7" points="11.47 22.81 11.21 22.38 11.59 22.75"/><polyline class="cls-7" points="11.59 22.75 11.45 22.52 11.67 22.71"/><path class="cls-7" d="M5.36,20.53,1.79,18.28a.05.05,0,0,1,0-.07s0,0,0,.06l2.61,1.59v.07l.05,0,.89.54a.42.42,0,0,0,0,.11Z"/><path class="cls-7" d="M5.7,20.65l-.23-.14a.2.2,0,0,0,.09.11.21.21,0,0,0,.14,0Z"/><path class="cls-7" d="M6,20.51a.3.3,0,0,0,0-.07.33.33,0,0,0-.12-.26.32.32,0,0,1,.1.23.43.43,0,0,1,0,.08l0,0Z"/><path class="cls-7" d="M5.84,20.72a.33.33,0,0,1-.5-.26.32.32,0,0,0,.32.27.34.34,0,0,0,.14,0l0,0Z"/><path class="cls-7" d="M6.55,21.93A3,3,0,0,0,7,21.71c.23-.13.33-.11.33-.11l0,.06s-.1-.06-.35.07a2.52,2.52,0,0,1-.5.2"/><polygon class="cls-7" points="6.15 21.86 6.58 22.01 6.6 22.09 6.15 21.86 6.15 21.86"/><polygon class="cls-7" points="7.15 20.9 7.28 20.75 7.29 20.8 7.15 20.9 7.15 20.9"/><polygon class="cls-7" points="7.37 20.78 7.37 20.73 7.54 20.77 7.37 20.78 7.37 20.78"/><path class="cls-7" d="M6.16,20.86l.5.35c.28.19.29.33.26.4s-.06-.18-.3-.35l-.52-.35"/><path class="cls-7" d="M5.91,20.68l-.13-.09c-.06,0-.11-.09-.07-.14s-.07.13,0,.2l.13.09"/><polygon class="cls-7" points="5.78 21.22 5.64 21.11 5.7 21.02 5.86 21.15 5.78 21.22 5.78 21.22"/><polygon class="cls-7" points="6.39 20.44 6.24 20.32 6.3 20.23 6.44 20.34 6.39 20.44 6.39 20.44"/><polygon class="cls-7" points="5.65 21.33 6.16 20.79 6.51 20.18 6.21 20.82 5.65 21.33 5.65 21.33"/><path class="cls-7" d="M4.68,21.6a3,3,0,0,0,1.08,1.08l-.22.1a3.15,3.15,0,0,1-.86-1.18"/><path class="cls-7" d="M5.46,22.82l.08,0a3.12,3.12,0,0,1-.93-1.37,3.29,3.29,0,0,0,.85,1.41Z"/><path class="cls-7" d="M5.39,22.85l.09,0a3,3,0,0,1-1-1.43,3.13,3.13,0,0,0,.92,1.47Z"/><path class="cls-7" d="M5.34,22.88l.09,0A3.21,3.21,0,0,1,4.32,21.4a3.33,3.33,0,0,0,1,1.48Z"/><path class="cls-7" d="M11.23,21.91h0a33.67,33.67,0,0,0,5.06-.68v.14a37.75,37.75,0,0,1-5.05.59l0,0Z"/><path class="cls-7" d="M6.43,21.75h-.1c-.54-.06-1.12-.14-1.68-.23l0,0c.56.09,1.12.17,1.66.23l.1,0Z"/><path class="cls-7" d="M7,21.8a30.79,30.79,0,0,0,3.52.13l0,0h0a31.59,31.59,0,0,1-3.61-.14l.09,0Z"/><path class="cls-7" d="M6.73,21.78l-.16,0,0,.07a.63.63,0,0,0,.17,0Z"/><path class="cls-7" d="M10.76,22.38A29.53,29.53,0,0,1,4.86,22l-.06-.11a29.24,29.24,0,0,0,5.92.48l0,.06Z"/><path class="cls-7" d="M11.62,22.28h.06a29,29,0,0,0,4.44-.61l-.09.22c-1.58.21-3,.38-4.36.46l-.06-.06Z"/><path class="cls-7" d="M8.28,22.66c.64.05,1.34.09,2.06.09H11l.06.1h-.71c-.63,0-1.24,0-1.81-.06l-.25-.12Z"/><path class="cls-7" d="M6.45,22.45C5.58,22.32,5,22.2,5,22.2l.1.15s.39.08,1,.17l.28-.08Z"/><path class="cls-7" d="M14.16,22.62c.89-.09,1.48-.18,1.48-.18l.12-.23s-.8.15-1.93.29l.33.12Z"/><path class="cls-7" d="M15.37,22.69l-.82.1a4.59,4.59,0,0,0,.52.22l.3-.32Z"/><path class="cls-7" d="M9.17,23l.83,0h.86a2.64,2.64,0,0,1-.82.11A2.7,2.7,0,0,1,9.17,23Z"/><path class="cls-7" d="M5.36,22.55l.48.09-.25.11-.23-.21Z"/><path class="cls-7" d="M16.5,21a6.28,6.28,0,0,1-1.23,2.05l-.16,0a6.36,6.36,0,0,0,1.39-2"/><path class="cls-7" d="M16.4,21.52a5.47,5.47,0,0,1-1,1.59l-.17,0a6,6,0,0,0,1.13-1.56Z"/><path class="cls-7" d="M16.14,22.23a3.36,3.36,0,0,1-.54.92l-.18,0a3.86,3.86,0,0,0,.72-.88Z"/><path class="cls-7" d="M16.08,22.54a3,3,0,0,1-.33.62l-.16,0a3,3,0,0,0,.49-.6Z"/><polygon class="cls-1" points="19.45 0.07 19.45 0.41 18.93 0.41 18.93 0.07 18.39 0.07 18.39 0.41 17.86 0.41 17.86 0.07 17.33 0.07 17.33 0.74 17.66 0.74 17.66 1.4 17 1.4 17 2.06 16 2.06 16 1.4 15.34 1.4 15.34 0.74 15.67 0.74 15.67 0.07 15.14 0.07 15.14 0.41 14.61 0.41 14.61 0.07 14.08 0.07 14.08 0.41 13.55 0.41 13.55 0.07 13.02 0.07 13.02 0.74 13.35 0.74 13.35 1.4 12.69 1.4 12.69 2.06 11.69 2.06 11.69 1.4 11.03 1.4 11.03 0.74 11.36 0.74 11.36 0.07 10.82 0.07 10.82 0.41 10.3 0.41 10.3 0.07 9.76 0.07 9.76 0.41 9.24 0.41 9.24 0.07 8.7 0.07 8.7 0.74 9.03 0.74 9.03 1.4 8.37 1.4 8.37 2.06 7.37 2.06 7.37 1.4 6.71 1.4 6.71 0.74 7.04 0.74 7.04 0.07 6.51 0.07 6.51 0.41 5.98 0.41 5.98 0.07 5.45 0.07 5.45 0.41 4.92 0.41 4.92 0.07 4.39 0.07 4.39 0.74 4.72 0.74 4.72 1.4 4.06 1.4 4.06 2.06 3.06 2.06 3.06 1.4 2.4 1.4 2.4 0.74 2.73 0.74 2.73 0.07 2.19 0.07 2.19 0.41 1.67 0.41 1.67 0.07 1.13 0.07 1.13 0.41 0.61 0.41 0.61 0.07 0.07 0.07 0.07 0.74 0.4 0.74 0.4 2.73 1.4 4.47 1.4 6.46 1.07 6.46 1.07 7.13 18.99 7.13 18.99 6.46 18.66 6.46 18.66 4.47 19.65 2.73 19.65 0.74 19.99 0.74 19.99 0.07 19.45 0.07 19.45 0.07"/><polygon class="cls-8" points="6.71 2.73 5.27 2.73 6.43 2.84 5.32 2.95 6.34 3.06 5.36 3.17 6.24 3.28 5.41 3.39 6.15 3.5 5.45 3.61 6.03 3.72 5.47 3.83 5.97 3.94 5.54 4.04 5.87 4.14 5.58 4.24 5.72 4.47 6.71 2.73 6.71 2.73"/><polygon class="cls-8" points="11.03 2.73 9.6 2.73 10.75 2.84 9.64 2.95 10.66 3.06 9.69 3.17 10.57 3.28 9.73 3.39 10.47 3.5 9.77 3.61 10.35 3.72 9.79 3.83 10.29 3.94 9.86 4.04 10.19 4.14 9.9 4.24 10.04 4.47 11.03 2.73 11.03 2.73"/><polygon class="cls-8" points="15.34 2.73 13.91 2.73 15.06 2.84 13.95 2.95 14.97 3.06 14 3.17 14.88 3.28 14.04 3.39 14.79 3.5 14.09 3.61 14.66 3.72 14.1 3.83 14.6 3.94 14.17 4.04 14.51 4.14 14.22 4.24 14.35 4.47 15.34 2.73 15.34 2.73"/><polygon class="cls-8" points="19.66 2.73 18.22 2.73 19.37 2.84 18.26 2.95 19.28 3.06 18.31 3.17 19.19 3.28 18.35 3.39 19.1 3.5 18.4 3.61 18.98 3.72 18.41 3.83 18.91 3.94 18.49 4.04 18.82 4.14 18.53 4.24 18.66 4.47 19.66 2.73 19.66 2.73"/><polygon class="cls-8" points="19.66 0.74 18.26 0.73 19.5 0.84 18.26 0.95 19.5 1.07 18.26 1.18 19.5 1.29 18.26 1.4 19.42 1.5 19.41 1.51 19.4 1.52 18.26 1.62 19.32 1.72 19.32 1.73 19.32 1.75 18.26 1.84 19.32 1.94 19.32 1.95 19.32 1.97 18.26 2.06 19.32 2.16 19.32 2.17 19.32 2.19 18.26 2.28 19.32 2.38 19.32 2.4 19.32 2.41 18.26 2.5 19.32 2.6 19.32 2.62 19.32 2.63 18.26 2.73 19.66 2.73 19.66 0.74 19.66 0.74"/><polygon class="cls-8" points="17.66 1.4 19.66 1.4 19.66 1.29 17.66 1.29 17.66 1.4 17.66 1.4"/><polygon class="cls-8" points="13.35 1.4 15.34 1.4 15.34 1.29 13.35 1.29 13.35 1.4 13.35 1.4"/><polygon class="cls-8" points="9.03 1.4 11.03 1.4 11.03 1.29 9.03 1.29 9.03 1.4 9.03 1.4"/><polygon class="cls-8" points="17.33 0.74 19.99 0.74 19.99 0.63 17.33 0.63 17.33 0.74 17.33 0.74"/><polygon class="cls-8" points="19.67 0.07 19.67 0.73 19.99 0.73 19.99 0.07 19.67 0.07 19.67 0.07"/><polygon class="cls-8" points="17.66 0.07 17.66 0.42 17.87 0.42 17.87 0.07 17.66 0.07 17.66 0.07"/><polygon class="cls-8" points="6.71 0.74 5.32 0.73 6.55 0.84 5.32 0.95 6.55 1.07 5.32 1.18 6.55 1.29 5.32 1.4 5.6 1.42 5.76 1.4 5.91 1.45 6.55 1.51 6.02 1.56 6.05 1.63 6.06 1.69 6.55 1.73 6.06 1.77 6.06 1.84 6.06 1.91 6.55 1.95 6.06 2 6.06 2.06 6.06 2.13 6.55 2.17 6.06 2.22 6.06 2.28 6.06 2.35 6.55 2.4 6.06 2.44 6.06 2.51 6.06 2.57 6.55 2.62 6.06 2.66 6.06 2.73 6.71 2.73 6.71 0.74 6.71 0.74"/><polygon class="cls-8" points="4.72 1.4 6.71 1.4 6.71 1.29 4.72 1.29 4.72 1.4 4.72 1.4"/><polygon class="cls-8" points="4.38 0.74 7.04 0.74 7.04 0.63 4.38 0.63 4.38 0.74 4.38 0.74"/><polygon class="cls-8" points="6.72 0.07 6.72 0.73 7.04 0.73 7.04 0.07 6.72 0.07 6.72 0.07"/><polygon class="cls-8" points="4.71 0.07 4.71 0.42 4.92 0.42 4.92 0.07 4.71 0.07 4.71 0.07"/><polygon class="cls-8" points="6.04 2.06 7.38 2.06 7.38 1.95 6.04 1.95 6.04 2.06 6.04 2.06"/><polygon class="cls-8" points="4.06 2.06 5.38 2.06 5.38 1.95 4.06 1.95 4.06 2.06 4.06 2.06"/><polygon class="cls-8" points="0.74 2.73 5.38 2.73 5.38 2.62 0.74 2.62 0.74 2.73 0.74 2.73"/><polygon class="cls-8" points="2.06 3.31 5.05 3.31 4.99 3.2 2.13 3.2 2.06 3.31 2.06 3.31"/><polygon class="cls-8" points="1.74 3.89 5.38 3.89 5.32 3.78 1.8 3.78 1.74 3.89 1.74 3.89"/><polygon class="cls-8" points="6.38 3.31 9.37 3.31 9.3 3.2 6.44 3.2 6.38 3.31 6.38 3.31"/><polygon class="cls-8" points="9.63 3.78 6.11 3.78 6.05 3.89 9.7 3.89 9.63 3.78 9.63 3.78"/><polygon class="cls-8" points="10.69 3.31 13.69 3.31 13.62 3.2 10.76 3.2 10.69 3.31 10.69 3.31"/><polygon class="cls-8" points="13.95 3.78 10.43 3.78 10.37 3.89 14.02 3.89 13.95 3.78 13.95 3.78"/><polygon class="cls-8" points="15 3.31 18 3.31 17.93 3.2 15.07 3.2 15 3.31 15 3.31"/><polygon class="cls-8" points="18.26 3.78 14.74 3.78 14.68 3.89 18.33 3.89 18.26 3.78 18.26 3.78"/><polygon class="cls-8" points="1.4 4.47 18.66 4.47 18.59 4.36 1.47 4.36 1.4 4.47 1.4 4.47"/><path class="cls-8" d="M5.59,2.73V1.84a.33.33,0,0,1,.33-.33H6a.33.33,0,0,0-.25-.11.33.33,0,0,0-.33.33v1Z"/><polygon class="cls-8" points="11.03 0.74 9.63 0.73 10.87 0.84 9.63 0.95 10.87 1.07 9.63 1.18 10.87 1.29 9.63 1.4 9.92 1.42 10.08 1.4 10.22 1.45 10.87 1.51 10.33 1.56 10.36 1.63 10.38 1.69 10.87 1.73 10.38 1.77 10.38 1.84 10.38 1.91 10.87 1.95 10.38 2 10.38 2.06 10.38 2.13 10.87 2.17 10.38 2.22 10.38 2.28 10.38 2.35 10.87 2.4 10.38 2.44 10.38 2.51 10.38 2.57 10.87 2.62 10.38 2.66 10.38 2.73 11.03 2.73 11.03 0.74 11.03 0.74"/><polygon class="cls-8" points="8.7 0.74 11.36 0.74 11.36 0.63 8.7 0.63 8.7 0.74 8.7 0.74"/><polygon class="cls-8" points="11.04 0.07 11.04 0.73 11.36 0.73 11.36 0.07 11.04 0.07 11.04 0.07"/><polygon class="cls-8" points="9.03 0.07 9.03 0.42 9.24 0.42 9.24 0.07 9.03 0.07 9.03 0.07"/><polygon class="cls-8" points="10.37 2.06 11.68 2.06 11.68 1.95 10.37 1.95 10.37 2.06 10.37 2.06"/><polygon class="cls-8" points="8.38 2.06 9.7 2.06 9.7 1.95 8.38 1.95 8.38 2.06 8.38 2.06"/><path class="cls-8" d="M9.92,2.73V1.84a.33.33,0,0,1,.33-.33h0a.33.33,0,0,0-.58.22v1Z"/><polygon class="cls-8" points="15.34 0.74 13.94 0.73 15.18 0.84 13.94 0.95 15.18 1.07 13.94 1.18 15.18 1.29 13.94 1.4 14.23 1.42 14.39 1.4 14.54 1.45 15.18 1.51 14.64 1.56 14.67 1.63 14.69 1.69 15.18 1.73 14.69 1.77 14.69 1.84 14.69 1.91 15.18 1.95 14.69 2 14.69 2.06 14.69 2.13 15.18 2.17 14.69 2.22 14.69 2.28 14.69 2.35 15.18 2.4 14.69 2.44 14.69 2.51 14.69 2.57 15.18 2.62 14.69 2.66 14.69 2.73 15.34 2.73 15.34 0.74 15.34 0.74"/><polygon class="cls-8" points="13.02 0.74 15.67 0.74 15.67 0.63 13.02 0.63 13.02 0.74 13.02 0.74"/><polygon class="cls-8" points="15.35 0.07 15.35 0.73 15.68 0.73 15.68 0.07 15.35 0.07 15.35 0.07"/><polygon class="cls-8" points="13.35 0.07 13.34 0.42 13.56 0.42 13.56 0.07 13.35 0.07 13.35 0.07"/><polygon class="cls-8" points="14.68 2.06 15.99 2.06 15.99 1.95 14.68 1.95 14.68 2.06 14.68 2.06"/><polygon class="cls-8" points="12.69 2.06 14.01 2.06 14.01 1.95 12.69 1.95 12.69 2.06 12.69 2.06"/><polygon class="cls-8" points="17 2.06 19.32 2.06 19.32 1.95 17 1.95 17 2.06 17 2.06"/><polygon class="cls-8" points="14.68 2.73 19.32 2.73 19.32 2.62 14.68 2.62 14.68 2.73 14.68 2.73"/><polygon class="cls-8" points="10.36 2.73 14.01 2.73 14.01 2.62 10.36 2.62 10.36 2.73 10.36 2.73"/><polygon class="cls-8" points="6.05 2.73 9.7 2.73 9.7 2.62 6.05 2.62 6.05 2.73 6.05 2.73"/><path class="cls-8" d="M14.22,2.73V1.84a.33.33,0,0,1,.33-.33h0a.33.33,0,0,0-.58.22v1Z"/><polygon class="cls-8" points="1.4 5.13 18.66 5.13 18.66 5.02 1.4 5.02 1.4 5.13 1.4 5.13"/><polygon class="cls-8" points="1.4 5.79 18.66 5.79 18.66 5.68 1.4 5.68 1.4 5.79 1.4 5.79"/><polygon class="cls-8" points="1.4 6.46 18.66 6.46 18.66 6.35 1.4 6.35 1.4 6.46 1.4 6.46"/><polygon class="cls-8" points="1.07 7.12 18.99 7.12 18.99 7.01 1.07 7.01 1.07 7.12 1.07 7.12"/><polygon class="cls-8" points="4.61 1.4 4.61 2.06 4.72 2.06 4.72 1.4 4.61 1.4 4.61 1.4"/><polygon class="cls-8" points="4.61 2.07 4.61 2.73 4.72 2.73 4.72 2.07 4.61 2.07 4.61 2.07"/><polygon class="cls-8" points="5.72 4.47 4.72 2.73 4.61 2.73 5.6 4.47 5.72 4.47 5.72 4.47"/><polygon class="cls-8" points="7.26 1.4 7.26 2.06 7.37 2.06 7.37 1.4 7.26 1.4 7.26 1.4"/><polygon class="cls-8" points="8.92 1.4 8.92 2.06 9.04 2.06 9.04 1.4 8.92 1.4 8.92 1.4"/><polygon class="cls-8" points="8.92 2.07 8.92 2.73 9.04 2.73 9.04 2.07 8.92 2.07 8.92 2.07"/><polygon class="cls-8" points="10.03 4.47 9.04 2.73 8.92 2.73 9.92 4.47 10.03 4.47 10.03 4.47"/><polygon class="cls-8" points="11.58 1.4 11.58 2.06 11.69 2.06 11.69 1.4 11.58 1.4 11.58 1.4"/><polygon class="cls-8" points="13.24 1.4 13.24 2.06 13.35 2.06 13.35 1.4 13.24 1.4 13.24 1.4"/><polygon class="cls-8" points="13.24 2.07 13.24 2.73 13.35 2.73 13.35 2.07 13.24 2.07 13.24 2.07"/><polygon class="cls-8" points="14.35 4.47 13.35 2.73 13.24 2.73 14.23 4.47 14.35 4.47 14.35 4.47"/><polygon class="cls-8" points="15.89 1.4 15.89 2.06 16.01 2.06 16.01 1.4 15.89 1.4 15.89 1.4"/><polygon class="cls-8" points="17.56 1.4 17.56 2.06 17.66 2.06 17.66 1.4 17.56 1.4 17.56 1.4"/><polygon class="cls-8" points="17.56 2.07 17.56 2.73 17.66 2.73 17.66 2.07 17.56 2.07 17.56 2.07"/><polygon class="cls-8" points="18.66 4.47 17.67 2.73 17.56 2.73 18.55 4.47 18.66 4.47 18.66 4.47"/><polygon class="cls-8" points="5.61 4.48 5.61 5.14 5.72 5.14 5.72 4.48 5.61 4.48 5.61 4.48"/><polygon class="cls-8" points="5.61 5.8 5.61 6.46 5.72 6.46 5.72 5.8 5.61 5.8 5.61 5.8"/><polygon class="cls-8" points="9.92 4.48 9.92 5.14 10.03 5.14 10.03 4.48 9.92 4.48 9.92 4.48"/><polygon class="cls-8" points="9.92 5.8 9.92 6.46 10.03 6.46 10.03 5.8 9.92 5.8 9.92 5.8"/><polygon class="cls-8" points="7.76 5.14 7.76 5.8 7.88 5.8 7.88 5.14 7.76 5.14 7.76 5.14"/><polygon class="cls-8" points="7.76 6.46 7.76 7.12 7.88 7.12 7.88 6.46 7.76 6.46 7.76 6.46"/><polygon class="cls-8" points="14.24 4.48 14.24 5.14 14.35 5.14 14.35 4.48 14.24 4.48 14.24 4.48"/><polygon class="cls-8" points="14.24 5.8 14.24 6.46 14.35 6.46 14.35 5.8 14.24 5.8 14.24 5.8"/><polygon class="cls-8" points="12.08 5.14 12.08 5.8 12.19 5.8 12.19 5.14 12.08 5.14 12.08 5.14"/><polygon class="cls-8" points="12.08 6.46 12.08 7.12 12.19 7.12 12.19 6.46 12.08 6.46 12.08 6.46"/><polygon class="cls-8" points="18.55 4.48 18.55 6.46 18.66 6.46 18.66 4.48 18.55 4.48 18.55 4.48"/><polygon class="cls-8" points="16.39 5.14 16.39 5.8 16.51 5.8 16.51 5.14 16.39 5.14 16.39 5.14"/><polygon class="cls-8" points="16.39 6.46 16.39 7.12 16.51 7.12 16.51 6.46 16.39 6.46 16.39 6.46"/><polygon class="cls-8" points="18.88 6.46 18.88 7.12 18.99 7.12 18.99 6.46 18.88 6.46 18.88 6.46"/><path class="cls-9" d="M6.07,20.67a.05.05,0,0,1,.05.05.05.05,0,0,1-.1,0,.05.05,0,0,1,.05-.05Zm0,.14a.09.09,0,0,0,.08-.08.08.08,0,0,0-.08-.08.08.08,0,0,0-.08.08.08.08,0,0,0,.08.08Z"/><path class="cls-9" d="M4.54,19.6l0,0h0a0,0,0,0,1,0,0,0,0,0,0,1,0,0l0,0h0a0,0,0,0,1,0-.06Zm0,.09H4.6l0,0a.09.09,0,0,0,0-.06.09.09,0,0,0,0,0H4.56a.08.08,0,0,0,0,0,.07.07,0,0,0,0,.1Z"/><path class="cls-9" d="M11.14,12A.05.05,0,1,1,11.2,12a.05.05,0,0,1-.05.05Zm0-.14a.09.09,0,1,0,.09.09.09.09,0,0,0-.09-.09Z"/><path class="cls-9" d="M13.57,10.2a.05.05,0,0,1-.05-.05.05.05,0,1,1,.11,0,.06.06,0,0,1-.05.05Zm0-.14a.09.09,0,0,0,0,.17.09.09,0,1,0,0-.17Z"/><path class="cls-9" d="M4.33,17.61a.05.05,0,1,1,0-.11.05.05,0,0,1,0,.11Zm0-.14a.08.08,0,1,0,.09.08.09.09,0,0,0-.09-.08Z"/><path class="cls-9" d="M19.66.72H17.35V.09h.5V.42h.56V.09h.5V.42h.56V.09H20V.72h-.31ZM14.36,6.45V5.81h4.28v.63Zm1.71,20.84H11.7A1.88,1.88,0,0,0,10,28.2a1.88,1.88,0,0,0-1.66-.92H4a2.9,2.9,0,0,1-2.9-2.9v-2a3.16,3.16,0,0,1,1.47.39,3.09,3.09,0,0,0,3,0,3.05,3.05,0,0,1,3,0,3.09,3.09,0,0,0,3,0,3,3,0,0,1,3,0,3.09,3.09,0,0,0,3,0A3.15,3.15,0,0,1,19,22.41v2a2.9,2.9,0,0,1-2.9,2.9ZM1.42,5.81H5.7v.63H1.42V5.81Zm1-5.1H.09V.09h.5V.42h.56V.09h.5V.42h.56V.09h.5V.72H2.4Zm-2,.66V.75h2v.63ZM3,1.42V2H2.41V1.42Zm1,0H4.7V2H4.07V1.42ZM4.74.75h2v.63h-2V.75Zm2,0H4.4V.09h.5V.42h.56V.09H6V.42h.56V.09H7V.72H6.71Zm.65.7V2H6.73V1.42Zm1,0H9V2H8.39V1.42ZM9.05.75h2v.63h-2V.75Zm2,0H8.72V.09h.5V.42h.56V.09h.5V.42h.56V.09h.5V.72H11Zm.65.7V2H11V1.42Zm1,0h.63V2H12.7V1.42Zm.66-.66h2v.63h-2V.75Zm2,0H13V.09h.5V.42h.56V.09h.5V.42h.56V.09h.5V.72h-.32Zm.65.7V2h-.63V1.42Zm1,0h.63V2H17V1.42Zm1.64,3-1-1.69h1.93l-1,1.69ZM12.21,5.78V5.15h4.28v.63ZM10,6.45V5.81h4.28v.63Zm6.44.66H12.21V6.48h4.28v.63Zm2.49,0H16.52V6.48H19v.63Zm-15.43,0H1.09V6.48H3.54v.63Zm4.32-.63v.63H3.57V6.48Zm0,.63V6.48h4.28v.63ZM10,5.81v.63H5.73V5.81ZM3.57,5.15H7.86v.63H3.57V5.15Zm-2.16,0H3.54v.63H1.42V5.15Zm1-2.41-1,1.69-1-1.69ZM.42,1.42a.31.31,0,0,1,.3.31v1H.42V1.42ZM.75,2V1.73a.35.35,0,0,0-.2-.31H2.38V2Zm1.63.66H.75V2.08H2.38v.63Zm2.32,0H2.41V2.08H4.7v.63Zm.66-.63v.63H4.74V2.08Zm0-.35V2H4.74V1.42h.83a.35.35,0,0,0-.2.31Zm.67,0v1H5.4v-1a.32.32,0,0,1,.63,0Zm0,.32V1.73a.35.35,0,0,0-.2-.31H6.7V2Zm.63.66H6.06V2.08H6.7v.63ZM9,2.71H6.73V2.08H9v.63Zm.67-.63v.63H9.05V2.08Zm0-.35V2H9.05V1.42h.83a.35.35,0,0,0-.2.31Zm.66,0v1H9.72v-1a.31.31,0,1,1,.63,0Zm0,.32V1.73a.35.35,0,0,0-.2-.31H11V2Zm.63.66h-.63V2.08H11v.63Zm2.33,0H11V2.08h2.29v.63ZM14,2.08v.63h-.63V2.08Zm0-.35V2h-.63V1.42h.83a.35.35,0,0,0-.2.31Zm.66,0v1H14v-1a.31.31,0,1,1,.63,0Zm0,.32V1.73a.35.35,0,0,0-.2-.31h.83V2Zm.63.66H14.7V2.08h.63v.63Zm2.32,0H15.36V2.08h2.29v.63ZM15,3.29l.31-.55h2.3l.31.55Zm-.33.58L15,3.33h3l.31.55Zm-.33.58.31-.55h3.63l.31.55ZM10,5.12V4.49h4.28v.63ZM5.73,4.49H10v.63H5.73V4.49Zm-4-.58H5.37l.31.55H1.43l.31-.55Zm.33-.58H5l.31.55H1.76l.31-.55Zm8.3.58H14l.31.55H10.06l.31-.55Zm.33-.58h3l.31.55H10.39l.31-.55Zm-4.65.58H9.69l.31.55H5.74l.31-.55Zm.33-.58h3l.31.55H6.08l.31-.55Zm8.92-.58-1,1.69-1-1.69Zm-2,0,.31.55H10.72L11,2.74h2.3ZM11,2.74,10,4.44l-1-1.69Zm-2,0,.31.55H6.41l.31-.55H9Zm-2.34,0-1,1.69-1-1.69Zm-4.28,0h2.3L5,3.29H2.09l.31-.55Zm-1,2.37V4.49H5.7v.63Zm6.47.66V5.15h4.28v.63Zm6.47-.66V4.49h4.28v.63Zm4.94-3v.63H17.68V2.08Zm0-.35V2H17.68V1.42h1.83a.35.35,0,0,0-.2.31Zm.33,1h-.3v-1a.31.31,0,0,1,.3-.31V2.71ZM16.57,22.43v0h0c-.33-.2,0-.79.34-1.54v0l.1,0h0l1-2.66v0h-.33a4.08,4.08,0,0,1-.88.93L14.9,9.48,16,8.58a.06.06,0,0,0,0-.09.06.06,0,0,0-.09,0l-1.13.85L9,8.7h0l0-1.12a.07.07,0,1,0-.14,0s0,.13,0,.31H6.35A4,4,0,0,0,5.13,8c-.6.22-.61.51-.61.54h0s.09-.17.67-.23c.24,0,.58,0,1,0H8.75c0,.19,0,.35,0,.4h0a.09.09,0,0,0,0,.17L7.44,12.13,6.93,12a.07.07,0,0,0-.08.05.08.08,0,0,0,0,.06l0,0,.33.09a2,2,0,0,0-.53,1.85l-.1.25-.27-.07a.07.07,0,0,0-.08.05.08.08,0,0,0,0,.06l0,0,.25.07-.9,2.31-1.19.71a.14.14,0,0,0-.11-.06.14.14,0,0,0-.14.14.12.12,0,0,0,0,0A16.74,16.74,0,0,1,2,18.24l-.11-.06H1.8l0,0a.08.08,0,0,0,0,.05l0,0,3.56,2.25,0,0-.69-.12v-.2h0l-.61-.31H4v0a2.84,2.84,0,0,0,.29,1.81,3.35,3.35,0,0,0,1,1.11,2.87,2.87,0,0,1-1.24.27,3.14,3.14,0,0,1-1.49-.38,3.13,3.13,0,0,0-1.48-.39V7.15H19V22.38a3.13,3.13,0,0,0-1.48.39,3.28,3.28,0,0,1-1.26.38l.34-.71Zm0-1.51.31-.07h0c-.38.75-.67,1.35-.34,1.57l-.34.71H16a2.82,2.82,0,0,1-.86-.13,6.48,6.48,0,0,0,1.42-2.1Zm-1,1.55a4.78,4.78,0,0,1-.51.54,4.89,4.89,0,0,1-.59-.25l-.3-.14,1.39-.16Zm-3.65.1-.23-.21c1.21-.07,2.49-.21,4.28-.45-.11.17-.23.35-.37.53l-1.48.17A2.85,2.85,0,0,0,13,22.37a2.81,2.81,0,0,0-1.06.19Zm-.82.36-.93-1.41a.21.21,0,0,1,0-.09.2.2,0,0,1,.2-.2.2.2,0,0,1,.11,0l1.42,1.32-.41.18-.37.17Zm-.09-.08.06.09a2.81,2.81,0,0,1-1.08.21,3,3,0,0,1-1.4-.34c.8.05,1.59.06,2.42,0Zm-4.89-.34-1-.17A3,3,0,0,1,4.89,22a29.75,29.75,0,0,0,5.86.42l.28.42c-.85,0-1.66,0-2.48,0h0A3.13,3.13,0,0,0,7,22.37a2.81,2.81,0,0,0-.88.13Zm-.61.26a3.58,3.58,0,0,1-.37-.38l.92.15a5.37,5.37,0,0,0-.54.23Zm-.08-2a.35.35,0,0,0,.37,0h0l-.07.1-1.28-.18c0-.09,0-.16,0-.19l.9.16a.36.36,0,0,0,.09.09Zm-.84-.94.77.44h0a.35.35,0,0,0-.06.27l-.9-.57.2-.15Zm-.21-.12,0,.24L1.8,18.27l0,0a0,0,0,0,1,0,0l0,0h0l2.58,1.46Zm0-2.11a.11.11,0,0,1-.1.11.11.11,0,0,1-.11-.11.11.11,0,0,1,.11-.1.1.1,0,0,1,.1.1Zm.54.9a8.45,8.45,0,0,1-.56-.79.14.14,0,0,0,0-.11.15.15,0,0,0,0-.05l1.16-.69L5,18.45Zm1-1.87-.91,2L5,18.48l.66-1.7.32-.2Zm.57-1.23L6,16.53l-.32.2.85-2.19a4.87,4.87,0,0,0,0,.81Zm3.91.06a0,0,0,0,1,0,0,0,0,0,0,1,0,0L6.29,14.35l0,0a.05.05,0,0,1,0,0,0,0,0,0,1,0,0l4.15,1.14ZM6.77,14.36l-.15,0,.08-.2a2.42,2.42,0,0,0,.07.24Zm2-5.5h0v.92h0a.09.09,0,0,0,0,.17h0v.63h0a.09.09,0,0,0-.09.08.08.08,0,0,0,.06.08L8,12.27l-.5-.14L8.74,8.87Zm5,1.31a.08.08,0,0,0,0,0,.14.14,0,0,0-.14-.14.14.14,0,0,0-.12.08L9,8.85a.09.09,0,0,0,0-.07.09.09,0,0,0,0,0l5.76.63-1.07.81ZM10.5,13l-.31-.09,1-.78,0,0,2.4-1.82h0L16,8.5a0,0,0,0,1,0,0,0,0,0,0,1,0,0L10.5,13Zm5.94,6.39L15,10.21l1.8,8.89-.37.26Zm1.09,0a11,11,0,0,1-1.57.66,4.87,4.87,0,0,0,1.87-1.47l-.31.82Zm-.16.42a20.2,20.2,0,0,1-4.71,1.12A26.81,26.81,0,0,1,7.41,21c0-.05,0-.1,0-.14,4,.34,7.68-.18,10.1-1.43l-.14.37Zm-10.44,2,.14-.07c.23-.13.33-.07.34-.07l0,0a.18.18,0,0,1,0-.09c1,.08,1.94.11,2.89.09l.2.3a32.42,32.42,0,0,1-3.54-.13Zm0-.3a.13.13,0,0,1,0,.05s0,.08-.11.13a.64.64,0,0,1-.23.1l0-.12v0h0l-.25.1c-.54-.06-1.1-.14-1.65-.23,0-.11-.08-.21-.1-.31.78.13,1.56.23,2.32.3ZM5.57,21.1l-.08.11v0h0l.16.12h0l.22-.21.63.07.09.06a1.14,1.14,0,0,1,.26.22c-.75-.07-1.53-.18-2.31-.3a2.61,2.61,0,0,1-.05-.26l1.06.16Zm0,0L4.51,20.9c0-.08,0-.15,0-.21l1.25.18-.15.19Zm.18.13-.15-.12,0-.06.16.13-.05,0Zm-.12.12-.13-.1.08-.11.15.12-.1.09Zm.55-1,.16.13-.18.36-.34.32L5.69,21l.52-.68Zm-.53.28a.12.12,0,0,1,0-.08.13.13,0,0,1,0-.09.12.12,0,0,1,.08-.05.13.13,0,0,1,.09,0l.18.13-.14.19-.18-.12Zm0-.25-.15-.09.08,0a.21.21,0,0,1,.15,0,.2.2,0,0,1,.08.12l0,0a.15.15,0,0,0-.12,0Zm-.11.17a.15.15,0,0,0,.06.1h0a.2.2,0,0,1-.12,0,.21.21,0,0,1,0-.29l0,0,.14.08,0,0a.15.15,0,0,0,0,.12Zm-.18-.28a.32.32,0,0,1,.44-.07.31.31,0,0,1,.13.3l-.08-.06a.23.23,0,0,0-.1-.18.24.24,0,0,0-.18,0,.24.24,0,0,0-.15.1.24.24,0,0,0,.24.37l.08.06a.32.32,0,0,1-.39-.47Zm-.65-.57a.09.09,0,0,0,0-.07.07.07,0,0,0,0-.06l0,0,.48-.73a13.46,13.46,0,0,0,1.31,1.37l-.13-.1h0v0L6,20.5H6a.34.34,0,0,0-.14-.35.35.35,0,0,0-.46,0l-.77-.43.11-.08Zm-.12-.2h0L5,18.52,5,18.6l-.4.87Zm.54-.71-.49.74h0l.4-.87.11.14Zm1.51-2.63.06.23L5.2,18.73l-.11-.14.94-2,.66-.42Zm0,0-.62.4.5-1.08a5.61,5.61,0,0,0,.12.69Zm.5-.33.63-1,.55.15c-.25.18-.66.46-1.18.81Zm-.41.56-.06-.22.35-.23-.29.45Zm1.87-.49h0a.08.08,0,0,0-.09.09.09.09,0,0,0,.09.09h0v1h0a.09.09,0,0,0,0,.17h0v1h0a.09.09,0,0,0-.09.09.09.09,0,0,0,.09.09h0v.93A7,7,0,0,1,7,16.92c-.07-.18-.13-.36-.19-.54l.35-.54c.57-.38,1-.69,1.27-.87l.25.07v.8ZM9,15.12v.71H8.68V15l.29.08Zm.18,0a1.32,1.32,0,0,1,0,.14,1,1,0,0,1-.13.52H9v-.71l.14,0Zm.87.24c0,.16,0,.33,0,.5S10,16,10,16a6.53,6.53,0,0,0-.14,2.12,6.11,6.11,0,0,0,.41,1.7,4.37,4.37,0,0,0-.4.24,4.68,4.68,0,0,0-.73.59.08.08,0,0,0,0,0,1,1,0,0,0,.12-.52.9.9,0,0,0-.14-.52.09.09,0,0,0,.06-.08.09.09,0,0,0-.06-.08,1,1,0,0,0,.12-.52.88.88,0,0,0-.14-.52.09.09,0,0,0,.06-.08.08.08,0,0,0-.06-.08,1,1,0,0,0,.12-.52.9.9,0,0,0-.14-.52.08.08,0,0,0,.06-.08A.08.08,0,0,0,9.09,17a1,1,0,0,0,.12-.52A.91.91,0,0,0,9.08,16a.09.09,0,0,0,.06-.08.09.09,0,0,0-.06-.08,1,1,0,0,0,.12-.53,1,1,0,0,0,0-.13l.84.23Zm0,.5h0c0-.16,0-.33,0-.48l.16,0a4,4,0,0,0-.15.45Zm2.17-3.6a11.69,11.69,0,0,0-.14,2.75,11.78,11.78,0,0,0,.56,3.1,7,7,0,0,0,.45,1.08,9,9,0,0,0-1.24.07l-.1,0a12.33,12.33,0,0,1-.66-3.85,8.61,8.61,0,0,1,.3-3.21l1.07-.86a5,5,0,0,0-.24.9Zm.9,2.34a12.5,12.5,0,0,0,.8,3.47,8.08,8.08,0,0,0,.58,1.21,11.06,11.06,0,0,0-1.37-.09,10.27,10.27,0,0,1-1-4.18,8.61,8.61,0,0,1,.41-3.69l1.05-.85a8.93,8.93,0,0,0-.45,4.13Zm1.22-3.89a10.19,10.19,0,0,0-.19,3.47,13.74,13.74,0,0,0,1,4,9.18,9.18,0,0,0,.73,1.41,11.52,11.52,0,0,0-1.37-.25,11.13,11.13,0,0,1-1.39-4.69,8.69,8.69,0,0,1,.47-4.17l1.11-.89a6.17,6.17,0,0,0-.4,1.17Zm1.23,9a2.45,2.45,0,0,0,.83-.35l.05.33a4.81,4.81,0,0,1-1,.45h0l-.23.06a.89.89,0,0,0,.32-.5Zm-5.25.07a6,6,0,0,1-.4-1.68,6.57,6.57,0,0,1,.11-2,25.73,25.73,0,0,0,.36,3.64l-.06,0Zm-.6.42a5.44,5.44,0,0,1,.58-.37,4.25,4.25,0,0,0,.58,1,8.22,8.22,0,0,1-1.16-.63Zm-.64.68v-.12h0a.09.09,0,0,0,.09-.09h0a4.73,4.73,0,0,1,.51-.44,8.4,8.4,0,0,0,1.18.64c-.58,0-1.18,0-1.79,0Zm-.49-.12h.45v.12l-.45,0v-.11ZM9,18.41l0,1H8.63v-1Zm.06,1h0v-1h0a.85.85,0,0,1,.14.51,1,1,0,0,1-.13.51Zm0,.14H8.58a.05.05,0,0,1,0-.11H9.1a.05.05,0,1,1,0,.11Zm0,.2v-.16h0a.68.68,0,0,1,.11.26l-.12-.1Zm0,.86h0v-.82l.13.11a1,1,0,0,1,0,.2.92.92,0,0,1-.13.52Zm-.06-1v1H8.61l0-1Zm-.49,1.16a.05.05,0,0,1-.05-.05.05.05,0,0,1,.05-.05h.55a.05.05,0,0,1,.05.05.05.05,0,0,1-.05.05Zm.52-2.5a.05.05,0,0,1,0,.11H8.59a.05.05,0,1,1,0-.11ZM9,17.21v1H8.65v-1Zm.06,1h0v-1h0a.83.83,0,0,1,.14.51.93.93,0,0,1-.13.52Zm0-1.17a.05.05,0,0,1,.05.05.06.06,0,0,1-.05.05H8.61a.05.05,0,0,1-.05-.05.05.05,0,0,1,.05-.05ZM9,16v1H8.67V16Zm.06,1H9l0-1H9a.84.84,0,0,1,.14.51.92.92,0,0,1-.13.51Zm0-1.16a.05.05,0,0,1,.05.05A.05.05,0,0,1,9,16H8.62a.05.05,0,0,1-.05-.05.05.05,0,0,1,.05-.05ZM7.41,20.8h.18l0,0-.37-.35,0,0v.27a13.81,13.81,0,0,1-1.92-1.9l1.54-2.35c.05.18.11.35.18.52A7,7,0,0,0,8.6,19.39v0h0a.09.09,0,0,0-.09.09.09.09,0,0,0,.09.09h0v1h0a.09.09,0,0,0,0,.17h0v.11l-1.17-.08a.19.19,0,0,0,0,0ZM7.26,21v.05c0,.09-.05.13-.09.15s-.19,0-.38-.18L6.67,21l.59.06Zm0-.19a.69.69,0,0,1,0,.16l-.65-.06-.24-.18.76.08v.08l0,0,.11-.07Zm-.73-.64h0c.19.17.39.35.6.52v.11l-.82-.09,0,0,.25-.5Zm-.26,0,.15.12,0,.06-.16-.13,0-.05Zm.1-.14.12.1-.07.13-.14-.11.08-.11Zm-.27.84.29.2.07,0-.54-.07.19-.18Zm1.24.39a.53.53,0,0,0,0,.33.54.54,0,0,0-.32.08,2.85,2.85,0,0,1-.5.2h0v0l0,.11-.38-.2.37-.15,0,.12v0h0a.66.66,0,0,0,.27-.11c.06,0,.12-.09.12-.16s-.09-.18-.31-.33l-.22-.15-.28-.19.08-.08h0l0-.1.48.36c.21.16.34.21.42.19s.09-.1.11-.17a.65.65,0,0,0,0-.29v0h0l-.1.06,0-.4.31.3H7.37v0a2.66,2.66,0,0,1,0,.54Zm6.78-1a.07.07,0,0,0,.05-.08.07.07,0,0,0-.08-.05l-2.94.3a.07.07,0,0,0-.07.07.07.07,0,0,0,0,.07v.28H11a4.2,4.2,0,0,1-.61-1,4.43,4.43,0,0,1,1.52-.51,11.54,11.54,0,0,1,4,.28,1.66,1.66,0,0,1-.35.1h0a.85.85,0,0,1-.38.54q-.5.14-1,.25v-.22Zm-3,.31,2.92-.3v.22a20.8,20.8,0,0,1-2.92.36v-.28Zm2.94-.34-3,.31a0,0,0,0,1,0,0s0,0,0,0l2.94-.3s0,0,0,0a0,0,0,0,1,0,0ZM14.87,9.5l1.54,9.88a3.08,3.08,0,0,1-.43.22,12.73,12.73,0,0,1-1.78-5.37,8.68,8.68,0,0,1,.61-4.69l.05,0ZM9.16,15a.7.7,0,0,0-.1-.23.09.09,0,0,0,.06-.07,9.9,9.9,0,0,1,.88.54L9.16,15ZM9,15V14.8H9a.63.63,0,0,1,.1.22L9,15ZM8.7,14.8H9V15l-.28-.08v-.1Zm-.05,0h0v.09l-.1,0,.08-.06Zm-.49-.51a4.71,4.71,0,0,1,.51.2v.13h0a.09.09,0,0,0-.09.09.09.09,0,0,0,0,.08l-.08.06-.62-.17.25-.39Zm.56-3.53h0l0,1.71L8,12.28l.71-1.52ZM9,10.62a.05.05,0,0,1,.05.05.05.05,0,0,1-.05.05H8.7a.05.05,0,0,1-.05-.05.05.05,0,0,1,.05-.05ZM8.91,10v.63H8.76V10Zm0-.14H9A.05.05,0,0,1,9,9.87.05.05,0,0,1,9,9.92H8.72a.05.05,0,0,1-.05-.05.05.05,0,0,1,.05-.05Zm0,2.73,0-1.78a.14.14,0,0,0,.09,0l.07,0a2.68,2.68,0,0,0,.82.76A2.9,2.9,0,0,0,11,12h0a.14.14,0,0,0,.13.14l-1,.75L9,12.55Zm0,2.07H8.7V14.5l.25.12Zm.23-3.9a2.81,2.81,0,0,1,1.05.41,2.56,2.56,0,0,1,.81.75l0,0a3.05,3.05,0,0,1-1.87-1.17l0,0Zm-.14,0a.09.09,0,0,0,0-.1H9a.05.05,0,0,1,.05.05.05.05,0,0,1-.05.05Zm0,0H9a.09.09,0,0,0,0-.17H9l.06,0a.11.11,0,0,1,0,.21l-.06,0Zm-.09,0,0,1.78-.22-.06,0-1.72Zm-.61,3.55a2,2,0,0,1,0-.79,2.13,2.13,0,0,1,.56-1l.76.21a2,2,0,0,0-.57,1.89,6.06,6.06,0,0,0-.78-.35Zm.77.4a.05.05,0,0,1-.05.05h-.4a.05.05,0,0,1,0-.11H9l.07,0Zm.83-.66a1.94,1.94,0,0,1,.23-.64A9.94,9.94,0,0,0,10,15.1a2.18,2.18,0,0,1-.11-1Zm.25-.74h0a2.09,2.09,0,0,0-.29.73,2.33,2.33,0,0,0,.17,1.2,10.22,10.22,0,0,0-.92-.56,1.94,1.94,0,0,1,.57-1.9l.72.2a2.45,2.45,0,0,0-.25.33Zm.52-.26s0,0,0,0,0,0,0,0l-.27-.07.06-.07.23.06Zm.5-1h-.05a.1.1,0,1,1,.08,0l0,0Zm2.37-1.79L11.28,12a.1.1,0,0,0,0,0,.14.14,0,0,0-.14-.14l-.08,0a3,3,0,0,0-1.88-1.17v0A.14.14,0,0,0,9,10.53a.14.14,0,0,0-.1,0V10H9A.09.09,0,0,0,9,9.87a.08.08,0,0,0,0,0l4.41.34a.14.14,0,0,0,.13.12Zm.08-.07,0,0h-.05a.1.1,0,0,1-.1-.1.11.11,0,0,1,.1-.11.11.11,0,0,1,.1.11.1.1,0,0,1,0,.07ZM8.94,8.87l4.5,1.25h0L9,9.78h0V8.87Zm0,0v.92H8.77V8.87ZM7.53,13.31a2.15,2.15,0,0,1,.58-1l.75.21a2.13,2.13,0,0,0-.56,1,2,2,0,0,0,0,.79l-.13,0a2.94,2.94,0,0,0-.64-.13,2,2,0,0,1,0-.81Zm-.4.87a2,2,0,0,1,1,.1l-.25.39L7,14.43l.12-.25Zm-.31.2a.46.46,0,0,1,.27-.19L7,14.42l-.16,0Zm3.65,1-.37-.1,0-.09a9.81,9.81,0,0,1,.14-1.86,2.41,2.41,0,0,1,.17-.24l.28.08a.07.07,0,0,0,.08-.05.07.07,0,0,0,0-.09l-.16,0,.83-.66a9.26,9.26,0,0,0-.29,3.17,12.4,12.4,0,0,0,.66,3.86,4.45,4.45,0,0,0-1.3.44A25.63,25.63,0,0,1,10.08,16a3.84,3.84,0,0,1,.18-.56l.17,0a.07.07,0,0,0,.08-.05.07.07,0,0,0,0-.09ZM7,14.57l.83.23-.67,1-.4.26a5.51,5.51,0,0,1-.12-.72L7,14.57Zm-.38-.11.35.1-.34.74a4.85,4.85,0,0,1,0-.83Zm-2.1,5a.06.06,0,0,1,0,0h0l.22.13s0,0,0,0a.06.06,0,0,1,0,0l-.33.24.05-.4Zm.23,2.09c.52.09,1.05.16,1.57.22l-.12,0h0l0,0,.45.24,0,0v0l0-.13a2.41,2.41,0,0,0,.28-.1,31.68,31.68,0,0,0,3.62.14l.24.37a29.77,29.77,0,0,1-5.86-.43,3,3,0,0,1-.17-.36Zm5.56.06c-.95,0-1.91,0-2.87-.09a.65.65,0,0,1,0-.21v0a27.75,27.75,0,0,0,2.78.09.25.25,0,0,0,0,0,.23.23,0,0,0,0,.11h0l.07.1Zm6.93-1.32a29.71,29.71,0,0,1-6.55,1l-.1-.09h0a.22.22,0,0,0-.13,0,.23.23,0,0,0-.22.15,27.34,27.34,0,0,1-2.78-.09c0-.08,0-.15,0-.21A27.34,27.34,0,0,0,12.66,21a20.37,20.37,0,0,0,4.69-1.12l-.18.46Zm-.86,1a36.54,36.54,0,0,1-5,.59L11,21.65a33,33,0,0,0,5.56-.72c0,.1-.11.25-.2.43Zm-.29.51c-1.82.25-3.12.38-4.34.46L11.32,22a37.24,37.24,0,0,0,5-.58c-.07.14-.16.3-.27.47Zm1-1.07a33.27,33.27,0,0,1-6.06.83l-.27-.25a29.6,29.6,0,0,0,6.5-1l-.17.44Zm.74-2.61H18l-.11.3h0a4.53,4.53,0,0,1-1.38,1.27l-.05-.33a4.42,4.42,0,0,0,1.29-1.22ZM8.94,8.73h0A.05.05,0,0,1,9,8.78a.05.05,0,0,1-.05.05H8.73a.05.05,0,0,1,0-.11ZM8.8,7.57a0,0,0,0,1,0,0,0,0,0,0,1,0,0s0,1,0,1.12H8.78l0-1.12Zm-.15.5a.24.24,0,0,0,.07.18H6.22c-.43,0-.77,0-1,0a1.15,1.15,0,0,0-.65.2c0-.1.15-.3.58-.45a4,4,0,0,1,1.21-.11H8.73a.22.22,0,0,0-.07.16Zm.1.16a.2.2,0,0,1-.07-.16.19.19,0,0,1,.07-.15c0,.1,0,.21,0,.31Zm-1.41,3.9.73.2a2.21,2.21,0,0,0-.58,1,2.05,2.05,0,0,0,0,.81,1.14,1.14,0,0,0-.45.06.46.46,0,0,0-.23.17,2.29,2.29,0,0,1-.07-1.2,2.16,2.16,0,0,1,.62-1Zm-.1.05-.35-.1h0a0,0,0,0,1,0,0s0,0,0,0l.39.11-.06.06ZM4.33,17.69l.06,0a9,9,0,0,0,.57.81l-.37,1,0,0a.08.08,0,0,0-.07,0,.1.1,0,0,0,0,.07l0,.14L2,18.26a16.73,16.73,0,0,0,2.2-.64.14.14,0,0,0,.12.08Zm1,5.17a3.32,3.32,0,0,1-1-1.11A2.84,2.84,0,0,1,4.07,20l.58.29v.19l-.17,0h0v0a2.59,2.59,0,0,0,.09.78,3.12,3.12,0,0,0,1,1.54l-.18.08ZM18.64,5.78H16.52V5.15h2.12v.63Zm-1-5h2v.63h-2V.75ZM20,.06h-.55V.39h-.49V.06h-.57V.39h-.49V.06h-.57v.7h.33v.63H17V2H16V1.38h-.66V.75h.33V.06h-.57V.39h-.49V.06h-.57V.39h-.49V.06H13v.7h.33v.63h-.66V2h-1V1.38H11V.75h.33V.06h-.57V.39h-.49V.06H9.75V.39H9.25V.06H8.69v.7H9v.63H8.36V2h-1V1.38H6.73V.75h.33V.06H6.49V.39H6V.06H5.43V.39H4.94V.06H4.37v.7H4.7v.63H4V2h-1V1.38H2.41V.75h.33V.06H2.18V.39H1.68V.06H1.12V.39H.62V.06H.06v.7H.39v2h0l1,1.73v2H1.05v.7h0V24.39A2.93,2.93,0,0,0,4,27.32H8.37a1.84,1.84,0,0,1,1.64.91h0v0h0a1.84,1.84,0,0,1,1.64-.91h4.38A2.93,2.93,0,0,0,19,24.39V7.14h0v-.7h-.33v-2l1-1.73h0v-2H20V.06Z"/><path class="cls-9" d="M19.45.07H20V.74h-.33V.81h0V2.73h0l-1,1.74V6.39h0v.07H19V24.39h0a2.92,2.92,0,0,1-2.91,2.92H11.7a1.87,1.87,0,0,0-1.67.93,1.87,1.87,0,0,0-1.66-.93H4a2.91,2.91,0,0,1-2.91-2.92V6.46H1.4v-2L.4,2.73v-2H.07V.07H.61V.33h0V.4h.53V.07h.53V.33h0V.4h.53V.07h.53V.74H2.4V.81h0v.52h0V1.4h.66V2h0v.07h1V1.4h.66V.74H4.39V.07h.54V.33h0V.4h.52V.07H6V.33H6V.4h.52V.07H7V.74H6.71V.81h0v.52h0V1.4h.66V2h0v.07h1V1.4H9V.74H8.7V.07h.54V.33h0V.4h.53V.07h.53V.33h0V.4h.53V.07h.53V.74H11V.81h0v.52h0V1.4h.66V2h0v.07h1V1.4h.66V.74H13V.07h.53V.33h0V.4h.53V.07h.53V.33h0V.4h.53V.07h.53V.74h-.33V.81h0v.52h0V1.4H16V2h0v.07h1V1.4h.66V.74h-.33V.07h.54V.33h0V.4h.53V.07h.54V.33h0V.4h.53V.07ZM20.06,0h-.68V.33H19V0h-.68V.33h-.38V0h-.68V.81h.33v.52h-.67V2h-.85V1.33h-.66V.81h.33V0h-.68V.33h-.38V0H14V.33h-.38V0h-.68V.81h.33v.52h-.66V2h-.85V1.33H11.1V.81h.33V0h-.68V.33h-.38V0H9.69V.33H9.31V0H8.63V.81H9v.52H8.3V2H7.45V1.33H6.78V.81h.33V0H6.43V.33H6.05V0H5.37V.33H5V0H4.31V.81h.33v.52H4V2H3.13V1.33H2.47V.81H2.8V0H2.12V.33H1.74V0H1.06V.33H.68V0H0V.81H.33v2l1,1.73v1.9H1v18a3,3,0,0,0,.23,1.16A3,3,0,0,0,4,27.38H8.37a1.8,1.8,0,0,1,1.6.89h0l.06.07.06-.07h0a1.79,1.79,0,0,1,1.6-.89h4.38a3,3,0,0,0,3-3v-18h-.33V4.49l1-1.73v-2h.33V0Z"/><polygon class="cls-9" points="1.07 7.18 18.99 7.18 18.99 7.11 1.07 7.11 1.07 7.18 1.07 7.18"/><polygon class="cls-9" points="30.1 7.48 31.45 7.48 28.19 11.05 32.25 15 30.78 15 26.94 11.29 26.94 15 25.86 15 25.86 7.48 26.94 7.48 26.94 10.92 30.1 7.48 30.1 7.48"/><path class="cls-9" d="M34,10.05v1.13L34,11.1c.47-.76.95-1.14,1.42-1.14a1.76,1.76,0,0,1,1.16.56l-.52.86a1.45,1.45,0,0,0-.95-.48,1,1,0,0,0-.82.45A1.71,1.71,0,0,0,34,12.41V15H33v-5Z"/><path class="cls-9" d="M37.33,10.05h1v5h-1v-5ZM37.82,8a.58.58,0,0,1,.41.17.55.55,0,0,1,.17.41.56.56,0,0,1-.17.41.57.57,0,0,1-.41.17.54.54,0,0,1-.4-.17.56.56,0,0,1-.17-.41.55.55,0,0,1,.17-.4.54.54,0,0,1,.4-.18Z"/><path class="cls-9" d="M39.48,14.64V13.59a4.4,4.4,0,0,0,.85.47,2,2,0,0,0,.73.18.91.91,0,0,0,.53-.15.43.43,0,0,0,.22-.36.49.49,0,0,0-.14-.36,3.41,3.41,0,0,0-.62-.41,4.35,4.35,0,0,1-1.24-.9,1.28,1.28,0,0,1-.29-.81,1.15,1.15,0,0,1,.44-.93A1.75,1.75,0,0,1,41.1,10a3.16,3.16,0,0,1,1.49.41v1a3,3,0,0,0-1.43-.53.8.8,0,0,0-.46.12.38.38,0,0,0-.17.32.46.46,0,0,0,.16.33,2.7,2.7,0,0,0,.56.38l.35.2c.82.47,1.24,1,1.24,1.55a1.23,1.23,0,0,1-.47,1,1.88,1.88,0,0,1-1.22.39,3,3,0,0,1-.79-.1,5.09,5.09,0,0,1-.87-.35Z"/><path class="cls-9" d="M43.27,10.84,45.11,9v1h1.56v.88H45.11v2.42q0,.85.7.85a2.18,2.18,0,0,0,1.11-.35v.92a2.48,2.48,0,0,1-1.23.32,1.63,1.63,0,0,1-1.12-.39,1.07,1.07,0,0,1-.23-.27A1.4,1.4,0,0,1,44.2,14a4.29,4.29,0,0,1-.06-.91V10.93h-.86v-.1Z"/><path class="cls-9" d="M47.66,10.05h1v5h-1v-5ZM48.14,8a.58.58,0,0,1,.41.17.55.55,0,0,1,.17.41.56.56,0,0,1-.17.41.57.57,0,0,1-.41.17.54.54,0,0,1-.4-.17.56.56,0,0,1-.17-.41.55.55,0,0,1,.17-.4.54.54,0,0,1,.4-.18Z"/><path class="cls-9" d="M51,10.05v.63A2,2,0,0,1,52.52,10a1.66,1.66,0,0,1,.86.24,1.58,1.58,0,0,1,.61.66,3.14,3.14,0,0,1,.21,1.32V15h-1V12.18A1.93,1.93,0,0,0,53,11.1a.89.89,0,0,0-.78-.32,1.41,1.41,0,0,0-1.18.69V15H50v-5Z"/><path class="cls-9" d="M56.32,12h2.49a1.37,1.37,0,0,0-.35-.9,1.13,1.13,0,0,0-.84-.32,1.21,1.21,0,0,0-.86.32,1.58,1.58,0,0,0-.44.9Zm3.46.59H56.3a1.62,1.62,0,0,0,.48,1.13,1.58,1.58,0,0,0,1.13.42,3,3,0,0,0,1.79-.6v1a3.2,3.2,0,0,1-.9.43,3.74,3.74,0,0,1-1,.13,2.33,2.33,0,0,1-1.32-.34,2.43,2.43,0,0,1-.81-.91,2.77,2.77,0,0,1-.3-1.32A2.63,2.63,0,0,1,56,10.66,2.14,2.14,0,0,1,57.62,10a2,2,0,0,1,1.57.69,2.74,2.74,0,0,1,.59,1.84v.13Z"/><path class="cls-9" d="M60.82,7.48h1V10.7A1.9,1.9,0,0,1,63.32,10a1.63,1.63,0,0,1,.89.25,1.51,1.51,0,0,1,.58.68,3.4,3.4,0,0,1,.19,1.3V15H64V11.94a1.35,1.35,0,0,0-.27-.87.85.85,0,0,0-.7-.33,1.2,1.2,0,0,0-.61.17,2.79,2.79,0,0,0-.63.55V15h-1V7.48Z"/><path class="cls-9" d="M68.5,14V12.55l-.66.25a2.3,2.3,0,0,0-.71.4.68.68,0,0,0-.21.51.67.67,0,0,0,.2.5.69.69,0,0,0,.51.19A1.23,1.23,0,0,0,68.5,14Zm1-2v2.11c0,.17.06.25.17.25a1.17,1.17,0,0,0,.55-.26v.6a3.27,3.27,0,0,1-.54.29,1.19,1.19,0,0,1-.42.08c-.42,0-.67-.17-.74-.5a2.14,2.14,0,0,1-1.33.49,1.17,1.17,0,0,1-.86-.34,1.16,1.16,0,0,1-.34-.86,1.21,1.21,0,0,1,.34-.84,2.29,2.29,0,0,1,1-.58L68.5,12v-.26a.79.79,0,0,0-.89-.89A2.15,2.15,0,0,0,66,11.7V10.63A2,2,0,0,1,67.69,10a1.9,1.9,0,0,1,1.29.42,1.34,1.34,0,0,1,.29.36,1.32,1.32,0,0,1,.17.45,6.8,6.8,0,0,1,0,.85Z"/><path class="cls-9" d="M75.12,11.41V15h-1V12.25a2.17,2.17,0,0,0-.22-1.15.86.86,0,0,0-.77-.32,1.16,1.16,0,0,0-.56.14,2.55,2.55,0,0,0-.58.5V15H71v-5h1v.65A2.13,2.13,0,0,1,73.46,10a1.61,1.61,0,0,1,1.46.89,2.21,2.21,0,0,1,1.64-.9,1.51,1.51,0,0,1,1.19.53,2.38,2.38,0,0,1,.46,1.61V15h-1V12.07a1.54,1.54,0,0,0-.25-.95.86.86,0,0,0-.73-.33,1.5,1.5,0,0,0-1.14.61Z"/><path class="cls-9" d="M80.54,10.05v.63A2,2,0,0,1,82,10a1.66,1.66,0,0,1,.86.24,1.57,1.57,0,0,1,.61.66,3.14,3.14,0,0,1,.21,1.32V15h-1V12.18a1.93,1.93,0,0,0-.23-1.08.89.89,0,0,0-.78-.32,1.41,1.41,0,0,0-1.18.69V15h-1v-5Z"/><path class="cls-9" d="M84.82,14.64V13.59a4.38,4.38,0,0,0,.85.47,1.94,1.94,0,0,0,.73.18.93.93,0,0,0,.53-.15.43.43,0,0,0,.22-.36.49.49,0,0,0-.14-.36,3.35,3.35,0,0,0-.62-.41,4.35,4.35,0,0,1-1.24-.9,1.29,1.29,0,0,1-.29-.81,1.14,1.14,0,0,1,.44-.93A1.75,1.75,0,0,1,86.44,10a3.15,3.15,0,0,1,1.49.41v1a3,3,0,0,0-1.43-.53.78.78,0,0,0-.46.12.37.37,0,0,0-.18.32.46.46,0,0,0,.16.33,2.76,2.76,0,0,0,.56.38l.35.2c.82.47,1.24,1,1.24,1.55a1.23,1.23,0,0,1-.48,1,1.87,1.87,0,0,1-1.22.39,3,3,0,0,1-.79-.1,5.18,5.18,0,0,1-.87-.35Z"/><path class="cls-9" d="M28.94,20H30.1L28,22.43,30.53,25H29.22l-2.48-2.53L28.94,20Zm-3.22-2.57h1V25h-1V17.44Z"/><path class="cls-9" d="M33,20.88a1.55,1.55,0,0,0-1.16.46,1.62,1.62,0,0,0-.45,1.18,1.55,1.55,0,0,0,.46,1.16,1.65,1.65,0,0,0,1.19.45,1.61,1.61,0,0,0,1.18-.46,1.57,1.57,0,0,0,.46-1.17,1.55,1.55,0,0,0-.48-1.17A1.67,1.67,0,0,0,33,20.88ZM33,20a2.58,2.58,0,0,1,1.88.73,2.46,2.46,0,0,1,.75,1.83,2.33,2.33,0,0,1-.76,1.78A2.7,2.7,0,0,1,33,25a2.58,2.58,0,0,1-1.86-.72,2.53,2.53,0,0,1,0-3.6A2.63,2.63,0,0,1,33,20Z"/><path class="cls-9" d="M40.81,21.36V25h-1V22.2a2.16,2.16,0,0,0-.22-1.15.85.85,0,0,0-.77-.33,1.15,1.15,0,0,0-.56.14,2.45,2.45,0,0,0-.58.49V25h-1V20h1v.65a2.13,2.13,0,0,1,1.46-.75,1.61,1.61,0,0,1,1.46.89,2.22,2.22,0,0,1,1.64-.9,1.51,1.51,0,0,1,1.19.53A2.37,2.37,0,0,1,43.9,22V25h-1V22a1.53,1.53,0,0,0-.25-.95.86.86,0,0,0-.73-.33,1.51,1.51,0,0,0-1.14.61Z"/><path class="cls-9" d="M49.31,21.36V25h-1V22.2a2.16,2.16,0,0,0-.22-1.15.86.86,0,0,0-.77-.33,1.15,1.15,0,0,0-.56.14,2.45,2.45,0,0,0-.58.49V25h-1V20h1v.65a2.13,2.13,0,0,1,1.46-.75,1.61,1.61,0,0,1,1.46.89,2.22,2.22,0,0,1,1.64-.9,1.52,1.52,0,0,1,1.19.53A2.37,2.37,0,0,1,52.4,22V25h-1V22a1.53,1.53,0,0,0-.25-.95.86.86,0,0,0-.73-.33,1.51,1.51,0,0,0-1.14.61Z"/><path class="cls-9" d="M56.79,25v-.63a2.31,2.31,0,0,1-.71.53,1.84,1.84,0,0,1-.8.19,1.67,1.67,0,0,1-.86-.23,1.52,1.52,0,0,1-.6-.63,3.17,3.17,0,0,1-.2-1.33V20h1v2.82a1.94,1.94,0,0,0,.22,1.09.91.91,0,0,0,.78.31,1.43,1.43,0,0,0,1.19-.68V20h1v5Z"/><path class="cls-9" d="M60.13,20v.63a2,2,0,0,1,1.49-.73,1.64,1.64,0,0,1,.86.24,1.58,1.58,0,0,1,.61.66,3.16,3.16,0,0,1,.21,1.32V25h-1V22.14a1.92,1.92,0,0,0-.23-1.08.88.88,0,0,0-.77-.33,1.41,1.41,0,0,0-1.18.7V25h-1V20Z"/></g></g></svg>