<svg width="188" height="44" viewBox="0 0 188 44" fill="white" xmlns="http://www.w3.org/2000/svg">
<path d="M43.8754 22.0023C43.8748 27.8366 41.5632 33.4318 37.4492 37.5572C33.3351 41.6825 27.7555 44 21.9377 44C16.1198 44 10.5402 41.6825 6.42619 37.5572C2.31214 33.4318 0.000596573 27.8366 1.15302e-07 22.0023C-0.00029526 19.113 0.566922 16.252 1.66926 13.5825C2.7716 10.9131 4.38747 8.48757 6.4246 6.44445C8.46174 4.40132 10.8802 2.78061 13.542 1.67487C16.2037 0.569122 19.0566 -1.51842e-08 21.9377 0C24.8188 -1.51842e-08 27.6716 0.569122 30.3334 1.67487C32.9951 2.78061 35.4136 4.40132 37.4508 6.44445C39.4879 8.48757 41.1038 10.9131 42.2061 13.5825C43.3084 16.252 43.8757 19.113 43.8754 22.0023Z" fill="black"/>
<path d="M11.256 15.4042C11.256 15.503 11.2366 15.6008 11.1988 15.6921C11.161 15.7834 11.1056 15.8663 11.0358 15.9361C10.9661 16.0058 10.8832 16.0611 10.7921 16.0987C10.701 16.1363 10.6034 16.1555 10.5048 16.1552C10.3064 16.1546 10.1162 16.0753 9.97588 15.9346C9.83555 15.7939 9.75645 15.6032 9.75586 15.4042C9.75881 15.2067 9.83894 15.0183 9.97902 14.8795C10.1191 14.7408 10.3079 14.6627 10.5048 14.6621C10.6034 14.6618 10.701 14.681 10.7921 14.7186C10.8832 14.7562 10.9661 14.8115 11.0358 14.8813C11.1056 14.9511 11.161 15.034 11.1988 15.1252C11.2366 15.2165 11.256 15.3144 11.256 15.4132" fill="white"/>
<path d="M12.9621 15.4042C12.9621 15.6034 12.8832 15.7944 12.7428 15.9352C12.6023 16.0761 12.4118 16.1552 12.2132 16.1552C12.0153 16.154 11.826 16.0744 11.6865 15.9337C11.547 15.7929 11.4687 15.6026 11.4688 15.4042C11.4711 15.2073 11.5504 15.0193 11.6897 14.8805C11.8289 14.7417 12.0169 14.6633 12.2132 14.6621C12.4118 14.6621 12.6023 14.7412 12.7428 14.8821C12.8832 15.0229 12.9621 15.214 12.9621 15.4132" fill="white"/>
<path d="M14.6694 15.4042C14.6688 15.6036 14.5894 15.7946 14.4486 15.9354C14.3078 16.0762 14.117 16.1552 13.9182 16.1552C13.8196 16.1555 13.722 16.1363 13.6309 16.0987C13.5398 16.0611 13.4569 16.0058 13.3871 15.9361C13.3174 15.8663 13.262 15.7834 13.2242 15.6921C13.1864 15.6008 13.167 15.503 13.167 15.4042C13.1694 15.2061 13.2496 15.0171 13.3903 14.8781C13.531 14.7391 13.7207 14.6615 13.9182 14.6621C14.117 14.6621 14.3078 14.7412 14.4486 14.882C14.5894 15.0228 14.6688 15.2138 14.6694 15.4132" fill="white"/>
<path d="M16.3712 15.4042C16.3706 15.6036 16.2912 15.7946 16.1504 15.9354C16.0096 16.0762 15.8189 16.1552 15.62 16.1552C15.4214 16.1552 15.2309 16.0761 15.0905 15.9352C14.95 15.7944 14.8711 15.6034 14.8711 15.4042C14.8735 15.2065 14.9534 15.0178 15.0936 14.8789C15.2338 14.74 15.423 14.6621 15.62 14.6621C15.8189 14.6621 16.0096 14.7412 16.1504 14.882C16.2912 15.0227 16.3706 15.2138 16.3712 15.4132" fill="white"/>
<path d="M18.075 15.4042C18.075 15.5036 18.0553 15.602 18.0171 15.6937C17.9789 15.7854 17.9229 15.8686 17.8524 15.9385C17.7819 16.0083 17.6983 16.0635 17.6064 16.1007C17.5145 16.1379 17.4161 16.1564 17.317 16.1552C17.2188 16.1552 17.1215 16.1358 17.0307 16.098C16.94 16.0603 16.8576 16.0049 16.7882 15.9351C16.7189 15.8653 16.6639 15.7825 16.6265 15.6914C16.5891 15.6003 16.57 15.5027 16.5703 15.4042C16.5721 15.2067 16.6515 15.018 16.7914 14.879C16.9312 14.7401 17.1201 14.6621 17.317 14.6621C17.4156 14.6618 17.5132 14.681 17.6043 14.7186C17.6954 14.7562 17.7783 14.8115 17.8481 14.8813C17.9178 14.9511 17.9732 15.034 18.011 15.1252C18.0488 15.2165 18.0682 15.3144 18.0682 15.4132" fill="white"/>
<path d="M19.7905 15.4042C19.7899 15.6037 19.7105 15.7947 19.5697 15.9355C19.4289 16.0763 19.2381 16.1553 19.0393 16.1553C18.8404 16.1553 18.6497 16.0763 18.5089 15.9355C18.3681 15.7947 18.2887 15.6037 18.2881 15.4042C18.291 15.2084 18.3699 15.0213 18.508 14.8828C18.6462 14.7442 18.8327 14.6651 19.028 14.6622C19.1267 14.6607 19.2247 14.6787 19.3164 14.7152C19.4081 14.7517 19.4917 14.8059 19.5625 14.8748C19.6333 14.9438 19.6899 15.026 19.729 15.1168C19.7681 15.2076 19.789 15.3053 19.7905 15.4042Z" fill="white"/>
<path d="M21.4833 15.4042C21.4833 15.6034 21.4043 15.7944 21.2639 15.9352C21.1234 16.0761 20.9329 16.1552 20.7343 16.1552C20.5357 16.1552 20.3452 16.0761 20.2047 15.9352C20.0643 15.7944 19.9854 15.6034 19.9854 15.4042C19.9877 15.2065 20.0677 15.0178 20.2079 14.8789C20.3481 14.74 20.5372 14.6621 20.7343 14.6621C20.9329 14.6621 21.1234 14.7412 21.2639 14.8821C21.4043 15.0229 21.4833 15.214 21.4833 15.4132" fill="white"/>
<path d="M23.1876 15.4034C23.1876 15.5023 23.1682 15.6001 23.1304 15.6914C23.0926 15.7826 23.0373 15.8655 22.9675 15.9353C22.8977 16.0051 22.8149 16.0604 22.7238 16.098C22.6326 16.1356 22.535 16.1548 22.4364 16.1545C22.2378 16.1545 22.0473 16.0754 21.9069 15.9345C21.7664 15.7937 21.6875 15.6026 21.6875 15.4034C21.6875 15.2042 21.7664 15.0132 21.9069 14.8723C22.0473 14.7315 22.2378 14.6523 22.4364 14.6523C22.535 14.6521 22.6326 14.6713 22.7238 14.7089C22.8149 14.7465 22.8977 14.8018 22.9675 14.8715C23.0373 14.9413 23.0926 15.0242 23.1304 15.1155C23.1682 15.2067 23.1876 15.3046 23.1876 15.4034Z" fill="white"/>
<path d="M24.8918 15.4034C24.8912 15.6028 24.8117 15.7939 24.6709 15.9346C24.5301 16.0754 24.3394 16.1545 24.1406 16.1545C23.9419 16.1545 23.7514 16.0754 23.611 15.9345C23.4705 15.7937 23.3916 15.6026 23.3916 15.4034C23.3916 15.2042 23.4705 15.0132 23.611 14.8723C23.7514 14.7315 23.9419 14.6523 24.1406 14.6523C24.3394 14.6523 24.5301 14.7314 24.6709 14.8722C24.8117 15.013 24.8912 15.204 24.8918 15.4034Z" fill="white"/>
<path d="M12.9621 17.2472C12.9621 17.4466 12.8833 17.6379 12.7429 17.7791C12.6025 17.9203 12.412 17.9999 12.2132 18.0005C12.0151 17.9987 11.8258 17.9186 11.6864 17.7775C11.547 17.6364 11.4687 17.4458 11.4688 17.2472C11.4687 17.1483 11.4882 17.0505 11.526 16.9592C11.5638 16.868 11.6191 16.7851 11.6889 16.7153C11.7587 16.6455 11.8415 16.5902 11.9326 16.5526C12.0238 16.515 12.1214 16.4958 12.2199 16.4961C12.4186 16.4961 12.6091 16.5752 12.7495 16.7161C12.89 16.8569 12.9689 17.048 12.9689 17.2472" fill="white"/>
<path d="M14.6694 17.2472C14.6688 17.4468 14.5895 17.6381 14.4487 17.7792C14.308 17.9204 14.1172 17.9999 13.9182 18.0005C13.719 18.0005 13.5279 17.9211 13.387 17.7799C13.2461 17.6386 13.167 17.447 13.167 17.2472C13.167 17.1483 13.1864 17.0505 13.2242 16.9592C13.262 16.868 13.3174 16.7851 13.3871 16.7153C13.4569 16.6455 13.5398 16.5902 13.6309 16.5526C13.722 16.515 13.8196 16.4958 13.9182 16.4961C14.117 16.4961 14.3078 16.5751 14.4486 16.7159C14.5894 16.8567 14.6688 17.0478 14.6694 17.2472Z" fill="white"/>
<path d="M16.3712 17.2472C16.3706 17.4468 16.2913 17.638 16.1506 17.7792C16.0098 17.9203 15.8191 17.9999 15.62 18.0005C15.4212 17.9999 15.2307 17.9203 15.0903 17.7791C14.9499 17.6378 14.8711 17.4466 14.8711 17.2472C14.8711 17.048 14.95 16.8569 15.0905 16.7161C15.2309 16.5752 15.4214 16.4961 15.62 16.4961C15.8189 16.4961 16.0096 16.5751 16.1504 16.7159C16.2912 16.8567 16.3706 17.0478 16.3712 17.2472Z" fill="white"/>
<path d="M18.075 17.2472C18.075 17.3467 18.0553 17.4452 18.0171 17.537C17.979 17.6289 17.923 17.7122 17.8526 17.7823C17.7821 17.8523 17.6985 17.9077 17.6066 17.9451C17.5146 17.9826 17.4162 18.0014 17.317 18.0005C17.2187 18.0002 17.1213 17.9805 17.0306 17.9425C16.9398 17.9045 16.8574 17.8489 16.7881 17.7789C16.7187 17.709 16.6638 17.626 16.6265 17.5348C16.5891 17.4435 16.57 17.3458 16.5703 17.2472C16.57 17.1486 16.5891 17.051 16.6265 16.9599C16.6639 16.8688 16.7189 16.786 16.7882 16.7162C16.8576 16.6464 16.94 16.5911 17.0307 16.5533C17.1215 16.5155 17.2188 16.4961 17.317 16.4961C17.4156 16.4958 17.5132 16.515 17.6043 16.5526C17.6954 16.5902 17.7783 16.6455 17.8481 16.7153C17.9178 16.7851 17.9732 16.868 18.011 16.9592C18.0488 17.0505 18.0682 17.1483 18.0682 17.2472" fill="white"/>
<path d="M19.7905 17.2472C19.7899 17.4468 19.7106 17.638 19.5698 17.7792C19.4291 17.9203 19.2383 17.9999 19.0393 18.0005C18.8402 17.9999 18.6495 17.9203 18.5088 17.7792C18.368 17.638 18.2887 17.4468 18.2881 17.2472C18.2887 17.0478 18.3681 16.8567 18.5089 16.7159C18.6497 16.5751 18.8404 16.4961 19.0393 16.4961C19.2381 16.4961 19.4289 16.5751 19.5697 16.7159C19.7105 16.8567 19.7899 17.0478 19.7905 17.2472Z" fill="white"/>
<path d="M21.4833 17.2472C21.4833 17.4466 21.4044 17.6378 21.264 17.7791C21.1236 17.9203 20.9331 17.9999 20.7343 18.0005C20.5355 17.9999 20.345 17.9203 20.2046 17.7791C20.0642 17.6378 19.9854 17.4466 19.9854 17.2472C19.9854 17.048 20.0643 16.8569 20.2047 16.7161C20.3452 16.5752 20.5357 16.4961 20.7343 16.4961C20.9329 16.4961 21.1234 16.5752 21.2639 16.7161C21.4043 16.8569 21.4833 17.048 21.4833 17.2472Z" fill="white"/>
<path d="M23.1876 17.2472C23.1876 17.447 23.1085 17.6386 22.9676 17.7799C22.8267 17.9211 22.6357 18.0005 22.4364 18.0005C22.2376 17.9999 22.0471 17.9203 21.9067 17.7791C21.7663 17.6379 21.6875 17.4466 21.6875 17.2472C21.6875 17.048 21.7664 16.8569 21.9069 16.7161C22.0473 16.5752 22.2378 16.4961 22.4364 16.4961C22.535 16.4958 22.6326 16.515 22.7238 16.5526C22.8149 16.5902 22.8977 16.6455 22.9675 16.7153C23.0373 16.7851 23.0926 16.868 23.1304 16.9592C23.1682 17.0505 23.1876 17.1483 23.1876 17.2472Z" fill="white"/>
<path d="M12.9622 19.0951C12.9625 19.194 12.9433 19.2919 12.9058 19.3832C12.8683 19.4746 12.8132 19.5577 12.7436 19.6277C12.674 19.6977 12.5914 19.7532 12.5003 19.7911C12.4093 19.829 12.3117 19.8485 12.2132 19.8485C12.015 19.8473 11.8253 19.7673 11.6857 19.6261C11.5462 19.4849 11.4682 19.2939 11.4688 19.0951C11.4685 18.9961 11.4877 18.898 11.5253 18.8065C11.563 18.715 11.6183 18.6318 11.6881 18.5618C11.7579 18.4918 11.8409 18.4363 11.9321 18.3985C12.0234 18.3608 12.1212 18.3415 12.22 18.3418C12.3185 18.3418 12.4161 18.3613 12.5071 18.3992C12.5981 18.4371 12.6808 18.4926 12.7503 18.5626C12.8199 18.6326 12.875 18.7156 12.9125 18.807C12.95 18.8984 12.9692 18.9963 12.9689 19.0951" fill="white"/>
<path d="M14.6694 19.0968C14.6694 19.2966 14.5902 19.4882 14.4494 19.6295C14.3085 19.7707 14.1174 19.8501 13.9182 19.8501C13.8197 19.8504 13.722 19.8312 13.6309 19.7936C13.5398 19.756 13.4569 19.7007 13.3872 19.6309C13.3174 19.5612 13.262 19.4783 13.2242 19.387C13.1864 19.2957 13.167 19.1979 13.167 19.099C13.1667 19 13.1859 18.9019 13.2236 18.8104C13.2612 18.7189 13.3165 18.6357 13.3864 18.5657C13.4562 18.4957 13.5391 18.4402 13.6304 18.4024C13.7216 18.3647 13.8195 18.3454 13.9182 18.3457C14.1174 18.3457 14.3085 18.4251 14.4494 18.5664C14.5902 18.7076 14.6694 18.8992 14.6694 19.099" fill="white"/>
<path d="M16.3712 19.0968C16.3712 19.2966 16.2921 19.4882 16.1512 19.6295C16.0103 19.7707 15.8193 19.8501 15.62 19.8501C15.4214 19.8501 15.2309 19.771 15.0905 19.6301C14.95 19.4893 14.8711 19.2982 14.8711 19.099C14.8708 19.0002 14.89 18.9023 14.9275 18.8109C14.965 18.7195 15.0201 18.6365 15.0897 18.5665C15.1592 18.4965 15.2419 18.441 15.3329 18.4031C15.4239 18.3652 15.5215 18.3457 15.62 18.3457C15.8191 18.3463 16.0098 18.4259 16.1506 18.567C16.2913 18.7082 16.3707 18.8994 16.3712 19.099" fill="white"/>
<path d="M18.075 19.0951C18.0753 19.1947 18.0558 19.2934 18.0178 19.3853C17.9797 19.4773 17.9238 19.5608 17.8533 19.6309C17.7827 19.701 17.699 19.7563 17.6069 19.7937C17.5149 19.831 17.4163 19.8497 17.317 19.8485C17.2188 19.8485 17.1215 19.829 17.0308 19.7913C16.94 19.7535 16.8576 19.6981 16.7882 19.6283C16.7189 19.5586 16.6639 19.4758 16.6265 19.3846C16.5891 19.2935 16.57 19.1959 16.5703 19.0974C16.5695 18.9985 16.5881 18.9004 16.6252 18.8088C16.6624 18.7171 16.7172 18.6338 16.7866 18.5635C16.8561 18.4933 16.9387 18.4375 17.0297 18.3994C17.1208 18.3614 17.2184 18.3418 17.317 18.3418C17.4158 18.3415 17.5136 18.3608 17.6049 18.3985C17.6961 18.4363 17.7791 18.4918 17.8489 18.5618C17.9187 18.6318 17.974 18.715 18.0117 18.8065C18.0493 18.898 18.0685 18.9961 18.0682 19.0951" fill="white"/>
<path d="M19.792 19.0949C19.792 19.1948 19.7722 19.2937 19.7337 19.3858C19.6953 19.478 19.6389 19.5615 19.568 19.6316C19.497 19.7017 19.4129 19.757 19.3204 19.7942C19.228 19.8314 19.1291 19.8497 19.0295 19.8482C18.8307 19.8482 18.6399 19.7692 18.4991 19.6284C18.3583 19.4876 18.2789 19.2966 18.2783 19.0972C18.2789 18.8976 18.3582 18.7063 18.499 18.5651C18.6397 18.424 18.8305 18.3444 19.0295 18.3438C19.1289 18.3423 19.2276 18.3607 19.3199 18.3977C19.4122 18.4348 19.4963 18.4898 19.5672 18.5597C19.6381 18.6295 19.6945 18.7128 19.7331 18.8047C19.7717 18.8966 19.7917 18.9952 19.792 19.0949Z" fill="white"/>
<path d="M21.4833 19.0968C21.4835 19.1956 21.4644 19.2935 21.4269 19.3849C21.3894 19.4763 21.3343 19.5593 21.2647 19.6293C21.1951 19.6993 21.1124 19.7548 21.0214 19.7927C20.9304 19.8306 20.8328 19.8501 20.7343 19.8501C20.5357 19.8501 20.3452 19.771 20.2047 19.6301C20.0643 19.4893 19.9854 19.2982 19.9854 19.099C19.9851 19.0002 20.0042 18.9023 20.0417 18.8109C20.0792 18.7195 20.1343 18.6365 20.2039 18.5665C20.2735 18.4965 20.3562 18.441 20.4472 18.4031C20.5382 18.3652 20.6358 18.3457 20.7343 18.3457C20.8328 18.3457 20.9304 18.3652 21.0214 18.4031C21.1124 18.441 21.1951 18.4965 21.2647 18.5665C21.3343 18.6365 21.3894 18.7195 21.4269 18.8109C21.4644 18.9023 21.4835 19.0002 21.4833 19.099" fill="white"/>
<path d="M23.1877 19.0951C23.1877 19.194 23.1682 19.2918 23.1304 19.3831C23.0926 19.4743 23.0373 19.5572 22.9675 19.627C22.8977 19.6968 22.8149 19.7521 22.7238 19.7897C22.6326 19.8273 22.535 19.8465 22.4365 19.8462C22.2378 19.8462 22.0473 19.7671 21.9069 19.6262C21.7664 19.4854 21.6875 19.2943 21.6875 19.0951C21.6872 18.9963 21.7064 18.8984 21.7439 18.807C21.7814 18.7156 21.8365 18.6326 21.9061 18.5626C21.9756 18.4926 22.0583 18.4371 22.1493 18.3992C22.2403 18.3613 22.3379 18.3418 22.4365 18.3418C22.5352 18.3415 22.633 18.3608 22.7243 18.3985C22.8155 18.4363 22.8985 18.4918 22.9683 18.5618C23.0381 18.6318 23.0934 18.715 23.1311 18.8065C23.1687 18.898 23.1879 18.9961 23.1877 19.0951Z" fill="white"/>
<path d="M14.6694 20.9389C14.6694 21.0377 14.6499 21.1356 14.6122 21.2268C14.5744 21.3181 14.519 21.401 14.4492 21.4708C14.3795 21.5405 14.2966 21.5958 14.2055 21.6334C14.1144 21.671 14.0167 21.6903 13.9182 21.69C13.8196 21.6906 13.7218 21.6715 13.6305 21.634C13.5393 21.5965 13.4563 21.5413 13.3865 21.4714C13.3166 21.4016 13.2613 21.3186 13.2236 21.2272C13.1859 21.1358 13.1667 21.0378 13.167 20.9389C13.1667 20.8399 13.1859 20.7418 13.2236 20.6502C13.2612 20.5587 13.3165 20.4755 13.3864 20.4055C13.4562 20.3355 13.5391 20.28 13.6304 20.2423C13.7216 20.2045 13.8195 20.1853 13.9182 20.1856C14.1174 20.1856 14.3085 20.2649 14.4494 20.4062C14.5902 20.5475 14.6694 20.7391 14.6694 20.9389Z" fill="white"/>
<path d="M16.3712 20.9389C16.3706 21.1383 16.2912 21.3293 16.1504 21.4701C16.0096 21.6109 15.8189 21.69 15.62 21.69C15.5216 21.6903 15.4241 21.671 15.3331 21.6334C15.2421 21.5958 15.1594 21.5404 15.0898 21.4706C15.0202 21.4008 14.965 21.3179 14.9275 21.2267C14.89 21.1354 14.8708 21.0376 14.8711 20.9389C14.8708 20.8401 14.89 20.7421 14.9275 20.6508C14.965 20.5594 15.0201 20.4763 15.0897 20.4063C15.1592 20.3363 15.2419 20.2808 15.3329 20.2429C15.4239 20.205 15.5215 20.1855 15.62 20.1855C15.8191 20.1861 16.0098 20.2657 16.1506 20.4068C16.2913 20.548 16.3707 20.7393 16.3712 20.9389Z" fill="white"/>
<path d="M18.075 20.9389C18.0753 21.0384 18.0558 21.1369 18.0177 21.2288C17.9796 21.3206 17.9237 21.4039 17.8531 21.4739C17.7825 21.5438 17.6988 21.5989 17.6068 21.636C17.5147 21.6731 17.4162 21.6915 17.317 21.69C17.2187 21.6903 17.1213 21.671 17.0304 21.6334C16.9395 21.5957 16.857 21.5403 16.7876 21.4705C16.7181 21.4007 16.6632 21.3177 16.6259 21.2265C16.5886 21.1352 16.5697 21.0375 16.5703 20.9389C16.5697 20.8402 16.5886 20.7423 16.6259 20.6509C16.6631 20.5596 16.718 20.4765 16.7874 20.4065C16.8568 20.3365 16.9393 20.2809 17.0302 20.243C17.1211 20.2051 17.2186 20.1855 17.317 20.1856C17.4158 20.1853 17.5136 20.2045 17.6048 20.2423C17.6961 20.28 17.7791 20.3355 17.8489 20.4055C17.9187 20.4755 17.974 20.5587 18.0116 20.6502C18.0493 20.7418 18.0685 20.8399 18.0682 20.9389" fill="white"/>
<path d="M19.7905 20.9389C19.7905 21.0377 19.771 21.1356 19.7333 21.2268C19.6955 21.3181 19.6401 21.401 19.5703 21.4708C19.5005 21.5405 19.4177 21.5958 19.3266 21.6334C19.2355 21.671 19.1378 21.6903 19.0393 21.69C18.8404 21.69 18.6497 21.6109 18.5089 21.4701C18.3681 21.3293 18.2887 21.1383 18.2881 20.9389C18.2887 20.7393 18.368 20.548 18.5088 20.4068C18.6495 20.2657 18.8402 20.1861 19.0393 20.1855C19.2385 20.1855 19.4296 20.2649 19.5705 20.4062C19.7113 20.5475 19.7905 20.7391 19.7905 20.9389Z" fill="white"/>
<path d="M21.4833 20.9389C21.4835 21.0376 21.4644 21.1354 21.4268 21.2267C21.3893 21.3179 21.3342 21.4008 21.2646 21.4706C21.1949 21.5404 21.1123 21.5958 21.0213 21.6334C20.9303 21.671 20.8327 21.6903 20.7343 21.69C20.6359 21.6903 20.5383 21.671 20.4473 21.6334C20.3563 21.5958 20.2737 21.5404 20.2041 21.4706C20.1344 21.4008 20.0793 21.3179 20.0418 21.2267C20.0042 21.1354 19.9851 21.0376 19.9854 20.9389C19.9851 20.8401 20.0042 20.7421 20.0417 20.6508C20.0792 20.5594 20.1343 20.4763 20.2039 20.4063C20.2735 20.3363 20.3562 20.2808 20.4472 20.2429C20.5382 20.205 20.6358 20.1855 20.7343 20.1855C20.8328 20.1855 20.9304 20.205 21.0214 20.2429C21.1124 20.2808 21.1951 20.3363 21.2647 20.4063C21.3343 20.4763 21.3894 20.5594 21.4269 20.6508C21.4644 20.7421 21.4835 20.8401 21.4833 20.9389Z" fill="white"/>
<path d="M23.1877 20.9389C23.1879 21.0378 23.1687 21.1358 23.131 21.2272C23.0934 21.3186 23.038 21.4016 22.9682 21.4714C22.8983 21.5413 22.8154 21.5965 22.7241 21.634C22.6328 21.6715 22.5351 21.6906 22.4365 21.69C22.338 21.6903 22.2405 21.671 22.1495 21.6334C22.0585 21.5958 21.9758 21.5404 21.9062 21.4706C21.8366 21.4008 21.7814 21.3179 21.7439 21.2267C21.7064 21.1354 21.6872 21.0376 21.6875 20.9389C21.6872 20.8401 21.7064 20.7422 21.7439 20.6508C21.7814 20.5594 21.8365 20.4763 21.9061 20.4063C21.9756 20.3364 22.0583 20.2808 22.1493 20.2429C22.2403 20.205 22.3379 20.1855 22.4365 20.1856C22.5352 20.1853 22.633 20.2045 22.7243 20.2423C22.8155 20.28 22.8985 20.3355 22.9683 20.4055C23.0381 20.4755 23.0934 20.5587 23.1311 20.6502C23.1687 20.7418 23.1879 20.8399 23.1877 20.9389Z" fill="white"/>
<path d="M24.8918 20.9389C24.8918 21.0377 24.8723 21.1356 24.8345 21.2268C24.7967 21.3181 24.7414 21.401 24.6716 21.4708C24.6018 21.5405 24.519 21.5958 24.4279 21.6334C24.3367 21.671 24.2391 21.6903 24.1406 21.69C24.0421 21.6903 23.9446 21.671 23.8536 21.6334C23.7626 21.5958 23.6799 21.5404 23.6103 21.4706C23.5407 21.4008 23.4855 21.3179 23.448 21.2267C23.4105 21.1354 23.3913 21.0376 23.3916 20.9389C23.3913 20.8401 23.4105 20.7421 23.448 20.6508C23.4855 20.5594 23.5406 20.4763 23.6102 20.4063C23.6797 20.3363 23.7624 20.2808 23.8534 20.2429C23.9444 20.205 24.042 20.1855 24.1406 20.1855C24.3398 20.1855 24.5309 20.2649 24.6717 20.4062C24.8126 20.5475 24.8918 20.7391 24.8918 20.9389Z" fill="white"/>
<path d="M16.3712 22.7804C16.3706 22.98 16.2913 23.1713 16.1506 23.3124C16.0098 23.4535 15.8191 23.5331 15.62 23.5337C15.4212 23.5331 15.2307 23.4535 15.0903 23.3123C14.9499 23.1711 14.8711 22.9798 14.8711 22.7804C14.8711 22.5812 14.95 22.3901 15.0905 22.2493C15.2309 22.1084 15.4214 22.0293 15.62 22.0293C15.8189 22.0293 16.0096 22.1083 16.1504 22.2491C16.2912 22.3899 16.3706 22.581 16.3712 22.7804Z" fill="white"/>
<path d="M18.0761 22.7818C18.0767 22.8817 18.0574 22.9807 18.0195 23.073C17.9816 23.1654 17.9258 23.2493 17.8553 23.3198C17.7847 23.3903 17.7009 23.4461 17.6087 23.4838C17.5165 23.5215 17.4177 23.5405 17.3181 23.5396C17.1199 23.5372 16.9306 23.4561 16.7919 23.3141C16.6532 23.172 16.5764 22.9806 16.5782 22.7818C16.5787 22.5847 16.6567 22.3959 16.7953 22.2561C16.9338 22.1164 17.1216 22.037 17.3181 22.0352C17.4168 22.034 17.5148 22.0524 17.6064 22.0893C17.6981 22.1263 17.7815 22.181 17.8519 22.2504C17.9224 22.3198 17.9784 22.4024 18.0169 22.4936C18.0554 22.5848 18.0755 22.6828 18.0761 22.7818Z" fill="white"/>
<path d="M19.792 22.7805C19.7914 22.9801 19.712 23.1713 19.5713 23.3125C19.4305 23.4536 19.2398 23.5332 19.0408 23.5338C18.9413 23.535 18.8425 23.5164 18.7502 23.4791C18.6579 23.4418 18.5739 23.3865 18.503 23.3165C18.4321 23.2464 18.3757 23.163 18.3372 23.071C18.2986 22.979 18.2786 22.8803 18.2783 22.7805C18.2789 22.581 18.3583 22.39 18.4991 22.2492C18.6399 22.1084 18.8307 22.0294 19.0295 22.0294C19.1289 22.0279 19.2276 22.0462 19.3199 22.0832C19.4122 22.1203 19.4963 22.1753 19.5672 22.2452C19.6381 22.3151 19.6945 22.3984 19.7331 22.4902C19.7717 22.5821 19.7917 22.6808 19.792 22.7805Z" fill="white"/>
<path d="M21.4833 22.7804C21.4833 22.9798 21.4044 23.1711 21.264 23.3123C21.1236 23.4535 20.9331 23.5331 20.7343 23.5337C20.5355 23.5331 20.345 23.4535 20.2046 23.3123C20.0642 23.1711 19.9854 22.9798 19.9854 22.7804C19.9854 22.5812 20.0643 22.3901 20.2047 22.2493C20.3452 22.1084 20.5357 22.0293 20.7343 22.0293C20.9329 22.0293 21.1234 22.1084 21.2639 22.2493C21.4043 22.3901 21.4833 22.5812 21.4833 22.7804Z" fill="white"/>
<path d="M23.1876 22.7804C23.1876 22.9802 23.1085 23.1718 22.9676 23.3131C22.8267 23.4543 22.6357 23.5337 22.4364 23.5337C22.2376 23.5331 22.0471 23.4535 21.9067 23.3123C21.7663 23.171 21.6875 22.9798 21.6875 22.7804C21.6875 22.5812 21.7664 22.3901 21.9069 22.2493C22.0473 22.1084 22.2378 22.0293 22.4364 22.0293C22.535 22.029 22.6326 22.0482 22.7238 22.0858C22.8149 22.1234 22.8977 22.1787 22.9675 22.2485C23.0373 22.3183 23.0926 22.4012 23.1304 22.4924C23.1682 22.5837 23.1876 22.6815 23.1876 22.7804Z" fill="white"/>
<path d="M24.892 22.7804C24.8915 22.98 24.8121 23.1713 24.6714 23.3124C24.5306 23.4535 24.3399 23.5331 24.1408 23.5337C23.9416 23.5337 23.7505 23.4543 23.6097 23.3131C23.4688 23.1718 23.3896 22.9802 23.3896 22.7804C23.3896 22.5812 23.4686 22.3901 23.609 22.2493C23.7495 22.1084 23.94 22.0293 24.1386 22.0293C24.3374 22.0293 24.5282 22.1083 24.669 22.2491C24.8098 22.3899 24.8892 22.581 24.8898 22.7804" fill="white"/>
<path d="M26.5968 22.7804C26.5968 22.9802 26.5177 23.1718 26.3768 23.3131C26.2359 23.4543 26.0449 23.5337 25.8456 23.5337C25.6468 23.5331 25.4563 23.4535 25.3159 23.3123C25.1755 23.171 25.0967 22.9798 25.0967 22.7804C25.0973 22.5814 25.1764 22.3907 25.3167 22.2499C25.457 22.1092 25.6472 22.0299 25.8456 22.0293C25.9442 22.029 26.0418 22.0482 26.1329 22.0858C26.2241 22.1234 26.3069 22.1787 26.3767 22.2485C26.4465 22.3183 26.5018 22.4012 26.5396 22.4924C26.5774 22.5837 26.5968 22.6815 26.5968 22.7804Z" fill="white"/>
<path d="M28.299 22.7804C28.299 22.9798 28.2201 23.171 28.0797 23.3123C27.9394 23.4535 27.7489 23.5331 27.55 23.5337C27.3508 23.5337 27.1597 23.4543 27.0188 23.3131C26.878 23.1718 26.7988 22.9802 26.7988 22.7804C26.7988 22.6815 26.8183 22.5837 26.8561 22.4924C26.8938 22.4012 26.9492 22.3183 27.019 22.2485C27.0888 22.1787 27.1716 22.1234 27.2627 22.0858C27.3539 22.0482 27.4515 22.029 27.55 22.0293C27.7485 22.0299 27.9386 22.1092 28.079 22.2499C28.2193 22.3907 28.2984 22.5814 28.299 22.7804Z" fill="white"/>
<path d="M21.4833 6.24192C21.4827 6.44072 21.4035 6.63118 21.2631 6.77155C21.1227 6.91192 20.9325 6.99074 20.7343 6.99074C20.5357 6.99074 20.3452 6.91161 20.2047 6.77075C20.0643 6.6299 19.9854 6.43886 19.9854 6.23967C19.9851 6.14084 20.0042 6.04293 20.0417 5.95154C20.0792 5.86016 20.1343 5.7771 20.2039 5.70711C20.2735 5.63713 20.3562 5.58161 20.4472 5.54372C20.5382 5.50583 20.6358 5.48633 20.7343 5.48633C20.8328 5.48633 20.9304 5.50583 21.0214 5.54372C21.1124 5.58161 21.1951 5.63713 21.2647 5.70711C21.3343 5.7771 21.3894 5.86016 21.4269 5.95154C21.4644 6.04293 21.4835 6.14084 21.4833 6.23967" fill="white"/>
<path d="M22.6884 6.43041C22.6884 6.5638 22.6355 6.69174 22.5415 6.78606C22.4474 6.88039 22.3198 6.93338 22.1868 6.93338C22.121 6.93338 22.0559 6.92035 21.9952 6.89505C21.9345 6.86975 21.8793 6.83266 21.8329 6.78592C21.7866 6.73919 21.7498 6.68373 21.7249 6.62272C21.6999 6.56171 21.6872 6.49635 21.6875 6.43041C21.6881 6.29779 21.7409 6.17077 21.8344 6.07699C21.9279 5.98322 22.0546 5.93028 22.1868 5.92969C22.3194 5.92969 22.4467 5.98236 22.5407 6.0762C22.6347 6.17004 22.6878 6.2974 22.6884 6.43041Z" fill="white"/>
<path d="M19.7905 8.08702C19.7899 8.28663 19.7106 8.4779 19.5698 8.61905C19.4291 8.7602 19.2383 8.83975 19.0393 8.84035C18.8402 8.83975 18.6495 8.7602 18.5088 8.61905C18.368 8.4779 18.2887 8.28663 18.2881 8.08702C18.2893 7.8878 18.3689 7.6971 18.5096 7.55644C18.6502 7.41578 18.8406 7.33653 19.0393 7.33594C19.2381 7.33594 19.4289 7.415 19.5697 7.55579C19.7105 7.69658 19.7899 7.88761 19.7905 8.08702Z" fill="white"/>
<path d="M21.4833 8.08702C21.4833 8.28642 21.4044 8.4777 21.264 8.61891C21.1236 8.76012 20.9331 8.83975 20.7343 8.84035C20.5355 8.83975 20.345 8.76012 20.2046 8.61891C20.0642 8.4777 19.9854 8.28642 19.9854 8.08702C19.9859 7.888 20.065 7.69731 20.2054 7.55659C20.3457 7.41586 20.5359 7.33653 20.7343 7.33594C20.9328 7.33653 21.1229 7.41586 21.2632 7.55659C21.4036 7.69731 21.4827 7.888 21.4833 8.08702Z" fill="white"/>
<path d="M23.1876 8.08702C23.1876 8.28681 23.1085 8.47842 22.9676 8.6197C22.8267 8.76098 22.6357 8.84035 22.4364 8.84035C22.2376 8.83975 22.0471 8.76012 21.9067 8.61891C21.7663 8.4777 21.6875 8.28642 21.6875 8.08702C21.6881 7.888 21.7672 7.69731 21.9075 7.55659C22.0478 7.41586 22.238 7.33653 22.4364 7.33594C22.6353 7.33594 22.826 7.415 22.9668 7.55579C23.1076 7.69658 23.1871 7.88761 23.1876 8.08702Z" fill="white"/>
<path d="M16.0586 10.0893C16.0589 10.1677 16.0438 10.2454 16.0141 10.3179C15.9844 10.3904 15.9407 10.4563 15.8855 10.5118C15.8303 10.5673 15.7648 10.6114 15.6926 10.6415C15.6204 10.6715 15.543 10.687 15.4649 10.687C15.3072 10.6864 15.1562 10.6232 15.0449 10.5111C14.9336 10.3991 14.8711 10.2474 14.8711 10.0893C14.8711 10.0112 14.8865 9.93389 14.9163 9.86177C14.9462 9.78966 14.99 9.72416 15.0451 9.66905C15.1003 9.61394 15.1658 9.5703 15.2378 9.54062C15.3098 9.51094 15.387 9.49581 15.4649 9.49611C15.5428 9.49551 15.6201 9.51043 15.6923 9.54001C15.7644 9.56958 15.83 9.61321 15.8852 9.66838C15.9405 9.72356 15.9842 9.78917 16.014 9.86142C16.0437 9.93368 16.0589 10.0111 16.0586 10.0893Z" fill="white"/>
<path d="M18.0761 9.92375C18.0773 10.024 18.0585 10.1235 18.0209 10.2164C17.9833 10.3093 17.9275 10.3937 17.8569 10.4647C17.7863 10.5357 17.7023 10.5919 17.6098 10.6299C17.5173 10.6679 17.4181 10.687 17.3182 10.6861C17.2196 10.6849 17.1223 10.6643 17.0317 10.6253C16.9411 10.5863 16.8591 10.5298 16.7904 10.459C16.7216 10.3881 16.6675 10.3044 16.6311 10.2126C16.5947 10.1207 16.5767 10.0226 16.5782 9.92375C16.58 9.72749 16.6585 9.53978 16.7969 9.40099C16.9353 9.26221 17.1225 9.18346 17.3182 9.1817C17.4165 9.1805 17.5141 9.19876 17.6055 9.23541C17.6968 9.27205 17.78 9.32638 17.8504 9.39529C17.9208 9.4642 17.9769 9.54633 18.0157 9.63701C18.0544 9.72768 18.0749 9.82512 18.0761 9.92375Z" fill="white"/>
<path d="M19.792 9.92303C19.7914 10.1226 19.712 10.3139 19.5713 10.4551C19.4305 10.5962 19.2398 10.6758 19.0408 10.6764C18.9413 10.6776 18.8425 10.659 18.7502 10.6217C18.6579 10.5844 18.5739 10.5291 18.503 10.4591C18.4321 10.389 18.3757 10.3056 18.3372 10.2136C18.2986 10.1216 18.2786 10.0228 18.2783 9.92303C18.2789 9.72363 18.3583 9.53259 18.4991 9.3918C18.6399 9.25101 18.8307 9.17196 19.0295 9.17196C19.1289 9.17047 19.2276 9.18877 19.3199 9.22582C19.4122 9.26287 19.4963 9.31792 19.5672 9.38778C19.6381 9.45765 19.6945 9.54093 19.7331 9.63281C19.7717 9.72469 19.7917 9.82334 19.792 9.92303Z" fill="white"/>
<path d="M21.4833 9.92295C21.4833 10.1224 21.4044 10.3136 21.264 10.4548C21.1236 10.5961 20.9331 10.6757 20.7343 10.6763C20.5355 10.6757 20.345 10.5961 20.2046 10.4548C20.0642 10.3136 19.9854 10.1224 19.9854 9.92295C19.9854 9.72375 20.0643 9.53271 20.2047 9.39185C20.3452 9.251 20.5357 9.17188 20.7343 9.17188C20.9329 9.17188 21.1234 9.251 21.2639 9.39185C21.4043 9.53271 21.4833 9.72375 21.4833 9.92295Z" fill="white"/>
<path d="M23.1876 9.92295C23.1876 10.1227 23.1085 10.3144 22.9676 10.4556C22.8267 10.5969 22.6357 10.6763 22.4364 10.6763C22.2376 10.6757 22.0471 10.5961 21.9067 10.4548C21.7663 10.3136 21.6875 10.1224 21.6875 9.92295C21.6875 9.72375 21.7664 9.53271 21.9069 9.39186C22.0473 9.251 22.2378 9.17188 22.4364 9.17188C22.535 9.17158 22.6326 9.19078 22.7238 9.2284C22.8149 9.26601 22.8977 9.32129 22.9675 9.39106C23.0373 9.46083 23.0926 9.54373 23.1304 9.63501C23.1682 9.72628 23.1876 9.82413 23.1876 9.92295Z" fill="white"/>
<path d="M24.892 9.92295C24.8915 10.1226 24.8121 10.3138 24.6714 10.455C24.5306 10.5961 24.3399 10.6757 24.1408 10.6763C23.9416 10.6763 23.7505 10.5969 23.6097 10.4556C23.4688 10.3144 23.3896 10.1227 23.3896 9.92295C23.3896 9.72375 23.4686 9.53271 23.609 9.39185C23.7495 9.251 23.94 9.17188 24.1386 9.17188C24.3374 9.17187 24.5282 9.25093 24.669 9.39172C24.8098 9.53251 24.8892 9.72354 24.8898 9.92295" fill="white"/>
<path d="M26.5968 9.92295C26.5968 10.1227 26.5177 10.3144 26.3768 10.4556C26.2359 10.5969 26.0449 10.6763 25.8456 10.6763C25.6468 10.6757 25.4563 10.5961 25.3159 10.4548C25.1755 10.3136 25.0967 10.1224 25.0967 9.92295C25.0973 9.72394 25.1764 9.53324 25.3167 9.39252C25.457 9.25179 25.6472 9.17247 25.8456 9.17188C25.9442 9.17158 26.0418 9.19078 26.1329 9.2284C26.2241 9.26601 26.3069 9.32129 26.3767 9.39106C26.4465 9.46083 26.5018 9.54373 26.5396 9.63501C26.5774 9.72628 26.5968 9.82413 26.5968 9.92295Z" fill="white"/>
<path d="M28.299 9.92295C28.299 10.1224 28.2201 10.3136 28.0797 10.4548C27.9394 10.5961 27.7489 10.6757 27.55 10.6763C27.3508 10.6763 27.1597 10.5969 27.0188 10.4556C26.878 10.3144 26.7988 10.1227 26.7988 9.92295C26.7988 9.82413 26.8183 9.72628 26.8561 9.63501C26.8938 9.54373 26.9492 9.46083 27.019 9.39106C27.0888 9.32129 27.1716 9.26601 27.2627 9.2284C27.3539 9.19078 27.4515 9.17158 27.55 9.17188C27.7485 9.17247 27.9386 9.25179 28.079 9.39252C28.2193 9.53324 28.2984 9.72394 28.299 9.92295Z" fill="white"/>
<path d="M11.256 11.7784C11.256 11.8772 11.2366 11.9751 11.1988 12.0664C11.161 12.1576 11.1056 12.2405 11.0358 12.3103C10.9661 12.3801 10.8832 12.4354 10.7921 12.473C10.701 12.5106 10.6034 12.5298 10.5048 12.5295C10.3064 12.5289 10.1162 12.4496 9.97588 12.3089C9.83555 12.1681 9.75645 11.9774 9.75586 11.7784C9.75645 11.5794 9.83555 11.3887 9.97588 11.248C10.1162 11.1073 10.3064 11.0279 10.5048 11.0273C10.6034 11.0271 10.701 11.0463 10.7921 11.0839C10.8832 11.1215 10.9661 11.1768 11.0358 11.2465C11.1056 11.3163 11.161 11.3992 11.1988 11.4905C11.2366 11.5817 11.256 11.6796 11.256 11.7784Z" fill="white"/>
<path d="M9.75733 12.8726C9.75674 12.9993 9.70631 13.1206 9.61702 13.2101C9.52773 13.2996 9.4068 13.3502 9.28052 13.3508C9.15406 13.3508 9.03278 13.3004 8.94337 13.2108C8.85395 13.1211 8.80371 12.9995 8.80371 12.8726C8.80665 12.7478 8.85818 12.629 8.94728 12.5418C9.03638 12.4546 9.15599 12.4057 9.28052 12.4058C9.4068 12.4064 9.52773 12.4569 9.61702 12.5465C9.70631 12.636 9.75674 12.7573 9.75733 12.8839" fill="white"/>
<path d="M9.63916 11.7667C9.63916 11.8936 9.58893 12.0152 9.49951 12.1049C9.41009 12.1945 9.28881 12.2449 9.16236 12.2449C9.03608 12.2443 8.91515 12.1937 8.82585 12.1042C8.73656 12.0147 8.68614 11.8934 8.68555 11.7667C8.68614 11.6401 8.73656 11.5188 8.82585 11.4293C8.91515 11.3397 9.03608 11.2892 9.16236 11.2886C9.28881 11.2886 9.41009 11.339 9.49951 11.4286C9.58893 11.5183 9.63916 11.6399 9.63916 11.7667Z" fill="white"/>
<path d="M29.4722 12.0755C29.4722 12.2029 29.4217 12.3251 29.3319 12.4152C29.242 12.5053 29.1202 12.5559 28.9931 12.5559C28.9304 12.5559 28.8684 12.5435 28.8105 12.5193C28.7526 12.4951 28.7001 12.4596 28.656 12.415C28.6118 12.3703 28.577 12.3173 28.5534 12.259C28.5298 12.2008 28.518 12.1384 28.5186 12.0755C28.5183 12.0129 28.5303 11.9509 28.5541 11.8931C28.5778 11.8352 28.6128 11.7826 28.6569 11.7383C28.701 11.6941 28.7535 11.659 28.8112 11.6352C28.8689 11.6114 28.9307 11.5993 28.9931 11.5996C29.1194 11.5996 29.2406 11.6496 29.3303 11.7387C29.42 11.8279 29.471 11.9489 29.4722 12.0755Z" fill="white"/>
<path d="M29.1404 9.61534C29.1398 9.69711 29.1071 9.77537 29.0495 9.83319C28.9918 9.89101 28.9138 9.92375 28.8322 9.92434C28.7509 9.92375 28.6731 9.89093 28.6158 9.83305C28.5585 9.77516 28.5264 9.69691 28.5264 9.61534C28.5264 9.57506 28.5343 9.53517 28.5497 9.49796C28.565 9.46074 28.5876 9.42692 28.616 9.39844C28.6444 9.36996 28.6781 9.34736 28.7152 9.33195C28.7523 9.31653 28.7921 9.30859 28.8322 9.30859C28.9136 9.30859 28.9916 9.34084 29.0493 9.3983C29.1071 9.45576 29.1398 9.53378 29.1404 9.61534Z" fill="white"/>
<path d="M28.4028 21.7169C28.4028 21.7989 28.3703 21.8775 28.3125 21.9354C28.2547 21.9934 28.1764 22.0259 28.0946 22.0259C28.0137 22.0247 27.9365 21.9916 27.8797 21.9338C27.8229 21.876 27.791 21.7981 27.791 21.7169C27.791 21.6359 27.8229 21.5583 27.8798 21.5008C27.9367 21.4433 28.0139 21.4108 28.0946 21.4102C28.135 21.4099 28.175 21.4176 28.2124 21.4329C28.2498 21.4481 28.2837 21.4707 28.3124 21.4992C28.341 21.5277 28.3638 21.5616 28.3793 21.599C28.3948 21.6364 28.4028 21.6764 28.4028 21.7169Z" fill="white"/>
<path d="M30.5574 25.4337C30.5574 25.5157 30.5249 25.5942 30.4671 25.6522C30.4093 25.7101 30.331 25.7427 30.2492 25.7427C30.2089 25.7427 30.1689 25.7347 30.1317 25.7191C30.0944 25.7036 30.0606 25.6808 30.0322 25.6521C30.0037 25.6233 29.9812 25.5893 29.966 25.5518C29.9508 25.5143 29.9431 25.4742 29.9434 25.4337C29.9431 25.3933 29.9508 25.3533 29.966 25.316C29.9813 25.2786 30.0038 25.2447 30.0323 25.2161C30.0608 25.1876 30.0946 25.165 30.1318 25.1497C30.1691 25.1344 30.209 25.1267 30.2492 25.127C30.2896 25.1267 30.3296 25.1344 30.367 25.1497C30.4044 25.1649 30.4383 25.1875 30.467 25.216C30.4956 25.2445 30.5184 25.2784 30.5339 25.3158C30.5494 25.3532 30.5574 25.3932 30.5574 25.4337Z" fill="white"/>
<path d="M30.7269 29.6703C30.7266 29.7109 30.7183 29.751 30.7026 29.7884C30.6868 29.8258 30.6639 29.8597 30.6351 29.8882C30.6062 29.9167 30.5721 29.9392 30.5346 29.9544C30.4971 29.9697 30.457 29.9774 30.4165 29.9771C30.3762 29.9774 30.3362 29.9697 30.2988 29.9544C30.2614 29.9391 30.2274 29.9166 30.1988 29.888C30.1701 29.8595 30.1474 29.8256 30.1319 29.7883C30.1164 29.7509 30.1084 29.7108 30.1084 29.6703C30.1084 29.5884 30.1409 29.5098 30.1986 29.4518C30.2564 29.3939 30.3348 29.3613 30.4165 29.3613C30.4572 29.361 30.4975 29.3688 30.5351 29.3842C30.5728 29.3996 30.607 29.4223 30.6359 29.451C30.6647 29.4798 30.6876 29.5139 30.7032 29.5516C30.7189 29.5892 30.7269 29.6296 30.7269 29.6703Z" fill="white"/>
<path d="M30.5574 34.7856C30.5571 34.8258 30.5489 34.8657 30.5332 34.9028C30.5176 34.9399 30.4948 34.9735 30.4662 35.0018C30.4376 35.0301 30.4037 35.0524 30.3665 35.0676C30.3292 35.0827 30.2894 35.0903 30.2492 35.09C30.2092 35.0903 30.1695 35.0827 30.1324 35.0675C30.0953 35.0523 30.0615 35.03 30.0331 35.0017C30.0047 34.9734 29.9821 34.9397 29.9667 34.9026C29.9513 34.8655 29.9434 34.8257 29.9434 34.7856C29.9431 34.7451 29.9508 34.705 29.966 34.6675C29.9812 34.63 30.0037 34.5959 30.0322 34.5672C30.0606 34.5385 30.0944 34.5157 30.1317 34.5001C30.1689 34.4846 30.2089 34.4766 30.2492 34.4766C30.331 34.4766 30.4093 34.5091 30.4671 34.5671C30.5249 34.625 30.5574 34.7036 30.5574 34.7856Z" fill="white"/>
<path d="M30.8376 33.8732C30.8379 33.9136 30.8302 33.9538 30.815 33.9912C30.7998 34.0287 30.7773 34.0628 30.7489 34.0915C30.7204 34.1202 30.6866 34.143 30.6493 34.1586C30.6121 34.1742 30.5721 34.1822 30.5318 34.1822C30.45 34.1822 30.3717 34.1496 30.3139 34.0917C30.2561 34.0337 30.2236 33.9551 30.2236 33.8732C30.2236 33.8327 30.2316 33.7926 30.2471 33.7553C30.2626 33.7179 30.2854 33.684 30.314 33.6555C30.3427 33.6269 30.3766 33.6044 30.414 33.5891C30.4514 33.5738 30.4914 33.5661 30.5318 33.5664C30.5719 33.5664 30.6117 33.5743 30.6488 33.5898C30.6859 33.6052 30.7196 33.6278 30.7481 33.6563C30.7765 33.6847 30.799 33.7186 30.8144 33.7558C30.8297 33.793 30.8376 33.8329 30.8376 33.8732Z" fill="white"/>
<path d="M28.654 36.7638C28.6543 36.8043 28.6466 36.8444 28.6314 36.8819C28.6162 36.9193 28.5937 36.9534 28.5652 36.9822C28.5368 37.0109 28.503 37.0337 28.4657 37.0492C28.4285 37.0648 28.3885 37.0728 28.3482 37.0728C28.2664 37.0728 28.1881 37.0402 28.1303 36.9823C28.0725 36.9243 28.04 36.8457 28.04 36.7638C28.04 36.7233 28.048 36.6832 28.0635 36.6459C28.079 36.6085 28.1018 36.5746 28.1304 36.5461C28.1591 36.5176 28.193 36.495 28.2304 36.4797C28.2678 36.4645 28.3078 36.4567 28.3482 36.457C28.4293 36.457 28.5071 36.4894 28.5644 36.5469C28.6218 36.6044 28.654 36.6824 28.654 36.7638Z" fill="white"/>
<path d="M9.54024 15.4104C9.53964 15.507 9.50099 15.5993 9.43273 15.6674C9.36446 15.7354 9.27213 15.7736 9.17588 15.7736C9.07964 15.7736 8.9873 15.7354 8.91904 15.6674C8.85077 15.5993 8.81212 15.507 8.81153 15.4104C8.81123 15.3624 8.82045 15.3147 8.83866 15.2703C8.85686 15.2258 8.88369 15.1854 8.91758 15.1514C8.95147 15.1174 8.99176 15.0905 9.0361 15.0723C9.08044 15.054 9.12795 15.0448 9.17588 15.0451C9.27252 15.0451 9.36519 15.0835 9.43352 15.1521C9.50185 15.2206 9.54024 15.3135 9.54024 15.4104Z" fill="white"/>
<path d="M26.8176 8.87486C26.8179 8.92292 26.8087 8.97057 26.7904 9.01504C26.7722 9.0595 26.7454 9.0999 26.7115 9.13389C26.6776 9.16788 26.6373 9.19478 26.593 9.21304C26.5487 9.2313 26.5012 9.24054 26.4532 9.24024C26.4053 9.24054 26.3578 9.2313 26.3134 9.21304C26.2691 9.19478 26.2288 9.16788 26.1949 9.13389C26.161 9.0999 26.1342 9.0595 26.116 9.01504C26.0978 8.97057 26.0886 8.92292 26.0889 8.87486C26.0895 8.77834 26.1281 8.68598 26.1964 8.61794C26.2646 8.5499 26.357 8.51172 26.4532 8.51172C26.5495 8.51172 26.6418 8.5499 26.7101 8.61794C26.7783 8.68598 26.817 8.77834 26.8176 8.87486Z" fill="white"/>
<path d="M25.5161 12.936C25.5155 13.0331 25.4766 13.1261 25.4079 13.1945C25.3393 13.263 25.2464 13.3014 25.1495 13.3014C25.0531 13.3008 24.9607 13.2621 24.8925 13.1937C24.8243 13.1253 24.7857 13.0327 24.7852 12.936C24.7852 12.8389 24.8235 12.7457 24.8917 12.6768C24.96 12.6079 25.0527 12.569 25.1495 12.5684C25.2466 12.569 25.3395 12.6079 25.4081 12.6767C25.4767 12.7455 25.5155 12.8387 25.5161 12.936Z" fill="white"/>
<path d="M18.4886 9.04703C18.4889 9.0951 18.4796 9.14274 18.4614 9.18721C18.4432 9.23168 18.4164 9.27208 18.3825 9.30607C18.3486 9.34006 18.3083 9.36696 18.264 9.38521C18.2197 9.40347 18.1721 9.41272 18.1242 9.41242C18.0286 9.41123 17.9373 9.37213 17.8703 9.30367C17.8033 9.23522 17.766 9.14295 17.7666 9.04703C17.7666 8.95051 17.8047 8.85792 17.8725 8.78946C17.9404 8.721 18.0325 8.68224 18.1287 8.68164C18.2253 8.68164 18.318 8.72014 18.3864 8.78866C18.4547 8.85718 18.4931 8.95012 18.4931 9.04703" fill="white"/>
<path d="M20.0162 6.99206C20.0162 7.08858 19.9781 7.18118 19.9103 7.24964C19.8424 7.3181 19.7503 7.35685 19.6541 7.35745C19.5579 7.35685 19.4658 7.3181 19.3979 7.24964C19.3301 7.18118 19.292 7.08858 19.292 6.99206C19.292 6.94399 19.3015 6.8964 19.32 6.85205C19.3385 6.80769 19.3655 6.76746 19.3996 6.73368C19.4337 6.6999 19.4742 6.67325 19.5186 6.65527C19.5631 6.63729 19.6107 6.62834 19.6586 6.62893C19.7537 6.6307 19.8443 6.66966 19.9111 6.73751C19.9779 6.80536 20.0156 6.89671 20.0162 6.99206Z" fill="white"/>
<path d="M20.3573 5.18765C20.3573 5.28396 20.3192 5.37632 20.2513 5.44442C20.1834 5.51253 20.0912 5.55078 19.9952 5.55078C19.899 5.55079 19.8066 5.51261 19.7384 5.44457C19.6701 5.37653 19.6315 5.28417 19.6309 5.18765C19.6314 5.09093 19.67 4.99834 19.7382 4.92994C19.8064 4.86154 19.8988 4.82286 19.9952 4.82227C20.0915 4.82286 20.1836 4.86162 20.2514 4.93008C20.3192 4.99854 20.3573 5.09114 20.3573 5.18765Z" fill="white"/>
<path d="M19.9897 31.2613C19.9891 31.3584 19.9503 31.4513 19.8816 31.5198C19.8129 31.5882 19.72 31.6267 19.6231 31.6267C19.5265 31.6267 19.4338 31.5882 19.3655 31.5196C19.2972 31.4511 19.2588 31.3582 19.2588 31.2613C19.2591 31.2136 19.2687 31.1664 19.2872 31.1225C19.3057 31.0785 19.3326 31.0387 19.3664 31.0052C19.4003 30.9716 19.4404 30.9451 19.4844 30.9272C19.5284 30.9092 19.5756 30.9001 19.6231 30.9004C19.671 30.9001 19.7184 30.9093 19.7627 30.9273C19.8071 30.9454 19.8474 30.9721 19.8814 31.0058C19.9155 31.0395 19.9426 31.0797 19.9612 31.1239C19.9797 31.1681 19.9894 31.2155 19.9897 31.2635" fill="white"/>
<path d="M18.2167 27.6252C18.2167 27.7217 18.1786 27.8143 18.1108 27.8827C18.0429 27.9512 17.9508 27.99 17.8546 27.9905C17.758 27.9905 17.6653 27.9521 17.597 27.8835C17.5286 27.815 17.4902 27.7221 17.4902 27.6252C17.4902 27.5283 17.5286 27.4353 17.597 27.3668C17.6653 27.2983 17.758 27.2598 17.8546 27.2598C17.9508 27.2604 18.0429 27.2991 18.1108 27.3676C18.1786 27.436 18.2167 27.5286 18.2167 27.6252Z" fill="white"/>
<path d="M11.635 16.3746C11.6344 16.4713 11.5958 16.5639 11.5276 16.6323C11.4594 16.7007 11.3671 16.7394 11.2706 16.7399C11.2227 16.7402 11.1752 16.731 11.1308 16.7127C11.0865 16.6945 11.0462 16.6676 11.0123 16.6336C10.9784 16.5996 10.9516 16.5592 10.9334 16.5147C10.9152 16.4703 10.906 16.4226 10.9063 16.3746C10.9066 16.3269 10.9162 16.2797 10.9347 16.2358C10.9531 16.1918 10.9801 16.152 11.0139 16.1184C11.0477 16.0849 11.0878 16.0584 11.1319 16.0405C11.1759 16.0225 11.2231 16.0134 11.2706 16.0137C11.3669 16.0137 11.4592 16.0519 11.5275 16.1199C11.5957 16.1879 11.6344 16.2803 11.635 16.3768" fill="white"/>
<path d="M14.6174 12.049C14.6174 12.1457 14.5794 12.2386 14.5116 12.3074C14.4438 12.3762 14.3517 12.4154 14.2553 12.4166C14.2071 12.4169 14.1592 12.4076 14.1146 12.3893C14.07 12.3709 14.0295 12.3438 13.9954 12.3096C13.9613 12.2754 13.9343 12.2348 13.916 12.19C13.8977 12.1453 13.8884 12.0974 13.8887 12.049C13.8887 12.0008 13.8982 11.9531 13.9166 11.9086C13.9351 11.8642 13.9621 11.8238 13.9962 11.7898C14.0303 11.7559 14.0707 11.729 14.1152 11.7108C14.1596 11.6925 14.2072 11.6833 14.2553 11.6836C14.3515 11.6842 14.4436 11.723 14.5115 11.7914C14.5793 11.8599 14.6174 11.9525 14.6174 12.049Z" fill="white"/>
<path d="M14.9233 10.9868C14.9222 11.0835 14.883 11.1759 14.8144 11.2438C14.7458 11.3118 14.6532 11.3499 14.5567 11.3499C14.509 11.3502 14.4617 11.341 14.4175 11.3229C14.3733 11.3048 14.3331 11.2781 14.2992 11.2444C14.2654 11.2106 14.2385 11.1705 14.2202 11.1263C14.2018 11.0821 14.1924 11.0347 14.1924 10.9868C14.1921 10.9386 14.2013 10.8909 14.2195 10.8463C14.2377 10.8017 14.2644 10.7611 14.2983 10.727C14.3322 10.6928 14.3724 10.6657 14.4168 10.6472C14.4611 10.6287 14.5087 10.6191 14.5567 10.6191C14.6538 10.6197 14.7467 10.6587 14.8153 10.7275C14.8839 10.7963 14.9228 10.8895 14.9233 10.9868Z" fill="white"/>
<path d="M11.3622 10.5467C11.3625 10.5945 11.3533 10.6419 11.3353 10.6861C11.3172 10.7302 11.2905 10.7704 11.2568 10.8042C11.2231 10.838 11.1831 10.8647 11.139 10.8828C11.095 10.901 11.0477 10.9102 11.0001 10.9099C10.9523 10.9105 10.9048 10.9015 10.8605 10.8835C10.8162 10.8655 10.7759 10.8388 10.7419 10.805C10.708 10.7712 10.6811 10.7309 10.6629 10.6866C10.6447 10.6422 10.6354 10.5947 10.6357 10.5467C10.6357 10.4989 10.6452 10.4515 10.6635 10.4072C10.6819 10.363 10.7087 10.3229 10.7426 10.2892C10.7765 10.2554 10.8166 10.2287 10.8608 10.2106C10.905 10.1925 10.9524 10.1833 11.0001 10.1836C11.0961 10.1836 11.1882 10.2219 11.2562 10.29C11.3241 10.3581 11.3622 10.4504 11.3622 10.5467Z" fill="white"/>
<path d="M16.3712 11.7784C16.3706 11.9778 16.2912 12.1689 16.1504 12.3096C16.0096 12.4504 15.8189 12.5295 15.62 12.5295C15.4214 12.5295 15.2309 12.4504 15.0905 12.3095C14.95 12.1687 14.8711 11.9776 14.8711 11.7784C14.8711 11.5792 14.95 11.3882 15.0905 11.2473C15.2309 11.1065 15.4214 11.0273 15.62 11.0273C15.8189 11.0273 16.0096 11.1064 16.1504 11.2472C16.2912 11.388 16.3706 11.579 16.3712 11.7784Z" fill="white"/>
<path d="M18.075 11.7784C18.075 11.8778 18.0553 11.9762 18.0171 12.0679C17.9789 12.1597 17.9229 12.2429 17.8524 12.3127C17.7819 12.3826 17.6983 12.4377 17.6064 12.4749C17.5145 12.5121 17.4161 12.5307 17.317 12.5295C17.2188 12.5295 17.1215 12.5101 17.0307 12.4723C16.94 12.4345 16.8576 12.3792 16.7882 12.3094C16.7189 12.2396 16.6639 12.1568 16.6265 12.0657C16.5891 11.9746 16.57 11.8769 16.5703 11.7784C16.57 11.6799 16.5891 11.5823 16.6265 11.4912C16.6639 11.4001 16.7189 11.3172 16.7882 11.2475C16.8576 11.1777 16.94 11.1223 17.0307 11.0846C17.1215 11.0468 17.2188 11.0273 17.317 11.0273C17.4156 11.0271 17.5132 11.0463 17.6043 11.0839C17.6954 11.1215 17.7783 11.1768 17.8481 11.2465C17.9178 11.3163 17.9732 11.3992 18.011 11.4905C18.0488 11.5817 18.0682 11.6796 18.0682 11.7784" fill="white"/>
<path d="M19.7905 11.7784C19.7899 11.9778 19.7105 12.1689 19.5697 12.3096C19.4289 12.4504 19.2381 12.5295 19.0393 12.5295C18.8404 12.5295 18.6497 12.4504 18.5089 12.3096C18.3681 12.1689 18.2887 11.9778 18.2881 11.7784C18.2887 11.579 18.3681 11.388 18.5089 11.2472C18.6497 11.1064 18.8404 11.0273 19.0393 11.0273C19.2381 11.0273 19.4289 11.1064 19.5697 11.2472C19.7105 11.388 19.7899 11.579 19.7905 11.7784Z" fill="white"/>
<path d="M21.4833 11.7784C21.4833 11.9776 21.4043 12.1687 21.2639 12.3095C21.1234 12.4504 20.9329 12.5295 20.7343 12.5295C20.5357 12.5295 20.3452 12.4504 20.2047 12.3095C20.0643 12.1687 19.9854 11.9776 19.9854 11.7784C19.9854 11.5792 20.0643 11.3882 20.2047 11.2473C20.3452 11.1065 20.5357 11.0273 20.7343 11.0273C20.9329 11.0273 21.1234 11.1065 21.2639 11.2473C21.4043 11.3882 21.4833 11.5792 21.4833 11.7784Z" fill="white"/>
<path d="M23.1876 11.7784C23.1876 11.8772 23.1682 11.9751 23.1304 12.0664C23.0926 12.1576 23.0373 12.2405 22.9675 12.3103C22.8977 12.3801 22.8149 12.4354 22.7238 12.473C22.6326 12.5106 22.535 12.5298 22.4364 12.5295C22.2378 12.5295 22.0473 12.4504 21.9069 12.3095C21.7664 12.1687 21.6875 11.9776 21.6875 11.7784C21.6875 11.5792 21.7664 11.3882 21.9069 11.2473C22.0473 11.1065 22.2378 11.0273 22.4364 11.0273C22.535 11.0271 22.6326 11.0463 22.7238 11.0839C22.8149 11.1215 22.8977 11.1768 22.9675 11.2465C23.0373 11.3163 23.0926 11.3992 23.1304 11.4905C23.1682 11.5817 23.1876 11.6796 23.1876 11.7784Z" fill="white"/>
<path d="M24.8918 11.7784C24.8912 11.9778 24.8117 12.1689 24.6709 12.3096C24.5301 12.4504 24.3394 12.5295 24.1406 12.5295C23.9419 12.5295 23.7514 12.4504 23.611 12.3095C23.4705 12.1687 23.3916 11.9776 23.3916 11.7784C23.3916 11.5792 23.4705 11.3882 23.611 11.2473C23.7514 11.1065 23.9419 11.0273 24.1406 11.0273C24.3394 11.0273 24.5301 11.1064 24.6709 11.2472C24.8117 11.388 24.8912 11.579 24.8918 11.7784Z" fill="white"/>
<path d="M26.5968 11.7784C26.5968 11.8772 26.5774 11.9751 26.5396 12.0664C26.5018 12.1576 26.4465 12.2405 26.3767 12.3103C26.3069 12.3801 26.2241 12.4354 26.1329 12.473C26.0418 12.5106 25.9442 12.5298 25.8456 12.5295C25.6472 12.5289 25.457 12.4496 25.3167 12.3089C25.1764 12.1681 25.0973 11.9774 25.0967 11.7784C25.0973 11.5794 25.1764 11.3887 25.3167 11.248C25.457 11.1073 25.6472 11.0279 25.8456 11.0273C25.9442 11.0271 26.0418 11.0463 26.1329 11.0839C26.2241 11.1215 26.3069 11.1768 26.3767 11.2465C26.4465 11.3163 26.5018 11.3992 26.5396 11.4905C26.5774 11.5817 26.5968 11.6796 26.5968 11.7784Z" fill="white"/>
<path d="M28.299 11.7784C28.2984 11.9774 28.2193 12.1681 28.079 12.3089C27.9386 12.4496 27.7485 12.5289 27.55 12.5295C27.4515 12.5298 27.3539 12.5106 27.2627 12.473C27.1716 12.4354 27.0888 12.3801 27.019 12.3103C26.9492 12.2405 26.8938 12.1576 26.8561 12.0664C26.8183 11.9751 26.7988 11.8772 26.7988 11.7784C26.7988 11.6796 26.8183 11.5817 26.8561 11.4905C26.8938 11.3992 26.9492 11.3163 27.019 11.2465C27.0888 11.1768 27.1716 11.1215 27.2627 11.0839C27.3539 11.0463 27.4515 11.0271 27.55 11.0273C27.7485 11.0279 27.9386 11.1073 28.079 11.248C28.2193 11.3887 28.2984 11.5794 28.299 11.7784Z" fill="white"/>
<path d="M11.256 13.6222C11.256 13.822 11.1769 14.0136 11.036 14.1549C10.8951 14.2961 10.704 14.3755 10.5048 14.3755C10.306 14.3749 10.1155 14.2953 9.97508 14.1541C9.83469 14.0129 9.75586 13.8216 9.75586 13.6222C9.75645 13.4232 9.83555 13.2325 9.97588 13.0917C10.1162 12.951 10.3064 12.8717 10.5048 12.8711C10.6034 12.8708 10.701 12.89 10.7921 12.9276C10.8832 12.9652 10.9661 13.0205 11.0358 13.0903C11.1056 13.1601 11.161 13.243 11.1988 13.3342C11.2366 13.4255 11.256 13.5233 11.256 13.6222Z" fill="white"/>
<path d="M12.9621 13.6222C12.9621 13.8216 12.8833 14.0129 12.7429 14.1541C12.6025 14.2953 12.412 14.3749 12.2132 14.3755C12.0151 14.3737 11.8258 14.2936 11.6864 14.1525C11.547 14.0114 11.4687 13.8208 11.4688 13.6222C11.4687 13.5233 11.4882 13.4255 11.526 13.3342C11.5638 13.243 11.6191 13.1601 11.6889 13.0903C11.7587 13.0205 11.8415 12.9652 11.9326 12.9276C12.0238 12.89 12.1214 12.8708 12.2199 12.8711C12.4186 12.8711 12.6091 12.9502 12.7495 13.0911C12.89 13.2319 12.9689 13.423 12.9689 13.6222" fill="white"/>
<path d="M14.6694 13.6222C14.6688 13.8218 14.5895 14.0131 14.4487 14.1542C14.308 14.2953 14.1172 14.3749 13.9182 14.3755C13.719 14.3755 13.5279 14.2961 13.387 14.1549C13.2461 14.0136 13.167 13.822 13.167 13.6222C13.167 13.5233 13.1864 13.4255 13.2242 13.3342C13.262 13.243 13.3174 13.1601 13.3871 13.0903C13.4569 13.0205 13.5398 12.9652 13.6309 12.9276C13.722 12.89 13.8196 12.8708 13.9182 12.8711C14.117 12.8711 14.3078 12.9502 14.4486 13.0909C14.5894 13.2317 14.6688 13.4228 14.6694 13.6222Z" fill="white"/>
<path d="M16.3712 13.6222C16.3706 13.8218 16.2913 14.013 16.1506 14.1542C16.0098 14.2953 15.8191 14.3749 15.62 14.3755C15.4212 14.3749 15.2307 14.2953 15.0903 14.1541C14.9499 14.0128 14.8711 13.8216 14.8711 13.6222C14.8711 13.423 14.95 13.2319 15.0905 13.0911C15.2309 12.9502 15.4214 12.8711 15.62 12.8711C15.8189 12.8711 16.0096 12.9502 16.1504 13.0909C16.2912 13.2317 16.3706 13.4228 16.3712 13.6222Z" fill="white"/>
<path d="M18.075 13.6222C18.075 13.7217 18.0553 13.8202 18.0171 13.912C17.979 14.0039 17.923 14.0872 17.8526 14.1573C17.7821 14.2273 17.6985 14.2827 17.6066 14.3201C17.5146 14.3576 17.4162 14.3764 17.317 14.3755C17.2187 14.3752 17.1213 14.3555 17.0306 14.3175C16.9398 14.2795 16.8574 14.2239 16.7881 14.1539C16.7187 14.084 16.6638 14.001 16.6265 13.9098C16.5891 13.8185 16.57 13.7208 16.5703 13.6222C16.57 13.5236 16.5891 13.426 16.6265 13.3349C16.6639 13.2438 16.7189 13.161 16.7882 13.0912C16.8576 13.0214 16.94 12.9661 17.0307 12.9283C17.1215 12.8905 17.2188 12.8711 17.317 12.8711C17.4156 12.8708 17.5132 12.89 17.6043 12.9276C17.6954 12.9652 17.7783 13.0205 17.8481 13.0903C17.9178 13.1601 17.9732 13.243 18.011 13.3342C18.0488 13.4255 18.0682 13.5233 18.0682 13.6222" fill="white"/>
<path d="M19.7905 13.6222C19.7899 13.8218 19.7106 14.013 19.5698 14.1542C19.4291 14.2953 19.2383 14.3749 19.0393 14.3755C18.8402 14.3749 18.6495 14.2953 18.5088 14.1542C18.368 14.013 18.2887 13.8218 18.2881 13.6222C18.2887 13.4228 18.3681 13.2317 18.5089 13.0909C18.6497 12.9502 18.8404 12.8711 19.0393 12.8711C19.2381 12.8711 19.4289 12.9502 19.5697 13.0909C19.7105 13.2317 19.7899 13.4228 19.7905 13.6222Z" fill="white"/>
<path d="M21.4833 13.6222C21.4833 13.8216 21.4044 14.0128 21.264 14.1541C21.1236 14.2953 20.9331 14.3749 20.7343 14.3755C20.5355 14.3749 20.345 14.2953 20.2046 14.1541C20.0642 14.0128 19.9854 13.8216 19.9854 13.6222C19.9854 13.423 20.0643 13.2319 20.2047 13.0911C20.3452 12.9502 20.5357 12.8711 20.7343 12.8711C20.9329 12.8711 21.1234 12.9502 21.2639 13.0911C21.4043 13.2319 21.4833 13.423 21.4833 13.6222Z" fill="white"/>
<path d="M23.1876 13.6222C23.1876 13.822 23.1085 14.0136 22.9676 14.1549C22.8267 14.2961 22.6357 14.3755 22.4364 14.3755C22.2376 14.3749 22.0471 14.2953 21.9067 14.1541C21.7663 14.0129 21.6875 13.8216 21.6875 13.6222C21.6875 13.423 21.7664 13.2319 21.9069 13.0911C22.0473 12.9502 22.2378 12.8711 22.4364 12.8711C22.535 12.8708 22.6326 12.89 22.7238 12.9276C22.8149 12.9652 22.8977 13.0205 22.9675 13.0903C23.0373 13.1601 23.0926 13.243 23.1304 13.3342C23.1682 13.4255 23.1876 13.5233 23.1876 13.6222Z" fill="white"/>
<path d="M24.892 13.6222C24.8915 13.8218 24.8121 14.013 24.6714 14.1542C24.5306 14.2953 24.3399 14.3749 24.1408 14.3755C23.9416 14.3755 23.7505 14.2961 23.6097 14.1549C23.4688 14.0136 23.3896 13.822 23.3896 13.6222C23.3896 13.423 23.4686 13.2319 23.609 13.0911C23.7495 12.9502 23.94 12.8711 24.1386 12.8711C24.3374 12.8711 24.5282 12.9502 24.669 13.0909C24.8098 13.2317 24.8892 13.4228 24.8898 13.6222" fill="white"/>
<path d="M16.3712 24.63C16.3712 24.83 16.2922 25.0218 16.1514 25.1635C16.0105 25.3051 15.8195 25.385 15.62 25.3856C15.5214 25.3853 15.4238 25.3655 15.3327 25.3274C15.2417 25.2892 15.1591 25.2335 15.0895 25.1633C15.02 25.0932 14.9649 25.01 14.9274 24.9184C14.8899 24.8269 14.8708 24.7289 14.8711 24.63C14.8711 24.4308 14.95 24.2397 15.0905 24.0989C15.2309 23.958 15.4214 23.8789 15.62 23.8789C15.8189 23.8789 16.0096 23.958 16.1504 24.0988C16.2912 24.2395 16.3706 24.4306 16.3712 24.63Z" fill="white"/>
<path d="M18.075 24.63C18.0753 24.7297 18.0558 24.8284 18.0178 24.9205C17.9798 25.0126 17.9239 25.0963 17.8534 25.1665C17.7829 25.2368 17.6992 25.2924 17.6071 25.33C17.515 25.3676 17.4164 25.3865 17.317 25.3856C17.2185 25.3853 17.121 25.3655 17.0301 25.3273C16.9392 25.2892 16.8567 25.2334 16.7873 25.1632C16.7179 25.093 16.6631 25.0098 16.6258 24.9183C16.5886 24.8268 16.5697 24.7288 16.5703 24.63C16.57 24.5315 16.5891 24.4338 16.6265 24.3427C16.6639 24.2516 16.7189 24.1688 16.7882 24.099C16.8576 24.0293 16.94 23.9739 17.0308 23.9361C17.1215 23.8984 17.2188 23.8789 17.317 23.8789C17.4156 23.8786 17.5132 23.8978 17.6043 23.9354C17.6955 23.973 17.7783 24.0283 17.8481 24.0981C17.9179 24.1679 17.9732 24.2508 18.011 24.342C18.0488 24.4333 18.0682 24.5312 18.0682 24.63" fill="white"/>
<path d="M19.7905 24.63C19.7905 24.83 19.7114 25.0218 19.5706 25.1635C19.4298 25.3051 19.2387 25.385 19.0393 25.3856C18.8398 25.385 18.6488 25.3051 18.508 25.1635C18.3672 25.0218 18.2881 24.83 18.2881 24.63C18.2887 24.4306 18.3681 24.2395 18.5089 24.0988C18.6497 23.958 18.8404 23.8789 19.0393 23.8789C19.2381 23.8789 19.4289 23.958 19.5697 24.0988C19.7105 24.2395 19.7899 24.4306 19.7905 24.63Z" fill="white"/>
<path d="M21.4833 24.63C21.4835 24.7289 21.4644 24.8269 21.4269 24.9184C21.3895 25.01 21.3344 25.0932 21.2648 25.1633C21.1953 25.2335 21.1126 25.2892 21.0216 25.3274C20.9306 25.3655 20.833 25.3853 20.7343 25.3856C20.6357 25.3853 20.538 25.3655 20.447 25.3274C20.356 25.2892 20.2733 25.2335 20.2038 25.1633C20.1342 25.0932 20.0792 25.01 20.0417 24.9184C20.0042 24.8269 19.9851 24.7289 19.9854 24.63C19.9854 24.4308 20.0643 24.2397 20.2047 24.0989C20.3452 23.958 20.5357 23.8789 20.7343 23.8789C20.9329 23.8789 21.1234 23.958 21.2639 24.0989C21.4043 24.2397 21.4833 24.4308 21.4833 24.63Z" fill="white"/>
<path d="M23.1877 24.63C23.1879 24.7291 23.1687 24.8273 23.1311 24.919C23.0935 25.0106 23.0382 25.0939 22.9684 25.1641C22.8986 25.2343 22.8157 25.29 22.7244 25.328C22.6332 25.366 22.5353 25.3856 22.4365 25.3856C22.3378 25.3853 22.2402 25.3655 22.1492 25.3274C22.0581 25.2892 21.9755 25.2335 21.9059 25.1633C21.8364 25.0932 21.7813 25.01 21.7438 24.9184C21.7063 24.8269 21.6872 24.7289 21.6875 24.63C21.6875 24.4308 21.7664 24.2398 21.9069 24.0989C22.0473 23.958 22.2378 23.8789 22.4365 23.8789C22.535 23.8786 22.6326 23.8978 22.7238 23.9354C22.8149 23.973 22.8977 24.0283 22.9675 24.0981C23.0373 24.1679 23.0926 24.2508 23.1304 24.342C23.1682 24.4333 23.1877 24.5312 23.1877 24.63Z" fill="white"/>
<path d="M24.892 24.63C24.892 24.83 24.813 25.0218 24.6722 25.1635C24.5313 25.3051 24.3403 25.385 24.1408 25.3856C24.042 25.3856 23.9441 25.366 23.8529 25.328C23.7616 25.29 23.6787 25.2343 23.6089 25.1641C23.5391 25.0939 23.4838 25.0106 23.4462 24.919C23.4086 24.8273 23.3894 24.7291 23.3897 24.63C23.3897 24.4308 23.4686 24.2397 23.609 24.0989C23.7495 23.958 23.94 23.8789 24.1386 23.8789C24.3374 23.8789 24.5282 23.958 24.669 24.0988C24.8098 24.2395 24.8892 24.4306 24.8898 24.63" fill="white"/>
<path d="M26.5968 24.63C26.5971 24.7291 26.5779 24.8273 26.5403 24.919C26.5027 25.0106 26.4474 25.0939 26.3776 25.1641C26.3078 25.2343 26.2249 25.29 26.1336 25.328C26.0423 25.366 25.9445 25.3856 25.8456 25.3856C25.6466 25.3844 25.4561 25.3043 25.3158 25.1627C25.1754 25.0211 25.0967 24.8296 25.0967 24.63C25.0973 24.431 25.1764 24.2403 25.3167 24.0996C25.457 23.9588 25.6472 23.8795 25.8456 23.8789C25.9442 23.8786 26.0418 23.8978 26.1329 23.9354C26.2241 23.973 26.3069 24.0283 26.3767 24.0981C26.4465 24.1679 26.5018 24.2508 26.5396 24.342C26.5774 24.4333 26.5968 24.5312 26.5968 24.63Z" fill="white"/>
<path d="M28.299 24.63C28.299 24.8296 28.2202 25.0211 28.0799 25.1627C27.9396 25.3043 27.7491 25.3844 27.55 25.3856C27.4512 25.3856 27.3533 25.366 27.262 25.328C27.1707 25.29 27.0878 25.2343 27.0181 25.1641C26.9483 25.0939 26.893 25.0106 26.8554 24.919C26.8177 24.8273 26.7985 24.7291 26.7988 24.63C26.7988 24.5312 26.8183 24.4333 26.8561 24.342C26.8938 24.2508 26.9492 24.1679 27.019 24.0981C27.0888 24.0283 27.1716 23.973 27.2627 23.9354C27.3539 23.8978 27.4515 23.8786 27.55 23.8789C27.7485 23.8795 27.9386 23.9588 28.079 24.0996C28.2193 24.2403 28.2984 24.431 28.299 24.63Z" fill="white"/>
<path d="M30.0038 24.63C30.0044 24.8294 29.9261 25.0209 29.7861 25.1625C29.6462 25.3042 29.4559 25.3844 29.2571 25.3856C29.1582 25.3856 29.0604 25.366 28.9691 25.328C28.8778 25.29 28.7949 25.2343 28.7251 25.1641C28.6553 25.0939 28.6 25.0106 28.5624 24.919C28.5248 24.8273 28.5056 24.7291 28.5059 24.63C28.5059 24.5312 28.5253 24.4333 28.5631 24.342C28.6009 24.2508 28.6562 24.1679 28.726 24.0981C28.7958 24.0283 28.8786 23.973 28.9698 23.9354C29.0609 23.8978 29.1585 23.8786 29.2571 23.8789C29.4553 23.8795 29.6452 23.9589 29.7852 24.0997C29.9252 24.2405 30.0038 24.4312 30.0038 24.63Z" fill="white"/>
<path d="M18.075 26.4776C18.075 26.5771 18.0553 26.6757 18.0171 26.7675C17.979 26.8593 17.923 26.9427 17.8526 27.0127C17.7821 27.0828 17.6985 27.1381 17.6066 27.1756C17.5146 27.213 17.4162 27.2319 17.317 27.231C17.2187 27.2307 17.1213 27.2109 17.0306 27.1729C16.9398 27.1349 16.8574 27.0793 16.7881 27.0094C16.7187 26.9394 16.6638 26.8565 16.6265 26.7652C16.5891 26.674 16.57 26.5763 16.5703 26.4776C16.57 26.3791 16.5891 26.2815 16.6265 26.1904C16.6639 26.0993 16.7189 26.0165 16.7882 25.9467C16.8576 25.8769 16.94 25.8216 17.0307 25.7838C17.1215 25.746 17.2188 25.7266 17.317 25.7266C17.4156 25.7263 17.5132 25.7455 17.6043 25.7831C17.6954 25.8207 17.7783 25.876 17.8481 25.9458C17.9178 26.0155 17.9732 26.0984 18.011 26.1897C18.0488 26.281 18.0682 26.3788 18.0682 26.4776" fill="white"/>
<path d="M19.7905 26.4776C19.7899 26.6773 19.7106 26.8685 19.5698 27.0097C19.4291 27.1508 19.2383 27.2304 19.0393 27.231C18.8402 27.2304 18.6495 27.1508 18.5088 27.0097C18.368 26.8685 18.2887 26.6773 18.2881 26.4776C18.2887 26.2782 18.3681 26.0872 18.5089 25.9464C18.6497 25.8056 18.8404 25.7266 19.0393 25.7266C19.2381 25.7266 19.4289 25.8056 19.5697 25.9464C19.7105 26.0872 19.7899 26.2782 19.7905 26.4776Z" fill="white"/>
<path d="M21.4833 26.4776C21.4833 26.677 21.4044 26.8683 21.264 27.0095C21.1236 27.1507 20.9331 27.2304 20.7343 27.231C20.5355 27.2304 20.345 27.1507 20.2046 27.0095C20.0642 26.8683 19.9854 26.677 19.9854 26.4776C19.9854 26.2784 20.0643 26.0874 20.2047 25.9465C20.3452 25.8057 20.5357 25.7266 20.7343 25.7266C20.9329 25.7266 21.1234 25.8057 21.2639 25.9465C21.4043 26.0874 21.4833 26.2784 21.4833 26.4776Z" fill="white"/>
<path d="M23.1876 26.4776C23.1876 26.6774 23.1085 26.8691 22.9676 27.0103C22.8267 27.1516 22.6357 27.231 22.4364 27.231C22.2376 27.2304 22.0471 27.1507 21.9067 27.0095C21.7663 26.8683 21.6875 26.6771 21.6875 26.4776C21.6875 26.2784 21.7664 26.0874 21.9069 25.9466C22.0473 25.8057 22.2378 25.7266 22.4364 25.7266C22.535 25.7263 22.6326 25.7455 22.7238 25.7831C22.8149 25.8207 22.8977 25.876 22.9675 25.9458C23.0373 26.0155 23.0926 26.0984 23.1304 26.1897C23.1682 26.281 23.1876 26.3788 23.1876 26.4776Z" fill="white"/>
<path d="M24.8918 26.4776C24.8912 26.6773 24.8118 26.8685 24.6711 27.0097C24.5303 27.1508 24.3396 27.2304 24.1406 27.231C23.9417 27.2304 23.7512 27.1507 23.6108 27.0095C23.4704 26.8683 23.3916 26.677 23.3916 26.4776C23.3916 26.2784 23.4705 26.0874 23.611 25.9465C23.7514 25.8057 23.9419 25.7266 24.1406 25.7266C24.3394 25.7266 24.5301 25.8056 24.6709 25.9464C24.8117 26.0872 24.8912 26.2782 24.8918 26.4776Z" fill="white"/>
<path d="M26.5968 26.4776C26.5968 26.6774 26.5177 26.8691 26.3768 27.0103C26.2359 27.1516 26.0449 27.231 25.8456 27.231C25.6468 27.2304 25.4563 27.1507 25.3159 27.0095C25.1755 26.8683 25.0967 26.6771 25.0967 26.4776C25.0973 26.2786 25.1764 26.0879 25.3167 25.9472C25.457 25.8065 25.6472 25.7272 25.8456 25.7266C25.9442 25.7263 26.0418 25.7455 26.1329 25.7831C26.2241 25.8207 26.3069 25.876 26.3767 25.9458C26.4465 26.0155 26.5018 26.0984 26.5396 26.1897C26.5774 26.281 26.5968 26.3788 26.5968 26.4776Z" fill="white"/>
<path d="M28.299 26.4776C28.299 26.6771 28.2201 26.8683 28.0797 27.0095C27.9394 27.1507 27.7489 27.2304 27.55 27.231C27.3508 27.231 27.1597 27.1516 27.0188 27.0103C26.878 26.8691 26.7988 26.6774 26.7988 26.4776C26.7988 26.3788 26.8183 26.281 26.8561 26.1897C26.8938 26.0984 26.9492 26.0155 27.019 25.9458C27.0888 25.876 27.1716 25.8207 27.2627 25.7831C27.3539 25.7455 27.4515 25.7263 27.55 25.7266C27.7485 25.7272 27.9386 25.8065 28.079 25.9472C28.2193 26.0879 28.2984 26.2786 28.299 26.4776Z" fill="white"/>
<path d="M30.0038 26.4776C30.0038 26.6767 29.9252 26.8676 29.7853 27.0087C29.6454 27.1499 29.4555 27.2298 29.2571 27.231C29.0578 27.231 28.8668 27.1516 28.7259 27.0103C28.585 26.8691 28.5059 26.6774 28.5059 26.4776C28.5059 26.3788 28.5253 26.281 28.5631 26.1897C28.6009 26.0984 28.6562 26.0155 28.726 25.9458C28.7958 25.876 28.8786 25.8207 28.9698 25.7831C29.0609 25.7455 29.1585 25.7263 29.2571 25.7266C29.4553 25.7272 29.6452 25.8066 29.7852 25.9473C29.9252 26.0881 30.0038 26.2788 30.0038 26.4776Z" fill="white"/>
<path d="M31.7124 26.4776C31.7124 26.677 31.6335 26.8683 31.4931 27.0095C31.3527 27.1507 31.1622 27.2304 30.9634 27.231C30.764 27.231 30.5727 27.1517 30.4314 27.0105C30.2902 26.8692 30.2106 26.6776 30.21 26.4776C30.2111 26.278 30.2911 26.087 30.4322 25.9463C30.5734 25.8055 30.7644 25.7266 30.9634 25.7266C31.162 25.7266 31.3525 25.8057 31.493 25.9465C31.6334 26.0874 31.7124 26.2784 31.7124 26.4776Z" fill="white"/>
<path d="M19.7905 28.3217C19.7905 28.5215 19.7113 28.7131 19.5705 28.8544C19.4296 28.9957 19.2385 29.075 19.0393 29.075C18.8402 29.0744 18.6495 28.9949 18.5088 28.8537C18.368 28.7126 18.2887 28.5213 18.2881 28.3217C18.2887 28.1221 18.368 27.9308 18.5088 27.7897C18.6495 27.6485 18.8402 27.569 19.0393 27.5684C19.2383 27.569 19.4291 27.6485 19.5698 27.7897C19.7106 27.9308 19.7899 28.1221 19.7905 28.3217Z" fill="white"/>
<path d="M21.4833 28.3217C21.4835 28.4205 21.4644 28.5184 21.4269 28.6098C21.3894 28.7012 21.3343 28.7843 21.2647 28.8542C21.1951 28.9242 21.1124 28.9798 21.0214 29.0176C20.9304 29.0555 20.8328 29.075 20.7343 29.075C20.6358 29.075 20.5382 29.0555 20.4472 29.0176C20.3562 28.9798 20.2735 28.9242 20.2039 28.8542C20.1343 28.7843 20.0792 28.7012 20.0417 28.6098C20.0042 28.5184 19.9851 28.4205 19.9854 28.3217C19.9854 28.1223 20.0642 27.931 20.2046 27.7898C20.345 27.6486 20.5355 27.569 20.7343 27.5684C20.9331 27.569 21.1236 27.6486 21.264 27.7898C21.4044 27.931 21.4833 28.1223 21.4833 28.3217Z" fill="white"/>
<path d="M23.1877 28.3217C23.1879 28.4207 23.1687 28.5188 23.1311 28.6103C23.0934 28.7019 23.0381 28.785 22.9683 28.855C22.8985 28.9251 22.8155 28.9805 22.7243 29.0183C22.633 29.056 22.5352 29.0753 22.4365 29.075C22.3379 29.075 22.2403 29.0555 22.1493 29.0176C22.0583 28.9798 21.9756 28.9242 21.9061 28.8542C21.8365 28.7843 21.7814 28.7012 21.7439 28.6098C21.7064 28.5184 21.6872 28.4205 21.6875 28.3217C21.6875 28.1223 21.7663 27.931 21.9067 27.7898C22.0471 27.6486 22.2376 27.569 22.4365 27.5684C22.6357 27.5684 22.8268 27.6477 22.9676 27.789C23.1085 27.9303 23.1877 28.1219 23.1877 28.3217Z" fill="white"/>
<path d="M24.8918 28.3217C24.8918 28.5215 24.8126 28.7131 24.6717 28.8544C24.5309 28.9957 24.3398 29.075 24.1406 29.075C24.042 29.075 23.9444 29.0555 23.8534 29.0176C23.7624 28.9798 23.6797 28.9242 23.6102 28.8542C23.5406 28.7843 23.4855 28.7012 23.448 28.6098C23.4105 28.5184 23.3913 28.4205 23.3916 28.3217C23.3916 28.1223 23.4704 27.931 23.6108 27.7898C23.7512 27.6486 23.9417 27.569 24.1406 27.5684C24.3396 27.569 24.5303 27.6485 24.6711 27.7897C24.8118 27.9308 24.8912 28.1221 24.8918 28.3217Z" fill="white"/>
<path d="M26.5968 28.3217C26.5971 28.4207 26.5779 28.5188 26.5403 28.6103C26.5026 28.7019 26.4473 28.785 26.3775 28.855C26.3077 28.9251 26.2247 28.9805 26.1335 29.0183C26.0422 29.056 25.9444 29.0753 25.8456 29.075C25.6468 29.0744 25.4563 28.9948 25.3159 28.8536C25.1755 28.7124 25.0967 28.5211 25.0967 28.3217C25.0967 28.1223 25.1755 27.931 25.3159 27.7898C25.4563 27.6486 25.6468 27.569 25.8456 27.5684C26.0449 27.5684 26.2359 27.6477 26.3768 27.789C26.5177 27.9303 26.5968 28.1219 26.5968 28.3217Z" fill="white"/>
<path d="M28.299 28.3217C28.299 28.5211 28.2201 28.7124 28.0798 28.8536C27.9394 28.9948 27.7489 29.0744 27.55 29.075C27.4513 29.0753 27.3535 29.056 27.2622 29.0183C27.1709 28.9805 27.088 28.9251 27.0182 28.855C26.9484 28.785 26.8931 28.7019 26.8554 28.6103C26.8178 28.5188 26.7985 28.4207 26.7988 28.3217C26.7988 28.1219 26.878 27.9303 27.0189 27.789C27.1597 27.6477 27.3508 27.5684 27.55 27.5684C27.7489 27.569 27.9394 27.6486 28.0798 27.7898C28.2201 27.931 28.299 28.1223 28.299 28.3217Z" fill="white"/>
<path d="M30.0038 28.3217C30.0041 28.4203 29.985 28.518 29.9476 28.6093C29.9102 28.7005 29.8553 28.7835 29.786 28.8534C29.7167 28.9234 29.6343 28.979 29.5435 29.017C29.4527 29.055 29.3554 29.0747 29.2571 29.075C29.1583 29.0753 29.0605 29.056 28.9692 29.0183C28.878 28.9805 28.795 28.9251 28.7252 28.855C28.6554 28.785 28.6001 28.7019 28.5624 28.6103C28.5248 28.5188 28.5056 28.4207 28.5059 28.3217C28.5059 28.1219 28.585 27.9303 28.7259 27.789C28.8668 27.6477 29.0578 27.5684 29.2571 27.5684C29.4555 27.5696 29.6454 27.6494 29.7853 27.7906C29.9252 27.9317 30.0038 28.1227 30.0038 28.3217Z" fill="white"/>
<path d="M31.7124 28.3217C31.7127 28.4205 31.6935 28.5184 31.656 28.6098C31.6185 28.7012 31.5634 28.7843 31.4938 28.8542C31.4242 28.9242 31.3416 28.9798 31.2505 29.0176C31.1595 29.0555 31.0619 29.075 30.9634 29.075C30.764 29.075 30.5727 28.9957 30.4314 28.8545C30.2902 28.7133 30.2106 28.5217 30.21 28.3217C30.2106 28.1217 30.2902 27.9301 30.4314 27.7889C30.5727 27.6476 30.764 27.5684 30.9634 27.5684C31.1622 27.569 31.3527 27.6486 31.4931 27.7898C31.6335 27.931 31.7124 28.1223 31.7124 28.3217Z" fill="white"/>
<path d="M19.7905 30.1693C19.7899 30.3688 19.7105 30.5598 19.5697 30.7006C19.4289 30.8414 19.2381 30.9204 19.0393 30.9204C18.8404 30.9204 18.6497 30.8414 18.5089 30.7006C18.3681 30.5598 18.2887 30.3688 18.2881 30.1693C18.2887 29.9697 18.368 29.7785 18.5088 29.6373C18.6495 29.4962 18.8402 29.4166 19.0393 29.416C19.2383 29.4166 19.4291 29.4962 19.5698 29.6373C19.7106 29.7785 19.7899 29.9697 19.7905 30.1693Z" fill="white"/>
<path d="M21.4833 30.1693C21.4833 30.3685 21.4043 30.5596 21.2639 30.7004C21.1234 30.8413 20.9329 30.9204 20.7343 30.9204C20.5357 30.9204 20.3452 30.8413 20.2047 30.7004C20.0643 30.5596 19.9854 30.3685 19.9854 30.1693C19.9854 29.9699 20.0642 29.7787 20.2046 29.6375C20.345 29.4962 20.5355 29.4166 20.7343 29.416C20.9331 29.4166 21.1236 29.4962 21.264 29.6375C21.4044 29.7787 21.4833 29.9699 21.4833 30.1693Z" fill="white"/>
<path d="M23.1876 30.1693C23.1876 30.2682 23.1682 30.366 23.1304 30.4573C23.0926 30.5486 23.0373 30.6315 22.9675 30.7012C22.8977 30.771 22.8149 30.8263 22.7238 30.8639C22.6326 30.9015 22.535 30.9207 22.4364 30.9204C22.2378 30.9204 22.0473 30.8413 21.9069 30.7004C21.7664 30.5596 21.6875 30.3685 21.6875 30.1693C21.6875 29.9699 21.7663 29.7787 21.9067 29.6375C22.0471 29.4962 22.2376 29.4166 22.4364 29.416C22.6357 29.416 22.8267 29.4954 22.9676 29.6367C23.1085 29.7779 23.1876 29.9696 23.1876 30.1693Z" fill="white"/>
<path d="M24.8918 30.1693C24.8912 30.3688 24.8117 30.5598 24.6709 30.7006C24.5301 30.8414 24.3394 30.9204 24.1406 30.9204C23.9419 30.9204 23.7514 30.8413 23.611 30.7004C23.4705 30.5596 23.3916 30.3685 23.3916 30.1693C23.3916 29.9699 23.4704 29.7787 23.6108 29.6375C23.7512 29.4962 23.9417 29.4166 24.1406 29.416C24.3396 29.4166 24.5303 29.4962 24.6711 29.6373C24.8118 29.7785 24.8912 29.9697 24.8918 30.1693Z" fill="white"/>
<path d="M26.5968 30.1693C26.5968 30.2682 26.5774 30.366 26.5396 30.4573C26.5018 30.5486 26.4465 30.6315 26.3767 30.7012C26.3069 30.771 26.2241 30.8263 26.1329 30.8639C26.0418 30.9015 25.9442 30.9207 25.8456 30.9204C25.6472 30.9198 25.457 30.8405 25.3167 30.6998C25.1764 30.5591 25.0973 30.3684 25.0967 30.1693C25.0967 29.9699 25.1755 29.7787 25.3159 29.6375C25.4563 29.4962 25.6468 29.4166 25.8456 29.416C26.0449 29.416 26.2359 29.4954 26.3768 29.6367C26.5177 29.7779 26.5968 29.9696 26.5968 30.1693Z" fill="white"/>
<path d="M28.299 30.1693C28.2984 30.3684 28.2193 30.5591 28.079 30.6998C27.9386 30.8405 27.7485 30.9198 27.55 30.9204C27.4515 30.9207 27.3539 30.9015 27.2627 30.8639C27.1716 30.8263 27.0888 30.771 27.019 30.7012C26.9492 30.6315 26.8938 30.5486 26.8561 30.4573C26.8183 30.366 26.7988 30.2682 26.7988 30.1693C26.7988 29.9696 26.878 29.7779 27.0188 29.6367C27.1597 29.4954 27.3508 29.416 27.55 29.416C27.7489 29.4166 27.9394 29.4962 28.0797 29.6375C28.2201 29.7787 28.299 29.9699 28.299 30.1693Z" fill="white"/>
<path d="M30.0038 30.1693C30.0038 30.3682 29.9252 30.5589 29.7852 30.6996C29.6452 30.8404 29.4553 30.9198 29.2571 30.9204C29.1585 30.9207 29.0609 30.9015 28.9698 30.8639C28.8786 30.8263 28.7958 30.771 28.726 30.7012C28.6562 30.6315 28.6009 30.5486 28.5631 30.4573C28.5253 30.366 28.5059 30.2682 28.5059 30.1693C28.5059 29.9696 28.585 29.7779 28.7259 29.6367C28.8668 29.4954 29.0578 29.416 29.2571 29.416C29.4555 29.4172 29.6454 29.4971 29.7853 29.6382C29.9252 29.7794 30.0038 29.9703 30.0038 30.1693Z" fill="white"/>
<path d="M21.4833 32.0268C21.4827 32.2256 21.4035 32.416 21.2631 32.5564C21.1227 32.6968 20.9325 32.7756 20.7343 32.7756C20.5361 32.7756 20.3459 32.6968 20.2055 32.5564C20.0651 32.416 19.986 32.2256 19.9854 32.0268C19.9851 31.9279 20.0042 31.83 20.0417 31.7387C20.0792 31.6473 20.1343 31.5642 20.2039 31.4942C20.2735 31.4242 20.3562 31.3687 20.4472 31.3308C20.5382 31.2929 20.6358 31.2734 20.7343 31.2734C20.8328 31.2734 20.9304 31.2929 21.0214 31.3308C21.1124 31.3687 21.1951 31.4242 21.2647 31.4942C21.3343 31.5642 21.3894 31.6473 21.4269 31.7387C21.4644 31.83 21.4835 31.9279 21.4833 32.0268Z" fill="white"/>
<path d="M23.1877 32.0268C23.1874 32.1254 23.1677 32.223 23.1298 32.314C23.0919 32.405 23.0365 32.4877 22.9667 32.5572C22.8969 32.6267 22.8142 32.6818 22.7232 32.7193C22.6323 32.7568 22.5348 32.7759 22.4365 32.7756C22.2382 32.7756 22.048 32.6968 21.9077 32.5564C21.7673 32.416 21.6881 32.2256 21.6875 32.0268C21.6872 31.928 21.7064 31.83 21.7439 31.7387C21.7814 31.6473 21.8365 31.5642 21.9061 31.4942C21.9756 31.4242 22.0583 31.3687 22.1493 31.3308C22.2403 31.2929 22.3379 31.2734 22.4365 31.2734C22.5352 31.2731 22.633 31.2924 22.7243 31.3302C22.8155 31.3679 22.8985 31.4234 22.9683 31.4934C23.0381 31.5634 23.0934 31.6466 23.1311 31.7381C23.1687 31.8297 23.1879 31.9278 23.1877 32.0268Z" fill="white"/>
<path d="M24.892 32.0268C24.8909 32.2258 24.8112 32.4162 24.6704 32.5565C24.5297 32.6968 24.3393 32.7756 24.1408 32.7756C24.0425 32.7759 23.945 32.7568 23.8541 32.7193C23.7631 32.6818 23.6804 32.6267 23.6106 32.5572C23.5408 32.4877 23.4854 32.405 23.4475 32.314C23.4096 32.223 23.3899 32.1254 23.3897 32.0268C23.3894 31.9279 23.4085 31.83 23.446 31.7387C23.4835 31.6473 23.5386 31.5642 23.6082 31.4942C23.6778 31.4242 23.7605 31.3687 23.8515 31.3308C23.9425 31.2929 24.0401 31.2734 24.1386 31.2734C24.3378 31.2734 24.5289 31.3528 24.6698 31.4941C24.8107 31.6354 24.8898 31.827 24.8898 32.0268" fill="white"/>
<path d="M26.5968 32.0268C26.5965 32.1254 26.5769 32.223 26.539 32.314C26.501 32.405 26.4456 32.4877 26.3759 32.5572C26.3061 32.6267 26.2234 32.6818 26.1324 32.7193C26.0414 32.7568 25.944 32.7759 25.8456 32.7756C25.6474 32.7756 25.4572 32.6968 25.3168 32.5564C25.1764 32.416 25.0973 32.2256 25.0967 32.0268C25.0967 31.8274 25.1755 31.6361 25.3159 31.4949C25.4563 31.3537 25.6468 31.274 25.8456 31.2734C25.9444 31.2731 26.0422 31.2924 26.1335 31.3302C26.2247 31.3679 26.3077 31.4234 26.3775 31.4934C26.4473 31.5634 26.5026 31.6466 26.5403 31.7381C26.5779 31.8297 26.5971 31.9278 26.5968 32.0268Z" fill="white"/>
<path d="M28.299 32.0268C28.2984 32.2256 28.2192 32.416 28.0788 32.5564C27.9384 32.6968 27.7483 32.7756 27.55 32.7756C27.4517 32.7759 27.3542 32.7568 27.2632 32.7193C27.1723 32.6818 27.0895 32.6267 27.0198 32.5572C26.95 32.4877 26.8946 32.405 26.8567 32.314C26.8188 32.223 26.7991 32.1254 26.7988 32.0268C26.7985 31.9278 26.8178 31.8297 26.8554 31.7381C26.8931 31.6466 26.9484 31.5634 27.0182 31.4934C27.088 31.4234 27.1709 31.3679 27.2622 31.3302C27.3535 31.2924 27.4513 31.2731 27.55 31.2734C27.7489 31.274 27.9394 31.3537 28.0798 31.4949C28.2201 31.6361 28.299 31.8274 28.299 32.0268Z" fill="white"/>
<path d="M30.0038 32.0268C30.0038 32.2254 29.9251 32.4158 29.7851 32.5563C29.645 32.6967 29.4551 32.7756 29.2571 32.7756C29.1587 32.7759 29.0613 32.7568 28.9703 32.7193C28.8793 32.6818 28.7966 32.6267 28.7268 32.5572C28.6571 32.4877 28.6016 32.405 28.5637 32.314C28.5258 32.223 28.5062 32.1254 28.5059 32.0268C28.5056 31.9278 28.5248 31.8297 28.5624 31.7381C28.6001 31.6466 28.6554 31.5634 28.7252 31.4934C28.795 31.4234 28.878 31.3679 28.9692 31.3302C29.0605 31.2924 29.1583 31.2731 29.2571 31.2734C29.3554 31.2737 29.4527 31.2935 29.5435 31.3315C29.6343 31.3695 29.7167 31.4251 29.786 31.495C29.8553 31.565 29.9102 31.6479 29.9476 31.7392C29.985 31.8304 30.0041 31.9281 30.0038 32.0268Z" fill="white"/>
<path d="M23.1877 33.8605C23.1879 33.9595 23.1687 34.0576 23.1311 34.1491C23.0934 34.2406 23.0381 34.3238 22.9683 34.3938C22.8985 34.4638 22.8155 34.5193 22.7243 34.557C22.633 34.5948 22.5352 34.6141 22.4365 34.6138C22.3379 34.6138 22.2403 34.5943 22.1493 34.5564C22.0583 34.5185 21.9756 34.463 21.9061 34.393C21.8365 34.323 21.7814 34.24 21.7439 34.1486C21.7064 34.0572 21.6872 33.9593 21.6875 33.8605C21.6875 33.6613 21.7664 33.4702 21.9069 33.3294C22.0473 33.1885 22.2378 33.1094 22.4365 33.1094C22.535 33.1091 22.6326 33.1283 22.7238 33.1659C22.8149 33.2035 22.8977 33.2588 22.9675 33.3286C23.0373 33.3983 23.0926 33.4812 23.1304 33.5725C23.1682 33.6638 23.1877 33.7616 23.1877 33.8605Z" fill="white"/>
<path d="M24.8918 33.8604C24.8918 34.0602 24.8126 34.2519 24.6717 34.3931C24.5309 34.5344 24.3398 34.6138 24.1406 34.6138C24.042 34.6138 23.9444 34.5943 23.8534 34.5564C23.7624 34.5185 23.6797 34.463 23.6102 34.393C23.5406 34.323 23.4855 34.24 23.448 34.1486C23.4105 34.0572 23.3913 33.9593 23.3916 33.8604C23.3916 33.6613 23.4705 33.4702 23.611 33.3294C23.7514 33.1885 23.9419 33.1094 24.1406 33.1094C24.3394 33.1094 24.5301 33.1884 24.6709 33.3292C24.8118 33.47 24.8912 33.661 24.8918 33.8604Z" fill="white"/>
<path d="M26.5968 33.8605C26.5971 33.9595 26.5779 34.0576 26.5403 34.1491C26.5026 34.2406 26.4473 34.3238 26.3775 34.3938C26.3077 34.4638 26.2247 34.5193 26.1335 34.557C26.0422 34.5948 25.9444 34.6141 25.8456 34.6138C25.6468 34.6132 25.4563 34.5336 25.3159 34.3923C25.1755 34.2511 25.0967 34.0599 25.0967 33.8605C25.0973 33.6614 25.1764 33.4707 25.3167 33.33C25.457 33.1893 25.6472 33.11 25.8456 33.1094C25.9442 33.1091 26.0418 33.1283 26.1329 33.1659C26.2241 33.2035 26.3069 33.2588 26.3767 33.3286C26.4465 33.3983 26.5018 33.4812 26.5396 33.5725C26.5774 33.6638 26.5968 33.7616 26.5968 33.8605Z" fill="white"/>
<path d="M28.299 33.8605C28.299 34.0599 28.2201 34.2511 28.0798 34.3923C27.9394 34.5336 27.7489 34.6132 27.55 34.6138C27.4513 34.6141 27.3535 34.5948 27.2622 34.557C27.1709 34.5193 27.088 34.4638 27.0182 34.3938C26.9484 34.3238 26.8931 34.2406 26.8554 34.1491C26.8178 34.0576 26.7985 33.9595 26.7988 33.8605C26.7988 33.7616 26.8183 33.6638 26.8561 33.5725C26.8938 33.4812 26.9492 33.3983 27.019 33.3286C27.0888 33.2588 27.1716 33.2035 27.2627 33.1659C27.3539 33.1283 27.4515 33.1091 27.55 33.1094C27.7485 33.11 27.9386 33.1893 28.079 33.33C28.2193 33.4707 28.2984 33.6614 28.299 33.8605Z" fill="white"/>
<path d="M30.0038 33.8605C30.0041 33.9591 29.985 34.0568 29.9476 34.1481C29.9102 34.2393 29.8553 34.3223 29.786 34.3922C29.7167 34.4622 29.6343 34.5177 29.5435 34.5558C29.4527 34.5938 29.3554 34.6135 29.2571 34.6138C29.1583 34.6141 29.0605 34.5948 28.9692 34.557C28.878 34.5193 28.795 34.4638 28.7252 34.3938C28.6554 34.3238 28.6001 34.2406 28.5624 34.1491C28.5248 34.0576 28.5056 33.9595 28.5059 33.8605C28.5059 33.7616 28.5253 33.6638 28.5631 33.5725C28.6009 33.4812 28.6562 33.3983 28.726 33.3286C28.7958 33.2588 28.8786 33.2035 28.9698 33.1659C29.0609 33.1283 29.1585 33.1091 29.2571 33.1094C29.4553 33.11 29.6452 33.1894 29.7852 33.3302C29.9252 33.4709 30.0038 33.6616 30.0038 33.8605Z" fill="white"/>
<path d="M26.5968 35.7065C26.5968 35.9063 26.5177 36.0979 26.3768 36.2391C26.2359 36.3804 26.0449 36.4598 25.8456 36.4598C25.6468 36.4592 25.4563 36.3796 25.3159 36.2384C25.1755 36.0971 25.0967 35.9059 25.0967 35.7065C25.0967 35.5071 25.1755 35.3158 25.3159 35.1746C25.4563 35.0334 25.6468 34.9537 25.8456 34.9531C25.9444 34.9528 26.0422 34.9721 26.1335 35.0099C26.2247 35.0476 26.3077 35.1031 26.3775 35.1731C26.4473 35.2431 26.5026 35.3263 26.5403 35.4178C26.5779 35.5094 26.5971 35.6074 26.5968 35.7065Z" fill="white"/>
<path d="M28.299 35.7056C28.299 35.905 28.2201 36.0962 28.0797 36.2374C27.9394 36.3787 27.7489 36.4583 27.55 36.4589C27.3508 36.4589 27.1597 36.3795 27.0188 36.2382C26.878 36.097 26.7988 35.9053 26.7988 35.7056C26.8 35.5067 26.8798 35.3165 27.0206 35.1766C27.1614 35.0366 27.3518 34.9584 27.55 34.959C27.7489 34.9596 27.9394 35.0392 28.0797 35.1804C28.2201 35.3216 28.299 35.5129 28.299 35.7123" fill="white"/>
<path d="M30.0038 35.7065C30.0038 35.9055 29.9252 36.0964 29.7853 36.2376C29.6454 36.3787 29.4555 36.4586 29.2571 36.4598C29.0578 36.4598 28.8668 36.3804 28.7259 36.2391C28.585 36.0979 28.5059 35.9063 28.5059 35.7065C28.5056 35.6074 28.5248 35.5094 28.5624 35.4178C28.6001 35.3263 28.6554 35.2431 28.7252 35.1731C28.795 35.1031 28.878 35.0476 28.9692 35.0099C29.0605 34.9721 29.1583 34.9528 29.2571 34.9531C29.3554 34.9534 29.4527 34.9731 29.5435 35.0112C29.6343 35.0492 29.7167 35.1048 29.786 35.1747C29.8553 35.2447 29.9102 35.3276 29.9476 35.4189C29.985 35.5101 30.0041 35.6078 30.0038 35.7065Z" fill="white"/>
<path d="M30.0038 37.5519C30.0038 37.7509 29.9252 37.9418 29.7853 38.083C29.6454 38.2241 29.4555 38.304 29.2571 38.3052C29.0578 38.3052 28.8668 38.2258 28.7259 38.0846C28.585 37.9433 28.5059 37.7517 28.5059 37.5519C28.5059 37.453 28.5253 37.3552 28.5631 37.2639C28.6009 37.1726 28.6562 37.0897 28.726 37.02C28.7958 36.9502 28.8786 36.8949 28.9698 36.8573C29.0609 36.8197 29.1585 36.8005 29.2571 36.8008C29.4553 36.8014 29.6452 36.8808 29.7852 37.0216C29.9252 37.1624 30.0038 37.3531 30.0038 37.5519Z" fill="white"/>
<path d="M51.2783 14.6355C51.2783 13.7333 51.8901 13.0566 52.684 13.0566H57.5443C61.2666 13.0566 63.5831 15.4362 63.5831 19.0404V19.0923C63.5831 23.1048 60.7223 25.2024 57.2249 25.2024H54.0762V29.5239C54.0762 30.3923 53.4644 31.0825 52.6908 31.0825C51.9171 31.0825 51.2851 30.3923 51.2851 29.5239L51.2783 14.6355ZM57.3171 22.3583C59.429 22.3583 60.7448 21.0275 60.7448 19.1622V19.1104C60.7448 17.0128 59.3953 15.9143 57.3171 15.9143H54.0739V22.3583H57.3171Z" fill="black"/>
<path d="M65.3135 29.3638V14.6355C65.3135 13.7333 65.9252 13.0566 66.7192 13.0566H75.9607C76.6354 13.0566 77.209 13.6972 77.209 14.4641C77.209 15.2309 76.6422 15.8692 75.9607 15.8692H68.1046V20.5245H74.9396C75.6143 20.5245 76.1879 21.1628 76.1879 21.9545C76.1879 22.7462 75.6188 23.3371 74.9396 23.3371H68.1046V28.1436H76.0732C76.7479 28.1436 77.3214 28.7819 77.3214 29.5487C77.3214 30.3156 76.7546 30.9562 76.0732 30.9562H66.7192C65.9252 30.9562 65.3135 30.2637 65.3135 29.3773" fill="black"/>
<path d="M79.3932 14.6355C79.3932 13.7333 80.0049 13.0566 80.7989 13.0566H86.4756C88.4728 13.0566 90.0404 13.722 91.0615 14.8475C91.9026 15.8196 92.3794 17.1481 92.3794 18.7089V18.7585C92.3794 21.623 90.9018 23.3619 88.7697 24.1017L91.8059 28.4187C92.0871 28.7569 92.2457 29.1807 92.2558 29.6209C92.2633 29.8047 92.2347 29.9882 92.1715 30.1609C92.1083 30.3336 92.0118 30.4921 91.8876 30.6274C91.7633 30.7627 91.6137 30.8721 91.4472 30.9494C91.2808 31.0267 91.1008 31.0704 90.9175 31.078C90.281 31.078 89.8717 30.7464 89.5546 30.2592L85.6906 24.7107H82.1798V29.5172C82.1798 30.3855 81.568 31.0757 80.7944 31.0757C80.0207 31.0757 79.3887 30.3855 79.3887 29.5172L79.3932 14.6355ZM86.2709 21.9229C88.2681 21.9229 89.5411 20.7478 89.5411 18.9322V18.8803C89.5411 16.9631 88.3153 15.9143 86.2484 15.9143H82.1798V21.9229H86.2709Z" fill="black"/>
<path d="M111.018 28.9813V15.0198C111.018 13.9214 111.789 13.0508 112.765 13.0508H121.575C122.436 13.0508 123.149 13.8447 123.149 14.8168C123.149 15.7889 122.445 16.5536 121.575 16.5536H114.49V20.1849H120.563C121.426 20.1849 122.137 20.9766 122.137 21.9487C122.137 22.9208 121.433 23.6876 120.563 23.6876H114.49V27.4475H121.687C122.551 27.4475 123.262 28.2392 123.262 29.2113C123.262 30.1835 122.558 30.9503 121.687 30.9503H112.765C111.789 30.9503 111.018 30.0797 111.018 28.9813Z" fill="black"/>
<path d="M125.093 15.0198C125.093 13.9214 125.864 13.0508 126.84 13.0508H131.291C136.287 13.0508 139.737 16.9122 139.737 21.9487V22.0006C139.737 27.037 136.287 30.9503 131.291 30.9503H126.849C125.873 30.9503 125.102 30.0797 125.102 28.9813L125.093 15.0198ZM131.291 27.3957C134.152 27.3957 136.082 25.2214 136.082 22.0524V22.0006C136.082 18.8293 134.152 16.6054 131.291 16.6054H128.592V27.3957H131.291Z" fill="black"/>
<path d="M141.469 23.2785V14.8655C141.469 13.7671 142.24 12.8965 143.216 12.8965C144.192 12.8965 144.964 13.7671 144.964 14.8655V23.177C144.964 26.0911 146.257 27.6 148.391 27.6C150.526 27.6 151.815 26.1407 151.815 23.3033V14.8655C151.815 13.7671 152.586 12.8965 153.562 12.8965C154.538 12.8965 155.31 13.7671 155.31 14.8655V23.1499C155.31 28.5631 152.611 31.2291 148.337 31.2291C144.064 31.2291 141.469 28.545 141.469 23.2785Z" fill="black"/>
<path d="M157.034 22.0533V22.0014C157.034 16.913 160.439 12.7539 165.32 12.7539C167.704 12.7539 169.316 13.4711 170.632 14.5696C170.849 14.7664 171.022 15.0075 171.138 15.2767C171.254 15.5459 171.312 15.837 171.307 16.1304C171.307 17.204 170.535 18.0475 169.582 18.0475C169.201 18.0399 168.834 17.9049 168.538 17.6641C167.562 16.8454 166.539 16.3852 165.291 16.3852C162.612 16.3852 160.682 18.8911 160.682 21.9585V22.0104C160.682 25.0779 162.567 27.6356 165.291 27.6356C166.766 27.6356 167.742 27.1236 168.741 26.2282C169.022 25.9562 169.396 25.8014 169.786 25.7951C170.673 25.7951 171.422 26.6116 171.422 27.6108C171.422 27.8729 171.37 28.1324 171.269 28.3739C171.167 28.6153 171.018 28.8337 170.83 29.016C169.4 30.4234 167.72 31.2714 165.178 31.2714C160.5 31.2714 157.027 27.2116 157.027 22.0668" fill="black"/>
<path d="M172.471 28.4178L178.01 14.33C178.397 13.3579 179.101 12.7715 180.054 12.7715H180.259C181.213 12.7715 181.894 13.3579 182.283 14.33L187.818 28.4178C187.93 28.6679 187.992 28.9377 188 29.2117C188 30.2583 187.274 31.1041 186.343 31.1041C185.526 31.1041 184.98 30.5673 184.663 29.7508L183.597 26.9382H176.604L175.48 29.8703C175.185 30.6349 174.594 31.0973 173.867 31.0973C172.968 31.0973 172.257 30.2786 172.257 29.2568C172.27 28.9646 172.339 28.6776 172.459 28.411L172.471 28.4178ZM182.29 23.449L180.088 17.5418L177.904 23.4557L182.29 23.449Z" fill="black"/>
<path d="M108.016 14.4824C108.016 13.614 107.402 12.9238 106.63 12.9238C105.859 12.9238 105.225 13.614 105.225 14.4824V19.3971L108.016 17.5656V14.4824Z" fill="black"/>
<path d="M105.221 23.3551C105.221 26.6527 103.7 28.3172 101.226 28.3172C98.7523 28.3172 97.2071 26.5534 97.2071 23.2288V14.4843C97.2071 13.616 96.5954 12.9258 95.8217 12.9258C95.048 12.9258 94.416 13.616 94.416 14.4843V23.3574C94.416 28.545 97.0475 31.2313 101.181 31.2313C105.315 31.2313 108.014 28.5473 108.014 23.204V20.5516L105.221 22.3853V23.3551Z" fill="black"/>
</svg>
